#N canvas 27 42 1265 737 10;
#X obj 329 323 outlet~;
#N canvas 1263 309 99 119 hanning_window 0;
#N canvas 0 22 450 300 (subpatch) 0;
#X array \$0-Hanning 256 float 3;
#A 0 0 0.000150591 0.000602275 0.00135475 0.00240764 0.00376025 0.00541174
0.00736117 0.00960734 0.0121489 0.0149844 0.018112 0.0215298 0.0252359
0.0292279 0.0335036 0.0380602 0.0428951 0.0480053 0.0533879 0.0590393
0.0649565 0.0711357 0.0775732 0.0842652 0.0912076 0.0983962 0.105827
0.113495 0.121396 0.129524 0.137876 0.146447 0.15523 0.16422 0.173414
0.182803 0.192384 0.20215 0.212096 0.222215 0.232501 0.242949 0.253551
0.264302 0.275194 0.286222 0.297379 0.308658 0.320052 0.331555 0.343159
0.354858 0.366644 0.37851 0.390449 0.402455 0.414519 0.426635 0.438795
0.450991 0.463218 0.475466 0.487729 0.5 0.512271 0.524534 0.536782
0.549009 0.561205 0.573365 0.585481 0.597545 0.609551 0.62149 0.633356
0.645142 0.656841 0.668445 0.679947 0.691342 0.702621 0.713778 0.724806
0.735698 0.746449 0.757051 0.767499 0.777785 0.787904 0.79785 0.807616
0.817197 0.826586 0.835779 0.84477 0.853553 0.862124 0.870476 0.878604
0.886505 0.894173 0.901604 0.908792 0.915735 0.922427 0.928864 0.935043
0.940961 0.946612 0.951995 0.957105 0.96194 0.966496 0.970772 0.974764
0.97847 0.981888 0.985016 0.987851 0.990393 0.992639 0.994588 0.99624
0.997592 0.998645 0.999398 0.999849 1 0.999849 0.999398 0.998645 0.997592
0.99624 0.994588 0.992639 0.990393 0.987851 0.985016 0.981888 0.97847
0.974764 0.970772 0.966496 0.96194 0.957105 0.951995 0.946612 0.940961
0.935043 0.928864 0.922427 0.915735 0.908792 0.901604 0.894173 0.886505
0.878604 0.870476 0.862124 0.853553 0.84477 0.835779 0.826586 0.817197
0.807616 0.79785 0.787904 0.777785 0.767499 0.757051 0.746449 0.735698
0.724806 0.713778 0.702621 0.691342 0.679947 0.668445 0.656841 0.645142
0.633356 0.62149 0.609551 0.597545 0.585481 0.573365 0.561205 0.549009
0.536782 0.524534 0.512271 0.5 0.487729 0.475466 0.463218 0.450991
0.438795 0.426635 0.414519 0.402455 0.390449 0.37851 0.366644 0.354858
0.343159 0.331555 0.320052 0.308658 0.297379 0.286222 0.275194 0.264302
0.253551 0.242949 0.232501 0.222215 0.212096 0.20215 0.192384 0.182803
0.173414 0.16422 0.15523 0.146447 0.137876 0.129524 0.121396 0.113495
0.105827 0.0983962 0.0912076 0.0842652 0.0775732 0.0711357 0.0649565
0.0590393 0.0533879 0.0480053 0.0428951 0.0380602 0.0335036 0.0292279
0.0252359 0.0215298 0.018112 0.0149844 0.0121489 0.00960734 0.00736117
0.00541174 0.00376025 0.00240764 0.00135475 0.000602275 0;
#X coords 0 1 255 0 50 50 1;
#X restore 7 -135 graph;
#X restore 372 -104 pd hanning_window;
#X obj 287 -171 loadbang;
#X obj 287 -130 Uzi 256;
#X obj 326 -108 t f f;
#X obj 326 -87 / 128;
#X obj 326 -66 - 1;
#X obj 326 -45 t f b;
#X obj 353 -21 pi;
#X obj 326 -1 *;
#X obj 326 21 expr 0.5+0.5*cos($f1);
#X obj 287 -150 t b b;
#X msg 336 196 1;
#X msg 348 216 0;
#X obj 372 -480 inlet;
#X obj 483 -186 unpack 0 0;
#X obj 504 269 *~;
#X obj 519 70 / 127;
#X obj 372 -349 route 1 2 3 4 5 6 7;
#X obj 417 -480 inlet;
#X obj 394 -410 mtof;
#X obj 372 -431 poly 7 1;
#X obj 457 -452 mtof;
#X obj -89 -167 tgl 15 0 empty empty empty 17 7 0 10 -262144 -1 -1
1 1;
#X obj 457 -431 pack 0 0;
#X obj 372 -389 pack 0 0 0;
#X obj 457 -370 spigot;
#X obj 372 -369 spigot;
#X obj 467 -410 sel 0 1;
#X msg 467 -391 1;
#X msg 498 -391 0;
#X text -72 -169 Poly/Mono;
#X obj 344 278 line~;
#X msg 344 256 \$1 50;
#X obj 329 298 *~;
#X msg 328 109 0;
#X obj 336 175 loadbang;
#X obj 483 -164 poly 1 1;
#X obj 336 236 metro 100;
#X floatatom 167 -153 5 10 10000 0 A_ms - -;
#X floatatom 167 -111 5 0 100 0 S__% - -;
#X floatatom 167 -132 5 10 10000 0 D_ms - -;
#X floatatom 167 -91 5 10 10000 0 R_ms - -;
#X obj -214 -240 init 100;
#X obj 263 -305 / 100;
#X obj 519 93 sel 0;
#X msg 519 219 0 \$1;
#X obj 519 198 f;
#X obj 519 242 vline~;
#X msg 546 157 \$1 \$2 \, \$3 \$4 \$2;
#X obj 546 136 pack 0 0 0 0;
#X obj 592 115 *;
#X obj 546 114 t f f;
#X obj -7 -136 knob 16 16 0 127 0 0 empty empty Gliss 0 -8 0 8 -262144
-1 -1 0 1;
#X obj -8 -99 knob 16 16 0 20 0 0 empty empty Mrate 0 -8 0 8 -262144
-1 -1 0 1;
#X obj -87 -100 knob 16 16 0 50 0 0 empty empty Mod 0 -8 0 8 -262144
-1 -1 0 1;
#X obj -51 -97 tgl 15 0 empty empty learn 0 -6 0 10 -262144 -1 -1 0
7.48032;
#X obj 99 -377 ==;
#X obj 64 -378 ==;
#X obj 31 -329 spigot;
#X obj 79 -421 spigot;
#X msg 85 -398 0;
#X obj 64 -351 &&;
#X obj 114 -398 spigot;
#X obj 34 -455 ctlin;
#X obj 31 -309 / 2.54;
#X obj -1 -357 ==;
#X obj -36 -358 ==;
#X obj -89 -309 spigot;
#X obj -21 -401 spigot;
#X msg -15 -378 0;
#X obj -36 -331 &&;
#X obj 14 -378 spigot;
#X obj -51 -134 tgl 15 0 empty empty learn 0 -6 0 10 -262144 -1 -1
0 7.48032;
#X obj -87 -137 knob 16 16 -127 127 0 0 empty empty Pitch 0 -8 0 8
-262144 -1 -1 750 1;
#X obj 400 -72 / 127;
#X obj 400 -50 * 25;
#X obj -214 -180 init 10;
#X obj -89 -455 bendin;
#X obj -89 -401 / 64.504;
#X obj -89 -378 - 127;
#X msg -77 -426 127;
#X floatatom -52 -273 5 0 0 0 - - -;
#X floatatom -79 -347 5 0 0 0 - - -;
#X floatatom -39 -303 5 0 0 0 - - -;
#X obj 749 -25 textfile;
#X obj 57 -199 bng 27 250 50 0 empty empty empty 17 7 0 10 -262144
-1 -1;
#X msg 800 -52 clear;
#X obj 772 -440 my.hero.mmb \$0-files;
#X msg 783 -461 save;
#X obj 814 -501 textfile;
#X msg 814 -522 read \$1 \, rewind \, bang;
#X obj 814 -481 t b a;
#X obj 841 -460 prepend load;
#X obj 749 -500 savepanel;
#X obj 766 -94 prepend add;
#X msg 766 -419 wave 0 \, attack 10 \, decay 10 \, sustain 100 \, release
10 \, polmon 1 \, mod 0 \, mrate 0 \, gliss 0 \, scope 0 0 0 0 0 0
0 0 0 0 0 0 0 0 0 0 0 0 0 0 0 0 0 0 0 0 0 0 0 0 0 0 0 0 0 0 0 0 0 0
0 0 0 0 0 0 0 0 0 0 0 0 0 0 0 0 0 0 0 0 0 0 0 0 0 0 0 0 0 0 0 0 0 0
0 0 0 0 0 0 0 0 0 0 0 0 0 0 0 0 0 0 0 0 0 0 0 0 0 0 \,;
#X obj 85 -198 popup 124 25 #ffffff popup Default untitled;
#X obj 776 171 list prepend add2;
#X obj 776 192 list trim;
#X msg 749 216 options;
#X msg 768 102 set options;
#X obj 749 80 t b a;
#X obj 1037 11 loadbang;
#X msg 788 80 set;
#X obj -214 -200 init 0;
#X obj -214 -220 init 1;
#X obj 776 129 splitfilename /;
#X msg 579 -279 \$2 \$1;
#X obj 579 -300 pack s s;
#X obj 579 -258 mergefilename /;
#X obj 776 150 splitfilename .;
#X obj 579 -237 pack s s;
#X msg 579 -216 \$1 \$2;
#X obj 579 -195 mergefilename .;
#X obj 749 -520 symbol;
#X obj 231 -283 s attack\$0;
#X obj 242 -263 s decay\$0;
#X obj 255 -243 s sustain\$0;
#X obj 268 -223 s release\$0;
#X obj 329 155 catch~ all\$0;
#X obj 400 -28 s bend\$0;
#X obj 328 132 s kill\$0;
#X obj 218 -107 s vibrate\$0;
#X obj 219 -60 s vibdepth\$0;
#X obj 534 178 r release\$0;
#X obj 615 115 r decay\$0;
#X obj 607 93 r sustain\$0;
#X obj 569 72 r attack\$0;
#N canvas 0 22 450 300 (subpatch) 0;
#X array \$0-scope 131 float 5;
#A 0 0 0 0 0 0 0 0 0 0 0 0 0 0 0 0 0 0 0 0 0 0 0 0 0 0 0 0 0 0 0 0
0 0 0 0 0 0 0 0 0 0 0 0 0 0 0 0 0 0 0 0 0 0 0 0 0 0 0 0 0 0 0 0 0 0
0 0 0 0 0 0 0 0 0 0 0 0 0 0 0 0 0 0 0 0 0 0 0 0 0 0 0 0 0 0 0 0 0 0
0 0 0 0 0 0 0 0 0 0 0 0 0 0 0 0 0 0 0 0 0 0 0 0 0 0 0 0 0 0 0 0;
#X coords 0 1 130 -1 298 100 1;
#X restore -89 -62 graph;
#X obj 326 85 tabwrite \$0-Hanning;
#X obj 334 43 f \$0;
#X msg 334 64 set \$1-Hanning;
#X obj 749 -481 t s b b b;
#X obj 749 39 t a b b;
#X msg 1029 150 symbol \$1;
#X obj 1029 -92 splitfilename /;
#X obj 1029 -72 makefilename %s/*.txt;
#X obj 1029 171 s directory;
#X obj 749 19 r directory;
#X msg 1029 53;
#X obj 1029 129 symbol;
#X msg 1029 -30 save;
#X obj 1037 32 t b b;
#X obj 1029 -52 t b s;
#X symbolatom 1056 86 10 0 0 0 - - -;
#X obj 947 6 prepend load;
#X obj 1029 -10 my.hero.mmb \$0;
#X obj 1029 106 save.me.mmb directory \$0;
#X msg 580 -116 0;
#X obj 580 -136 loadbang;
#X msg 612 -116 0.5;
#X obj 483 -121 vline~;
#X obj 483 -144 pack 0 0;
#X obj 529 -121 osc~;
#X obj 504 -77 +~;
#X obj 529 -98 *~;
#X obj 490 -98 +~;
#X obj 519 -31 *~ 256;
#X obj 504 9 *~ 100;
#X obj 519 -11 tabread~ \$0-Hanning;
#X obj 504 34 tabread4~ \$0-scope;
#X obj 504 -55 phasor~;
#X obj -77 227 f \$0;
#X obj -77 207 loadbang;
#X obj -77 311 pack 0 0 0 0 0 0 0 0 0 0 0;
#X obj -89 41 vsl 29 155 0 1 0 0 empty empty empty 0 -9 0 10 -262144
-1 -1 0 1;
#X obj -59 41 vsl 29 155 0 1 0 0 empty empty empty 0 -9 0 10 -262144
-1 -1 0 1;
#X obj -29 41 vsl 29 155 0 1 0 0 empty empty empty 0 -9 0 10 -262144
-1 -1 0 1;
#X obj 1 41 vsl 29 155 0 1 0 0 empty empty empty 0 -9 0 10 -262144
-1 -1 0 1;
#X obj 31 41 vsl 29 155 0 1 0 0 empty empty empty 0 -9 0 10 -262144
-1 -1 0 1;
#X obj 61 41 vsl 29 155 0 1 0 0 empty empty empty 0 -9 0 10 -262144
-1 -1 0 1;
#X obj 91 41 vsl 29 155 0 1 0 0 empty empty empty 0 -9 0 10 -262144
-1 -1 0 1;
#X obj 121 41 vsl 29 155 0 1 0 0 empty empty empty 0 -9 0 10 -262144
-1 -1 0 1;
#X obj 151 41 vsl 29 155 0 1 0 0 empty empty empty 0 -9 0 10 -262144
-1 -1 0 1;
#X obj 181 41 vsl 28 155 0 1 0 0 empty empty empty 0 -9 0 10 -262144
-1 -1 0 1;
#X obj -89 247 t b f;
#X obj -74 267 t b f;
#X obj -59 287 t b f;
#X obj -43 247 t b f;
#X obj -28 267 t b f;
#X obj -13 287 t b f;
#X obj 3 247 t b f;
#X obj 18 267 t b f;
#X obj 33 287 t b f;
#X obj 49 247 t b f;
#N canvas 0 22 383 526 additive 0;
#X obj 15 -346 phasor~;
#X obj 15 -241 *~;
#X obj 30 -323 *~ 256;
#X obj 15 -283 *~ 100;
#X obj 15 -470 unpack 0 0;
#X obj 15 -25 *~;
#X obj 30 -220 / 127;
#X obj 15 -492 inlet;
#X obj 15 -450 sig~;
#X obj 15 -366 +~;
#X obj 41 -385 *~;
#X obj 41 -409 osc~;
#X obj 30 -197 sel 0;
#X msg 30 -71 0 \$1;
#X obj 30 -92 f;
#X obj 30 -48 vline~;
#X msg 57 -133 \$1 \$2 \, \$3 \$4 \$2;
#X obj 57 -154 pack 0 0 0 0;
#X obj 103 -175 *;
#X obj 57 -176 t f f;
#X obj 15 -428 +~;
#X obj 46 -449 r bend\$0;
#X obj 41 -430 r vibrate\$0;
#X obj 73 -409 r vibdepth\$0;
#X obj 42 -240 r kill\$0;
#X obj 80 -218 r attack\$0;
#X obj 118 -197 r sustain\$0;
#X obj 126 -175 r decay\$0;
#X obj 45 -112 r release\$0;
#X obj 15 -1 throw~ all\$0;
#X obj 30 -303 tabread~ \$0-Hanning;
#X obj 15 -262 tabread4~ \$0-scope;
#X connect 0 0 2 0;
#X connect 0 0 3 0;
#X connect 1 0 5 0;
#X connect 2 0 30 0;
#X connect 3 0 31 0;
#X connect 4 0 8 0;
#X connect 4 1 6 0;
#X connect 5 0 29 0;
#X connect 6 0 12 0;
#X connect 7 0 4 0;
#X connect 8 0 20 0;
#X connect 9 0 0 0;
#X connect 10 0 9 1;
#X connect 11 0 10 0;
#X connect 12 0 14 0;
#X connect 12 1 19 0;
#X connect 13 0 15 0;
#X connect 14 0 13 0;
#X connect 15 0 5 1;
#X connect 16 0 15 0;
#X connect 17 0 16 0;
#X connect 18 0 17 2;
#X connect 19 0 17 0;
#X connect 19 1 18 0;
#X connect 20 0 9 0;
#X connect 21 0 20 1;
#X connect 22 0 11 0;
#X connect 23 0 10 1;
#X connect 24 0 6 0;
#X connect 25 0 17 1;
#X connect 26 0 18 1;
#X connect 27 0 17 3;
#X connect 28 0 14 1;
#X connect 30 0 1 1;
#X connect 31 0 1 0;
#X restore 372 -329 pd additive;
#N canvas 0 22 383 526 additive 0;
#X obj 15 -346 phasor~;
#X obj 15 -241 *~;
#X obj 30 -323 *~ 256;
#X obj 15 -283 *~ 100;
#X obj 15 -470 unpack 0 0;
#X obj 15 -25 *~;
#X obj 30 -220 / 127;
#X obj 15 -492 inlet;
#X obj 15 -450 sig~;
#X obj 15 -366 +~;
#X obj 41 -385 *~;
#X obj 41 -409 osc~;
#X obj 30 -197 sel 0;
#X msg 30 -71 0 \$1;
#X obj 30 -92 f;
#X obj 30 -48 vline~;
#X msg 57 -133 \$1 \$2 \, \$3 \$4 \$2;
#X obj 57 -154 pack 0 0 0 0;
#X obj 103 -175 *;
#X obj 57 -176 t f f;
#X obj 15 -428 +~;
#X obj 46 -449 r bend\$0;
#X obj 41 -430 r vibrate\$0;
#X obj 73 -409 r vibdepth\$0;
#X obj 42 -240 r kill\$0;
#X obj 80 -218 r attack\$0;
#X obj 118 -197 r sustain\$0;
#X obj 126 -175 r decay\$0;
#X obj 45 -112 r release\$0;
#X obj 15 -1 throw~ all\$0;
#X obj 30 -303 tabread~ \$0-Hanning;
#X obj 15 -262 tabread4~ \$0-scope;
#X connect 0 0 2 0;
#X connect 0 0 3 0;
#X connect 1 0 5 0;
#X connect 2 0 30 0;
#X connect 3 0 31 0;
#X connect 4 0 8 0;
#X connect 4 1 6 0;
#X connect 5 0 29 0;
#X connect 6 0 12 0;
#X connect 7 0 4 0;
#X connect 8 0 20 0;
#X connect 9 0 0 0;
#X connect 10 0 9 1;
#X connect 11 0 10 0;
#X connect 12 0 14 0;
#X connect 12 1 19 0;
#X connect 13 0 15 0;
#X connect 14 0 13 0;
#X connect 15 0 5 1;
#X connect 16 0 15 0;
#X connect 17 0 16 0;
#X connect 18 0 17 2;
#X connect 19 0 17 0;
#X connect 19 1 18 0;
#X connect 20 0 9 0;
#X connect 21 0 20 1;
#X connect 22 0 11 0;
#X connect 23 0 10 1;
#X connect 24 0 6 0;
#X connect 25 0 17 1;
#X connect 26 0 18 1;
#X connect 27 0 17 3;
#X connect 28 0 14 1;
#X connect 30 0 1 1;
#X connect 31 0 1 0;
#X restore 387 -308 pd additive;
#N canvas 0 22 383 526 additive 0;
#X obj 15 -346 phasor~;
#X obj 15 -241 *~;
#X obj 30 -323 *~ 256;
#X obj 15 -283 *~ 100;
#X obj 15 -470 unpack 0 0;
#X obj 15 -25 *~;
#X obj 30 -220 / 127;
#X obj 15 -492 inlet;
#X obj 15 -450 sig~;
#X obj 15 -366 +~;
#X obj 41 -385 *~;
#X obj 41 -409 osc~;
#X obj 30 -197 sel 0;
#X msg 30 -71 0 \$1;
#X obj 30 -92 f;
#X obj 30 -48 vline~;
#X msg 57 -133 \$1 \$2 \, \$3 \$4 \$2;
#X obj 57 -154 pack 0 0 0 0;
#X obj 103 -175 *;
#X obj 57 -176 t f f;
#X obj 15 -428 +~;
#X obj 46 -449 r bend\$0;
#X obj 41 -430 r vibrate\$0;
#X obj 73 -409 r vibdepth\$0;
#X obj 42 -240 r kill\$0;
#X obj 80 -218 r attack\$0;
#X obj 118 -197 r sustain\$0;
#X obj 126 -175 r decay\$0;
#X obj 45 -112 r release\$0;
#X obj 15 -1 throw~ all\$0;
#X obj 30 -303 tabread~ \$0-Hanning;
#X obj 15 -262 tabread4~ \$0-scope;
#X connect 0 0 2 0;
#X connect 0 0 3 0;
#X connect 1 0 5 0;
#X connect 2 0 30 0;
#X connect 3 0 31 0;
#X connect 4 0 8 0;
#X connect 4 1 6 0;
#X connect 5 0 29 0;
#X connect 6 0 12 0;
#X connect 7 0 4 0;
#X connect 8 0 20 0;
#X connect 9 0 0 0;
#X connect 10 0 9 1;
#X connect 11 0 10 0;
#X connect 12 0 14 0;
#X connect 12 1 19 0;
#X connect 13 0 15 0;
#X connect 14 0 13 0;
#X connect 15 0 5 1;
#X connect 16 0 15 0;
#X connect 17 0 16 0;
#X connect 18 0 17 2;
#X connect 19 0 17 0;
#X connect 19 1 18 0;
#X connect 20 0 9 0;
#X connect 21 0 20 1;
#X connect 22 0 11 0;
#X connect 23 0 10 1;
#X connect 24 0 6 0;
#X connect 25 0 17 1;
#X connect 26 0 18 1;
#X connect 27 0 17 3;
#X connect 28 0 14 1;
#X connect 30 0 1 1;
#X connect 31 0 1 0;
#X restore 403 -289 pd additive;
#N canvas 0 22 383 526 additive 0;
#X obj 15 -346 phasor~;
#X obj 15 -241 *~;
#X obj 30 -323 *~ 256;
#X obj 15 -283 *~ 100;
#X obj 15 -470 unpack 0 0;
#X obj 15 -25 *~;
#X obj 30 -220 / 127;
#X obj 15 -492 inlet;
#X obj 15 -450 sig~;
#X obj 15 -366 +~;
#X obj 41 -385 *~;
#X obj 41 -409 osc~;
#X obj 30 -197 sel 0;
#X msg 30 -71 0 \$1;
#X obj 30 -92 f;
#X obj 30 -48 vline~;
#X msg 57 -133 \$1 \$2 \, \$3 \$4 \$2;
#X obj 57 -154 pack 0 0 0 0;
#X obj 103 -175 *;
#X obj 57 -176 t f f;
#X obj 15 -428 +~;
#X obj 46 -449 r bend\$0;
#X obj 41 -430 r vibrate\$0;
#X obj 73 -409 r vibdepth\$0;
#X obj 42 -240 r kill\$0;
#X obj 80 -218 r attack\$0;
#X obj 118 -197 r sustain\$0;
#X obj 126 -175 r decay\$0;
#X obj 45 -112 r release\$0;
#X obj 15 -1 throw~ all\$0;
#X obj 30 -303 tabread~ \$0-Hanning;
#X obj 15 -262 tabread4~ \$0-scope;
#X connect 0 0 2 0;
#X connect 0 0 3 0;
#X connect 1 0 5 0;
#X connect 2 0 30 0;
#X connect 3 0 31 0;
#X connect 4 0 8 0;
#X connect 4 1 6 0;
#X connect 5 0 29 0;
#X connect 6 0 12 0;
#X connect 7 0 4 0;
#X connect 8 0 20 0;
#X connect 9 0 0 0;
#X connect 10 0 9 1;
#X connect 11 0 10 0;
#X connect 12 0 14 0;
#X connect 12 1 19 0;
#X connect 13 0 15 0;
#X connect 14 0 13 0;
#X connect 15 0 5 1;
#X connect 16 0 15 0;
#X connect 17 0 16 0;
#X connect 18 0 17 2;
#X connect 19 0 17 0;
#X connect 19 1 18 0;
#X connect 20 0 9 0;
#X connect 21 0 20 1;
#X connect 22 0 11 0;
#X connect 23 0 10 1;
#X connect 24 0 6 0;
#X connect 25 0 17 1;
#X connect 26 0 18 1;
#X connect 27 0 17 3;
#X connect 28 0 14 1;
#X connect 30 0 1 1;
#X connect 31 0 1 0;
#X restore 419 -269 pd additive;
#N canvas 0 22 383 526 additive 0;
#X obj 15 -346 phasor~;
#X obj 15 -241 *~;
#X obj 30 -323 *~ 256;
#X obj 15 -283 *~ 100;
#X obj 15 -470 unpack 0 0;
#X obj 15 -25 *~;
#X obj 30 -220 / 127;
#X obj 15 -492 inlet;
#X obj 15 -450 sig~;
#X obj 15 -366 +~;
#X obj 41 -385 *~;
#X obj 41 -409 osc~;
#X obj 30 -197 sel 0;
#X msg 30 -71 0 \$1;
#X obj 30 -92 f;
#X obj 30 -48 vline~;
#X msg 57 -133 \$1 \$2 \, \$3 \$4 \$2;
#X obj 57 -154 pack 0 0 0 0;
#X obj 103 -175 *;
#X obj 57 -176 t f f;
#X obj 15 -428 +~;
#X obj 46 -449 r bend\$0;
#X obj 41 -430 r vibrate\$0;
#X obj 73 -409 r vibdepth\$0;
#X obj 42 -240 r kill\$0;
#X obj 80 -218 r attack\$0;
#X obj 118 -197 r sustain\$0;
#X obj 126 -175 r decay\$0;
#X obj 45 -112 r release\$0;
#X obj 15 -1 throw~ all\$0;
#X obj 30 -303 tabread~ \$0-Hanning;
#X obj 15 -262 tabread4~ \$0-scope;
#X connect 0 0 2 0;
#X connect 0 0 3 0;
#X connect 1 0 5 0;
#X connect 2 0 30 0;
#X connect 3 0 31 0;
#X connect 4 0 8 0;
#X connect 4 1 6 0;
#X connect 5 0 29 0;
#X connect 6 0 12 0;
#X connect 7 0 4 0;
#X connect 8 0 20 0;
#X connect 9 0 0 0;
#X connect 10 0 9 1;
#X connect 11 0 10 0;
#X connect 12 0 14 0;
#X connect 12 1 19 0;
#X connect 13 0 15 0;
#X connect 14 0 13 0;
#X connect 15 0 5 1;
#X connect 16 0 15 0;
#X connect 17 0 16 0;
#X connect 18 0 17 2;
#X connect 19 0 17 0;
#X connect 19 1 18 0;
#X connect 20 0 9 0;
#X connect 21 0 20 1;
#X connect 22 0 11 0;
#X connect 23 0 10 1;
#X connect 24 0 6 0;
#X connect 25 0 17 1;
#X connect 26 0 18 1;
#X connect 27 0 17 3;
#X connect 28 0 14 1;
#X connect 30 0 1 1;
#X connect 31 0 1 0;
#X restore 435 -248 pd additive;
#N canvas 0 22 383 526 additive 0;
#X obj 15 -346 phasor~;
#X obj 15 -241 *~;
#X obj 30 -323 *~ 256;
#X obj 15 -283 *~ 100;
#X obj 15 -470 unpack 0 0;
#X obj 15 -25 *~;
#X obj 30 -220 / 127;
#X obj 15 -492 inlet;
#X obj 15 -450 sig~;
#X obj 15 -366 +~;
#X obj 41 -385 *~;
#X obj 41 -409 osc~;
#X obj 30 -197 sel 0;
#X msg 30 -71 0 \$1;
#X obj 30 -92 f;
#X obj 30 -48 vline~;
#X msg 57 -133 \$1 \$2 \, \$3 \$4 \$2;
#X obj 57 -154 pack 0 0 0 0;
#X obj 103 -175 *;
#X obj 57 -176 t f f;
#X obj 15 -428 +~;
#X obj 46 -449 r bend\$0;
#X obj 41 -430 r vibrate\$0;
#X obj 73 -409 r vibdepth\$0;
#X obj 42 -240 r kill\$0;
#X obj 80 -218 r attack\$0;
#X obj 118 -197 r sustain\$0;
#X obj 126 -175 r decay\$0;
#X obj 45 -112 r release\$0;
#X obj 15 -1 throw~ all\$0;
#X obj 30 -303 tabread~ \$0-Hanning;
#X obj 15 -262 tabread4~ \$0-scope;
#X connect 0 0 2 0;
#X connect 0 0 3 0;
#X connect 1 0 5 0;
#X connect 2 0 30 0;
#X connect 3 0 31 0;
#X connect 4 0 8 0;
#X connect 4 1 6 0;
#X connect 5 0 29 0;
#X connect 6 0 12 0;
#X connect 7 0 4 0;
#X connect 8 0 20 0;
#X connect 9 0 0 0;
#X connect 10 0 9 1;
#X connect 11 0 10 0;
#X connect 12 0 14 0;
#X connect 12 1 19 0;
#X connect 13 0 15 0;
#X connect 14 0 13 0;
#X connect 15 0 5 1;
#X connect 16 0 15 0;
#X connect 17 0 16 0;
#X connect 18 0 17 2;
#X connect 19 0 17 0;
#X connect 19 1 18 0;
#X connect 20 0 9 0;
#X connect 21 0 20 1;
#X connect 22 0 11 0;
#X connect 23 0 10 1;
#X connect 24 0 6 0;
#X connect 25 0 17 1;
#X connect 26 0 18 1;
#X connect 27 0 17 3;
#X connect 28 0 14 1;
#X connect 30 0 1 1;
#X connect 31 0 1 0;
#X restore 451 -229 pd additive;
#N canvas 0 22 383 526 additive 0;
#X obj 15 -346 phasor~;
#X obj 15 -241 *~;
#X obj 30 -323 *~ 256;
#X obj 15 -283 *~ 100;
#X obj 15 -470 unpack 0 0;
#X obj 15 -25 *~;
#X obj 30 -220 / 127;
#X obj 15 -492 inlet;
#X obj 15 -450 sig~;
#X obj 15 -366 +~;
#X obj 41 -385 *~;
#X obj 41 -409 osc~;
#X obj 30 -197 sel 0;
#X msg 30 -71 0 \$1;
#X obj 30 -92 f;
#X obj 30 -48 vline~;
#X msg 57 -133 \$1 \$2 \, \$3 \$4 \$2;
#X obj 57 -154 pack 0 0 0 0;
#X obj 103 -175 *;
#X obj 57 -176 t f f;
#X obj 15 -428 +~;
#X obj 46 -449 r bend\$0;
#X obj 41 -430 r vibrate\$0;
#X obj 73 -409 r vibdepth\$0;
#X obj 42 -240 r kill\$0;
#X obj 80 -218 r attack\$0;
#X obj 118 -197 r sustain\$0;
#X obj 126 -175 r decay\$0;
#X obj 45 -112 r release\$0;
#X obj 15 -1 throw~ all\$0;
#X obj 30 -303 tabread~ \$0-Hanning;
#X obj 15 -262 tabread4~ \$0-scope;
#X connect 0 0 2 0;
#X connect 0 0 3 0;
#X connect 1 0 5 0;
#X connect 2 0 30 0;
#X connect 3 0 31 0;
#X connect 4 0 8 0;
#X connect 4 1 6 0;
#X connect 5 0 29 0;
#X connect 6 0 12 0;
#X connect 7 0 4 0;
#X connect 8 0 20 0;
#X connect 9 0 0 0;
#X connect 10 0 9 1;
#X connect 11 0 10 0;
#X connect 12 0 14 0;
#X connect 12 1 19 0;
#X connect 13 0 15 0;
#X connect 14 0 13 0;
#X connect 15 0 5 1;
#X connect 16 0 15 0;
#X connect 17 0 16 0;
#X connect 18 0 17 2;
#X connect 19 0 17 0;
#X connect 19 1 18 0;
#X connect 20 0 9 0;
#X connect 21 0 20 1;
#X connect 22 0 11 0;
#X connect 23 0 10 1;
#X connect 24 0 6 0;
#X connect 25 0 17 1;
#X connect 26 0 18 1;
#X connect 27 0 17 3;
#X connect 28 0 14 1;
#X connect 30 0 1 1;
#X connect 31 0 1 0;
#X restore 467 -209 pd additive;
#X obj -288 22 save.me.mmb partial1 \$0-files;
#X obj -290 -146 save.me.mmb attack \$0-files;
#X obj -290 -126 save.me.mmb decay \$0-files;
#X obj -290 -106 save.me.mmb sustain \$0-files;
#X obj -290 -86 save.me.mmb release \$0-files;
#X obj -290 -67 save.me.mmb polmon \$0-files;
#X obj -290 -47 save.me.mmb mod \$0-files;
#X obj -290 -27 save.me.mmb mrate \$0-files;
#X obj -290 -7 save.me.mmb gliss \$0-files;
#X obj -288 42 save.me.mmb partial2 \$0-files;
#X obj -288 62 save.me.mmb partial3 \$0-files;
#X obj -288 82 save.me.mmb partial4 \$0-files;
#X obj -288 102 save.me.mmb partial5 \$0-files;
#X obj -288 122 save.me.mmb partial6 \$0-files;
#X obj -288 142 save.me.mmb partial7 \$0-files;
#X obj -288 162 save.me.mmb partial8 \$0-files;
#X obj -288 182 save.me.mmb partial9 \$0-files;
#X obj -288 202 save.me.mmb partial10 \$0-files;
#X obj 504 152 *~;
#X msg -77 332 \; \$1-scope sinesum 128 \$2 \$3 \$4 \$5 \$6 \$7 \$8
\$9 \$10 \$11 \; \$1-scope normalize;
#X obj 749 60 folder_list *.additive~.txt;
#X msg 749 -73 write \$1.additive~.txt;
#X connect 2 0 11 0;
#X connect 3 2 4 0;
#X connect 4 0 5 0;
#X connect 4 1 130 1;
#X connect 5 0 6 0;
#X connect 6 0 7 0;
#X connect 7 0 9 0;
#X connect 7 1 8 0;
#X connect 8 0 9 1;
#X connect 9 0 10 0;
#X connect 10 0 130 0;
#X connect 11 0 3 0;
#X connect 11 1 131 0;
#X connect 12 0 38 0;
#X connect 13 0 38 0;
#X connect 14 0 21 0;
#X connect 14 0 22 0;
#X connect 15 0 37 0;
#X connect 15 1 37 1;
#X connect 16 0 0 0;
#X connect 17 0 45 0;
#X connect 18 0 186 0;
#X connect 18 1 187 0;
#X connect 18 2 188 0;
#X connect 18 3 189 0;
#X connect 18 4 190 0;
#X connect 18 5 191 0;
#X connect 18 6 192 0;
#X connect 18 7 15 0;
#X connect 19 0 21 1;
#X connect 19 0 24 1;
#X connect 20 0 25 1;
#X connect 21 0 25 0;
#X connect 21 1 20 0;
#X connect 21 2 25 2;
#X connect 22 0 24 0;
#X connect 23 0 27 1;
#X connect 23 0 28 0;
#X connect 23 0 33 0;
#X connect 23 0 35 0;
#X connect 23 0 198 0;
#X connect 24 0 26 0;
#X connect 25 0 27 0;
#X connect 26 0 18 0;
#X connect 27 0 18 0;
#X connect 28 0 29 0;
#X connect 28 1 30 0;
#X connect 29 0 26 1;
#X connect 30 0 26 1;
#X connect 30 0 17 0;
#X connect 32 0 34 1;
#X connect 33 0 32 0;
#X connect 34 0 0 0;
#X connect 35 0 122 0;
#X connect 36 0 12 0;
#X connect 37 1 153 0;
#X connect 37 2 17 0;
#X connect 39 0 116 0;
#X connect 39 0 194 0;
#X connect 40 0 44 0;
#X connect 40 0 196 0;
#X connect 41 0 117 0;
#X connect 41 0 195 0;
#X connect 42 0 119 0;
#X connect 42 0 197 0;
#X connect 43 0 40 0;
#X connect 43 0 196 0;
#X connect 44 0 118 0;
#X connect 45 0 47 0;
#X connect 45 1 52 0;
#X connect 46 0 48 0;
#X connect 47 0 46 0;
#X connect 48 0 16 1;
#X connect 49 0 48 0;
#X connect 50 0 49 0;
#X connect 51 0 50 2;
#X connect 52 0 50 0;
#X connect 52 1 51 0;
#X connect 53 0 153 1;
#X connect 53 0 201 0;
#X connect 54 0 123 0;
#X connect 54 0 200 0;
#X connect 55 0 124 0;
#X connect 55 0 156 1;
#X connect 55 0 199 0;
#X connect 56 0 63 1;
#X connect 56 0 60 1;
#X connect 57 0 62 1;
#X connect 58 0 62 0;
#X connect 59 0 65 0;
#X connect 60 0 61 0;
#X connect 60 0 58 1;
#X connect 61 0 56 0;
#X connect 62 0 59 1;
#X connect 63 0 57 1;
#X connect 64 0 59 0;
#X connect 64 0 68 0;
#X connect 64 1 60 0;
#X connect 64 1 58 0;
#X connect 64 1 69 0;
#X connect 64 1 67 0;
#X connect 64 2 63 0;
#X connect 64 2 57 0;
#X connect 64 2 66 0;
#X connect 64 2 72 0;
#X connect 65 0 55 0;
#X connect 66 0 71 1;
#X connect 67 0 71 0;
#X connect 68 0 74 0;
#X connect 68 0 82 0;
#X connect 69 0 70 0;
#X connect 69 0 67 1;
#X connect 70 0 73 0;
#X connect 71 0 68 1;
#X connect 71 0 84 0;
#X connect 72 0 66 1;
#X connect 73 0 72 1;
#X connect 73 0 69 1;
#X connect 74 0 75 0;
#X connect 75 0 76 0;
#X connect 76 0 121 0;
#X connect 76 0 157 1;
#X connect 77 0 39 0;
#X connect 77 0 42 0;
#X connect 77 0 41 0;
#X connect 77 0 194 0;
#X connect 77 0 195 0;
#X connect 77 0 197 0;
#X connect 78 0 79 0;
#X connect 78 0 81 0;
#X connect 78 1 72 0;
#X connect 78 1 66 0;
#X connect 78 1 81 0;
#X connect 79 0 80 0;
#X connect 80 0 68 0;
#X connect 80 0 83 0;
#X connect 81 0 69 0;
#X connect 81 0 67 0;
#X connect 86 0 115 0;
#X connect 87 0 85 0;
#X connect 88 0 96 0;
#X connect 89 0 88 0;
#X connect 90 0 92 0;
#X connect 91 0 90 0;
#X connect 92 0 90 0;
#X connect 92 1 93 0;
#X connect 93 0 88 0;
#X connect 94 0 133 0;
#X connect 95 0 85 0;
#X connect 96 0 95 0;
#X connect 97 1 109 0;
#X connect 98 0 99 0;
#X connect 99 0 100 0;
#X connect 100 0 97 0;
#X connect 101 0 100 0;
#X connect 102 0 100 0;
#X connect 102 1 107 0;
#X connect 103 0 143 0;
#X connect 104 0 100 0;
#X connect 105 0 74 0;
#X connect 105 0 199 0;
#X connect 105 0 200 0;
#X connect 105 0 201 0;
#X connect 106 0 23 0;
#X connect 106 0 198 0;
#X connect 107 0 109 1;
#X connect 107 0 115 1;
#X connect 107 1 111 0;
#X connect 108 0 110 0;
#X connect 109 0 108 0;
#X connect 110 0 112 0;
#X connect 111 0 98 0;
#X connect 111 1 112 1;
#X connect 112 0 113 0;
#X connect 113 0 114 0;
#X connect 114 0 91 0;
#X connect 115 0 94 0;
#X connect 120 0 34 0;
#X connect 125 0 47 1;
#X connect 126 0 50 3;
#X connect 127 0 51 1;
#X connect 128 0 50 1;
#X connect 131 0 132 0;
#X connect 132 0 130 0;
#X connect 133 0 214 0;
#X connect 133 0 136 0;
#X connect 133 1 96 0;
#X connect 133 2 89 0;
#X connect 133 3 87 0;
#X connect 134 0 213 0;
#X connect 134 1 101 0;
#X connect 134 2 104 0;
#X connect 135 0 138 0;
#X connect 136 0 137 0;
#X connect 137 0 144 0;
#X connect 139 0 134 0;
#X connect 140 0 146 0;
#X connect 141 0 135 0;
#X connect 141 0 145 0;
#X connect 142 0 147 0;
#X connect 143 0 140 0;
#X connect 143 1 134 0;
#X connect 144 0 142 0;
#X connect 144 1 145 0;
#X connect 145 0 138 0;
#X connect 145 0 148 0;
#X connect 146 0 147 0;
#X connect 147 0 140 0;
#X connect 148 0 141 0;
#X connect 150 0 149 0;
#X connect 150 0 151 0;
#X connect 152 0 157 0;
#X connect 153 0 152 0;
#X connect 154 0 156 0;
#X connect 155 0 162 0;
#X connect 156 0 155 1;
#X connect 157 0 155 0;
#X connect 158 0 160 0;
#X connect 159 0 161 0;
#X connect 160 0 211 1;
#X connect 161 0 211 0;
#X connect 162 0 158 0;
#X connect 162 0 159 0;
#X connect 163 0 165 0;
#X connect 164 0 163 0;
#X connect 165 0 212 0;
#X connect 166 0 176 0;
#X connect 166 0 193 0;
#X connect 167 0 177 0;
#X connect 167 0 202 0;
#X connect 168 0 178 0;
#X connect 168 0 203 0;
#X connect 169 0 179 0;
#X connect 169 0 204 0;
#X connect 170 0 180 0;
#X connect 170 0 205 0;
#X connect 171 0 181 0;
#X connect 171 0 206 0;
#X connect 172 0 182 0;
#X connect 172 0 207 0;
#X connect 173 0 183 0;
#X connect 173 0 208 0;
#X connect 174 0 184 0;
#X connect 174 0 209 0;
#X connect 175 0 185 0;
#X connect 175 0 210 0;
#X connect 176 0 165 0;
#X connect 176 1 165 1;
#X connect 177 0 165 0;
#X connect 177 1 165 2;
#X connect 178 0 165 0;
#X connect 178 1 165 3;
#X connect 179 0 165 0;
#X connect 179 1 165 4;
#X connect 180 0 165 0;
#X connect 180 1 165 5;
#X connect 181 0 165 0;
#X connect 181 1 165 6;
#X connect 182 0 165 0;
#X connect 182 1 165 7;
#X connect 183 0 165 0;
#X connect 183 1 165 8;
#X connect 184 0 165 0;
#X connect 184 1 165 9;
#X connect 185 0 165 0;
#X connect 185 1 165 10;
#X connect 193 0 166 0;
#X connect 194 0 39 0;
#X connect 195 0 41 0;
#X connect 196 0 40 0;
#X connect 197 0 42 0;
#X connect 198 0 23 0;
#X connect 199 0 55 0;
#X connect 200 0 54 0;
#X connect 201 0 53 0;
#X connect 202 0 167 0;
#X connect 203 0 168 0;
#X connect 204 0 169 0;
#X connect 205 0 170 0;
#X connect 206 0 171 0;
#X connect 207 0 172 0;
#X connect 208 0 173 0;
#X connect 209 0 174 0;
#X connect 210 0 175 0;
#X connect 211 0 16 0;
#X connect 213 0 102 0;
#X connect 214 0 85 0;
#X coords 0 -1 1 1 300 400 1 -90 -200;
