#N canvas 664 249 389 322 10;
#X text 11 8 Arithmetic Acceleration dn = d0 - cn;
#X obj 188 140 counter;
#X obj 38 227 outlet;
#X obj 38 205 delay \$2;
#X obj 83 163 expr $f1-$f2 * $f3;
#X obj 83 140 f \$1;
#X obj 135 140 f \$2;
#X obj 11 101 t b b;
#X msg 38 184 stop;
#X obj 89 184 f \$2;
#X obj 95 101 t b b b;
#X obj 11 40 inlet;
#X obj 11 60 route stop;
#X obj 104 39 inlet;
#X obj 156 39 inlet;
#X obj 68 80 sel 0;
#X connect 1 0 4 2;
#X connect 3 0 2 0;
#X connect 3 0 10 0;
#X connect 4 0 3 1;
#X connect 5 0 4 0;
#X connect 6 0 4 1;
#X connect 7 0 1 2;
#X connect 7 0 9 0;
#X connect 7 1 8 0;
#X connect 8 0 3 0;
#X connect 9 0 3 1;
#X connect 10 0 3 0;
#X connect 10 1 5 0;
#X connect 10 2 1 0;
#X connect 10 2 6 0;
#X connect 11 0 12 0;
#X connect 12 0 7 0;
#X connect 12 1 15 0;
#X connect 13 0 5 1;
#X connect 14 0 6 1;
#X connect 15 0 7 0;
#X connect 15 1 10 0;
