#N canvas 322 118 252 186 10;
#X obj 2 84 netsend;
#X msg 2 -40 send \$1 bang;
#X obj 2 -60 f \$1;
#X obj 2 -80 inlet;
#X obj 9 -20 inlet;
#X msg 15 20 localhost;
#X obj 15 0 loadbang;
#X msg 9 60 connect \$1 3000;
#X obj 9 40 symbol;
#X connect 1 0 0 0;
#X connect 2 0 1 0;
#X connect 3 0 2 0;
#X connect 4 0 8 0;
#X connect 5 0 8 0;
#X connect 6 0 5 0;
#X connect 7 0 0 0;
#X connect 8 0 7 0;
