#N canvas 41 -8 1162 678 10;
#X obj 738 251 zl sect;
#X msg -22 295 0 2000 4000 6000 8000 10000 11975 13975 15975 17975
19950 21950 23925 25925 27900 29900 31875 33875 35850 37825 39800 41800
43775 45750 47725 49700 51675 53650 55625 57600 59575 61525 63500 65475
67450 69400 71375 73350 75300 77275 79225 81175 83150 85100 87050 89025
90975 92925 94875 96825 98775 100725 102675 104625 106575 108525 110475
112425 114350 116300 118250 120200 122125 124075 126000 127950 129875
131825 133750 135675 137600 139550 141475 143400 145325 147250 149175
151100 153025 154950 156875 158800 160725 162650 164550 166475 168400
170300 172225 174150 176050 177975 179875 181775 183700 185600 187500
189425 191325 193225 195125 197025 198925 200825 202725 204625 206525
208425 210325 212225 214100 216000 217900 219775 221675 223575 225450
227350 229225 231125 233000 234875 236775 238650 240525 242400 244275
246175 248050 249925 251800 253675 255550 257400 259275 261150 263025
264900 266750 268625 270500 272350 274225 276075 277950 279800 281675
283525 285375 287250 289100 290950 292800 294650 296500 298375 300225
302075 303925 305750 307600 309450 311300 313150 314975 316825 318675
320500 322350 324200 326025 327875 329700 331525 333375 335200 337025
338875 340700 342525 344350 346175 348000 349850 351675 353475 355300
357125 358950 360775 362600 364425 366225 368050 369875 371675 373500
375300 377125 378925 380750 382550 384350 386175 387975 389775 391575
393400 395200 397000 398800 400600 402400 404200 406000 407800 409575
411375 413175 414975 416750 418550 420350 422125 423925 425700 427500
429275 431075 432850 434625 436425 438200 439975 441750 443550 445325
447100 448875 450650 452425 454200 455975 457750 459525 461275 463050
464825 466600 468350 470125 471875 473650 475425 477175 478925 480700
482450 484225 485975 487725 489475 491250 493000 494750 496500 498250
500000 501750 503500 505250 507000 508750 510500 512225 513975 515725
517475 519200 520950 522675 524425 526175 527900 529625 531375 533100
534850 536575 538300 540025 541775 543500 545225 546950 548675 550400
552125 553850 555575 557300 559025 560725 562450 564175 565900 567600
569325 571050 572750 574475 576175 577900 579600 581325 583025 584725
586450 588150 589850 591550 593275 594975 596675 598375 600075 601775
603475 605175 606875 608575 610250 611950 613650 615350 617025 618725
620425 622100 623800 625475 627175 628850 630550 632225 633900 635600
637275 638950 640625 642325 644000 645675 647350 649025 650700 652375
654050 655725 657400 659075 660725 662400 664075 665750 667400 669075
670750 672400 674075 675725 677400 679050 680725 682375 684025 685700
687350 689000 690675 692325 693975 695625 697275 698925 700575 702225
703875 705525 707175 708825 710475 712100 713750 715400 717050 718675
720325 721950 723600 725250 726875 728500 730150 731775 733425 735050
736675 738325 739950 741575 743200 744825 746450 748075 749700 751325
752950 754575 756200 757825 759450 761075 762700 764300 765925 767550
769150 770775 772400 774000 775625 777225 778850 780450 782050 783675
785275 786875 788500 790100 791700 793300 794900 796500 798125 799725
801325 802925 804525 806100 807700 809300 810900 812500 814100 815675
817275 818875 820450 822050 823625 825225 826800 828400 829975 831575
833150 834725 836325 837900 839475 841050 842650 844225 845800 847375
848950 850525 852100 853675 855250 856825 858400 859950 861525 863100
864675 866225 867800 869375 870925 872500 874075 875625 877200 878750
880300 881875 883425;
#X msg -34 34 set;
#X obj 757 337 list trim;
#X obj 757 316 list prepend add2;
#X msg 757 358 0 2000 4000 87050 100725 124075 212225 233000 268625
;
#X msg 777 294 set;
#X obj 372 275 list trim;
#X msg 372 295 0 500 1000 1500 2000 2500 3000 3500 4000 4500 5000 5525
6025 6525 7025 7525 8025 8525 9050 9550 10050 10550 11050 11575 12075
12575 13075 13600 14100 14600 15100 15625 16125 16625 17150 17650 18150
18675 19175 19675 20200 20700 21225 21725 22250 22750 23250 23775 24275
24800 25300 25825 26325 26850 27350 27875 28400 28900 29425 29925 30450
30950 31475 32000 32500 33025 33550 34050 34575 35100 35600 36125 36650
37175 37675 38200 38725 39250 39750 40275 40800 41325 41850 42350 42875
43400 43925 44450 44975 45500 46025 46550 47050 47575 48100 48625 49150
49675 50200 50725 51250 51775 52300 52825 53350 53900 54425 54950 55475
56000 56525 57050 57575 58100 58650 59175 59700 60225 60750 61300 61825
62350 62875 63425 63950 64475 65000 65550 66075 66600 67150 67675 68200
68750 69275 69800 70350 70875 71425 71950 72500 73025 73550 74100 74625
75175 75700 76250 76775 77325 77875 78400 78950 79475 80025 80550 81100
81650 82175 82725 83275 83800 84350 84900 85425 85975 86525 87050 87600
88150 88700 89250 89775 90325 90875 91425 91975 92500 93050 93600 94150
94700 95250 95800 96350 96875 97425 97975 98525 99075 99625 100175
100725 101275 101825 102375 102925 103475 104050 104600 105150 105700
106250 106800 107350 107900 108450 109025 109575 110125 110675 111225
111800 112350 112900 113450 114025 114575 115125 115700 116250 116800
117375 117925 118475 119050 119600 120150 120725 121275 121850 122400
122975 123525 124075 124650 125200 125775 126325 126900 127450 128025
128600 129150 129725 130275 130850 131425 131975 132550 133100 133675
134250 134825 135375 135950 136525 137075 137650 138225 138800 139350
139925 140500 141075 141650 142200 142775 143350 143925 144500 145075
145650 146225 146800 147350 147925 148500 149075 149650 150225 150800
151375 151950 152525 153100 153700 154275 154850 155425 156000 156575
157150 157725 158300 158900 159475 160050 160625 161200 161800 162375
162950 163525 164125 164700 165275 165850 166450 167025 167600 168200
168775 169375 169950 170525 171125 171700 172300 172875 173475 174050
174625 175225 175800 176400 177000 177575 178175 178750 179350 179925
180525 181125 181700 182300 182875 183475 184075 184650 185250 185850
186450 187025 187625 188225 188825 189400 190000 190600 191200 191800
192375 192975 193575 194175 194775 195375 195975 196575 197150 197750
198350 198950 199550 200150 200750 201350 201950 202550 203150 203775
204375 204975 205575 206175 206775 207375 207975 208575 209200 209800
210400 211000 211600 212225 212825 213425 214025 214650 215250 215850
216475 217075 217675 218300 218900 219500 220125 220725 221350 221950
222550 223175 223775 224400 225000 225625 226225 226850 227450 228075
228700 229300 229925 230525 231150 231775 232375 233000 233600 234225
234850 235475 236075 236700 237325 237925 238550 239175 239800 240425
241025 241650 242275 242900 243525 244150 244750 245375 246000 246625
247250 247875 248500 249125 249750 250375 251000 251625 252250 252875
253500 254125 254750 255375 256000 256650 257275 257900 258525 259150
259775 260425 261050 261675 262300 262925 263575 264200 264825 265475
266100 266725 267375 268000 268625 269275 269900 270525 271175 271800
272450 273075 273725 274350 275000 275625 276275 276900 277550 278175
278825 279450 280100 280725 281375 282025 282650 283300;
#X obj -61 -5 bng 15 250 50 0 empty empty empty 17 7 0 10 -262144 -1
-1;
#X obj 372 255 list prepend add2;
#X obj -42 75 t b b;
#X obj 372 95 generalised 500 1.0005;
#X obj -22 95 generalised 2000 0.9995;
#X obj 372 235 change;
#X obj 372 194 int;
#X obj 372 174 + 0.5;
#X obj -61 14 t b b;
#X obj -61 54 Uzi 500;
#X floatatom 554 95 5 0 0 0 - - -;
#X obj 738 273 t b a b;
#X obj 372 214 * 1;
#X obj 372 154 / 1;
#X obj -22 275 list trim;
#X obj -22 255 list prepend add2;
#X obj -22 235 change;
#X obj -22 194 int;
#X obj -22 174 + 0.5;
#X obj -22 214 * 1;
#X obj -22 154 / 1;
#X obj -22 134 int;
#X obj -22 114 + 0.5;
#X obj 372 134 int;
#X obj 372 114 + 0.5;
#X obj 757 575 outlet;
#X obj 45 -5 inlet;
#X obj 84 -5 inlet;
#X obj 123 -4 inlet;
#X obj 163 -4 inlet;
#X obj 202 -4 inlet;
#X obj 241 -4 inlet;
#X obj 6 -5 inlet;
#X obj 757 555 zl nth;
#X obj 763 535 t b f;
#X obj 762 115 hradio 15 1 1 9 empty \$0-selector empty 0 -8 0 10 -262144
-1 -1 0;
#X obj 763 443 pack 0 \$0;
#X msg 763 463 \; \$2-selector number \$1;
#X obj 763 421 list length;
#X obj 763 515 + 1;
#X obj 841 535 * 15;
#X obj 881 169 namecanvas \$0-coincidence_check;
#X msg 841 555 donecanvasdialog 0 0 1 0 -1 1 1 \$1 30 762 100 \, dirty
0;
#X obj 841 575 s \$0-coincidence_check;
#X obj 841 443 max 7;
#X obj 56 42 init \$1;
#X obj 113 42 init \$2;
#X obj 436 32 init \$3;
#X obj 501 32 init \$4;
#X connect 0 0 20 0;
#X connect 1 0 0 0;
#X connect 2 0 1 0;
#X connect 2 0 8 0;
#X connect 3 0 5 0;
#X connect 4 0 3 0;
#X connect 5 0 42 0;
#X connect 5 0 47 0;
#X connect 6 0 5 0;
#X connect 7 0 8 0;
#X connect 8 0 0 1;
#X connect 9 0 17 0;
#X connect 10 0 7 0;
#X connect 11 0 1 0;
#X connect 11 1 8 0;
#X connect 12 0 33 0;
#X connect 13 0 31 0;
#X connect 14 0 10 0;
#X connect 15 0 21 0;
#X connect 16 0 15 0;
#X connect 17 0 18 0;
#X connect 17 1 2 0;
#X connect 18 1 11 0;
#X connect 18 2 12 0;
#X connect 18 2 13 0;
#X connect 19 0 22 1;
#X connect 19 0 29 1;
#X connect 19 0 21 1;
#X connect 19 0 28 1;
#X connect 20 0 5 0;
#X connect 20 1 4 0;
#X connect 20 2 6 0;
#X connect 21 0 14 0;
#X connect 22 0 16 0;
#X connect 23 0 1 0;
#X connect 24 0 23 0;
#X connect 25 0 24 0;
#X connect 26 0 28 0;
#X connect 27 0 26 0;
#X connect 28 0 25 0;
#X connect 29 0 27 0;
#X connect 30 0 29 0;
#X connect 31 0 30 0;
#X connect 32 0 22 0;
#X connect 33 0 32 0;
#X connect 35 0 13 1;
#X connect 36 0 13 2;
#X connect 37 0 12 1;
#X connect 38 0 12 2;
#X connect 39 0 18 1;
#X connect 40 0 19 0;
#X connect 41 0 17 0;
#X connect 42 0 34 0;
#X connect 43 0 42 0;
#X connect 43 1 42 1;
#X connect 44 0 48 0;
#X connect 45 0 46 0;
#X connect 47 0 45 0;
#X connect 47 0 53 0;
#X connect 48 0 43 0;
#X connect 49 0 51 0;
#X connect 51 0 52 0;
#X connect 53 0 49 0;
#X connect 54 0 13 1;
#X connect 55 0 13 2;
#X connect 56 0 12 1;
#X connect 57 0 12 2;
#X coords 0 -1 1 1 135 30 1 762 100;
