#N canvas 0 0 498 413 10;
#X obj 144 28 env~;
#X obj -3 -1 inlet~;
#X obj -3 88 delread~ \$0-input 0;
#X obj -3 48 delwrite~ \$0-input 1000;
#X floatatom 64 321 3 0 999 1 ms - -;
#X obj 144 47 moses;
#X floatatom 64 249 3 0 999 1 dB - -;
#X obj 171 66 expr pow(10 \, (((($f1-$f2)/$f3)+$f2- $f1)/20));
#X floatatom 64 267 3 0 60 1 :1 - -;
#X obj 171 86 min 1;
#X obj 171 106 pack f f;
#X obj 144 126 pack f f;
#X msg 144 106 1;
#X obj 144 146 line~;
#X obj -2 181 *~;
#X obj -2 201 outlet~;
#X text 0 249 Threshold;
#X floatatom 64 285 3 0 999 1 ms - -;
#X floatatom 64 303 3 0 999 1 ms - -;
#X text 0 266 Ratio;
#X text 0 284 Attack;
#X text 0 303 Release;
#X text 0 322 Look-ahead;
#X obj 64 108 init 100;
#X obj 64 148 init 20;
#X obj 64 128 init 1;
#X obj -3 135 mux~;
#X obj 1 235 tgl 15 0 empty empty Bypass 17 7 0 10 -262144 -1 -1 0
1;
#X obj 299 288 my.hero.mmb \$0;
#X msg 299 267 save;
#X obj 272 228 r savestate;
#X obj 299 330 s state;
#X obj 110 173 r load;
#X obj 272 247 t b b;
#X obj 110 228 save.me.mmb \$1-compress \$0;
#X obj 110 247 save.me.mmb \$1-thresh \$0;
#X obj 110 266 save.me.mmb \$1-ratio \$0;
#X obj 110 285 save.me.mmb \$1-attack \$0;
#X obj 110 304 save.me.mmb \$1-release \$0;
#X obj 110 324 save.me.mmb \$1-look \$0;
#X obj 110 192 route \$1-compress \$1-thresh \$1-ratio \$1-attack \$1-release
\$1-look;
#X msg 299 309;
#X connect 0 0 5 0;
#X connect 1 0 0 0;
#X connect 1 0 3 0;
#X connect 1 0 26 1;
#X connect 2 0 26 0;
#X connect 4 0 2 0;
#X connect 4 0 39 0;
#X connect 5 0 12 0;
#X connect 5 1 7 0;
#X connect 6 0 5 1;
#X connect 6 0 7 1;
#X connect 6 0 35 0;
#X connect 7 0 9 0;
#X connect 8 0 7 2;
#X connect 8 0 36 0;
#X connect 9 0 10 0;
#X connect 10 0 13 0;
#X connect 11 0 13 0;
#X connect 12 0 11 0;
#X connect 13 0 14 1;
#X connect 14 0 15 0;
#X connect 17 0 10 1;
#X connect 17 0 37 0;
#X connect 18 0 11 1;
#X connect 18 0 38 0;
#X connect 23 0 6 0;
#X connect 24 0 18 0;
#X connect 24 0 17 0;
#X connect 25 0 8 0;
#X connect 26 0 14 0;
#X connect 27 0 26 0;
#X connect 27 0 34 0;
#X connect 28 0 41 0;
#X connect 29 0 28 0;
#X connect 30 0 33 0;
#X connect 32 0 40 0;
#X connect 33 0 41 0;
#X connect 33 1 29 0;
#X connect 34 0 27 0;
#X connect 35 0 6 0;
#X connect 36 0 8 0;
#X connect 37 0 17 0;
#X connect 38 0 18 0;
#X connect 39 0 4 0;
#X connect 40 0 27 0;
#X connect 40 1 6 0;
#X connect 40 2 8 0;
#X connect 40 3 17 0;
#X connect 40 4 18 0;
#X connect 40 5 4 0;
#X connect 41 0 31 0;
#X coords 0 -1 1 1 100 118 1 0 220;
