#N canvas 0 0 450 361 10;
#X obj 116 200 delayer~ 1;
#X text 4 0 Mono delay;
#X obj 117 20 noise~;
#X obj 117 179 *~;
#X obj 132 159 line~;
#X obj 132 40 loadbang;
#X obj 132 61 tgl 15 0 empty empty empty 17 7 0 10 -262144 -1 -1 1
1;
#X obj 116 296 output~;
#X obj 140 100 delay 10;
#X obj 132 80 metro 1000;
#X msg 132 119 1 5;
#X msg 140 139 0 15;
#X text 25 215 True bypass-->;
#X text 197 200 <--Optional creation argument needed;
#X text 215 216 for state saving with;
#X obj 349 216 savestate;
#X obj 381 333 reference;
#X connect 0 0 7 0;
#X connect 0 0 7 1;
#X connect 2 0 3 0;
#X connect 3 0 0 0;
#X connect 4 0 3 1;
#X connect 5 0 6 0;
#X connect 6 0 9 0;
#X connect 8 0 11 0;
#X connect 9 0 10 0;
#X connect 9 0 8 0;
#X connect 10 0 4 0;
#X connect 11 0 4 0;
