#N canvas 196 129 556 272 10;
#X obj 18 125 *~ 1;
#X obj 4 145 +~;
#X obj 49 66 sig~;
#X obj 49 106 *~ 0.5;
#X obj 49 146 outlet~;
#X obj 4 104 inlet~;
#X obj 49 126 multiplex~;
#X obj 121 117 tgl 15 0 empty empty Bypass 17 7 0 10 -262144 -1 -1
0 1;
#X obj 183 151 knob 15 15 0 1 0 0 empty empty empty 0 -8 0 8 -262144
-1 -1 0 1;
#X text 120 151 Feedback;
#X floatatom 153 131 5 0 0 1 ms - -;
#X text 120 132 Time;
#X obj 183 171 knob 15 15 0 1 0 0 empty empty empty 0 -8 0 8 -262144
-1 -1 700 1;
#X text 120 171 Level;
#X obj 183 73 init 0.5;
#X obj 153 27 init 350;
#X obj 167 50 init 0;
#X obj 397 192 my.hero.mmb \$0;
#X msg 397 171 save;
#X obj 370 132 r savestate;
#X obj 397 234 s state;
#X obj 208 93 r load;
#X obj 370 151 t b b;
#X msg 397 213;
#X obj 208 132 save.me.mmb \$1-delayer \$0;
#X obj 208 151 save.me.mmb \$1-time \$0;
#X obj 208 170 save.me.mmb \$1-feedback \$0;
#X obj 208 189 save.me.mmb \$1-level \$0;
#X obj 208 113 route \$1-delayer \$1-time \$1-feedback \$1-level;
#X obj 4 167 delwrite~ \$0-d 300;
#X obj 49 86 vd~ \$0-d;
#X connect 0 0 1 1;
#X connect 1 0 29 0;
#X connect 2 0 30 0;
#X connect 3 0 6 0;
#X connect 5 0 1 0;
#X connect 5 0 6 0;
#X connect 5 0 6 1;
#X connect 6 0 4 0;
#X connect 7 0 6 0;
#X connect 7 0 24 0;
#X connect 8 0 0 1;
#X connect 8 0 26 0;
#X connect 10 0 2 0;
#X connect 10 0 25 0;
#X connect 12 0 3 1;
#X connect 12 0 27 0;
#X connect 14 0 12 0;
#X connect 15 0 10 0;
#X connect 16 0 8 0;
#X connect 17 0 23 0;
#X connect 18 0 17 0;
#X connect 19 0 22 0;
#X connect 21 0 28 0;
#X connect 22 0 23 0;
#X connect 22 1 18 0;
#X connect 23 0 20 0;
#X connect 24 0 7 0;
#X connect 25 0 10 0;
#X connect 26 0 8 0;
#X connect 27 0 12 0;
#X connect 28 0 7 0;
#X connect 28 1 10 0;
#X connect 28 2 8 0;
#X connect 28 3 12 0;
#X connect 30 0 0 0;
#X connect 30 0 3 0;
#X coords 0 -1 1 1 80 90 1 120 100;
