#N canvas 995 348 450 300 10;
#X text 11 10 Generalised Geometric ti = (d(1 - r^i))/(1 - r);
#X obj 15 121 expr ($f1*(1 - pow($f2 \, $f3)))/(1 - $f2);
#X obj 15 142 outlet;
#X obj 15 98 f \$1;
#X obj 133 98 f \$2;
#X obj 15 35 inlet;
#X obj 15 75 t b f;
#X obj 15 55 - 1;
#X msg 44 55 bang;
#X obj 87 36 inlet;
#X obj 154 36 inlet;
#X connect 1 0 2 0;
#X connect 3 0 1 0;
#X connect 4 0 1 1;
#X connect 5 0 7 0;
#X connect 5 0 8 0;
#X connect 6 0 4 0;
#X connect 6 0 3 0;
#X connect 6 1 1 2;
#X connect 7 0 6 0;
#X connect 8 0 2 0;
#X connect 9 0 3 1;
#X connect 10 0 4 1;
