#N canvas 0 0 473 319 10;
#X text 1 0 Generalised Geometric ti = (d(1 - r^i))/(1 - r);
#X text 111 196 |;
#X text 111 186 |;
#X text 111 176 |;
#X text 111 166 |;
#X text 111 178 |;
#X text 111 168 |;
#X text 111 158 |;
#X text 111 148 |;
#X text 112 144 ^;
#X floatatom 80 107 5 0 0 0 - - -;
#X floatatom 130 108 5 0 0 0 - - -;
#X text 101 208 Creation arguments are d0 and r where d0 = initial
duration in milliseconds and r = dn:dn-1 where dn is the nth duration.
;
#X obj 31 128 geometric 2000 30;
#X floatatom 31 151 5 0 0 0 - - -;
#X text 84 50 Generalised formula receives i and produces ti where
i is the beat number and ti is the time elapsed before i occurs. i
can be used to subdivide beats when not an integer.;
#X floatatom 31 61 5 0 0 0 - - -;
#X text 64 61 <--;
#X obj 31 171 t b f;
#X obj 31 192 delay;
#X obj 31 213 bng 15 250 50 0 empty empty empty 17 7 0 10 -262144 -1
-1;
#X obj 401 283 reference;
#X text 164 109 <--d0 and r can be updated.;
#X connect 10 0 13 1;
#X connect 11 0 13 2;
#X connect 13 0 14 0;
#X connect 14 0 18 0;
#X connect 16 0 13 0;
#X connect 18 0 19 0;
#X connect 18 1 19 1;
#X connect 19 0 20 0;
