#N canvas 487 175 450 300 10;
#X obj 234 131 counter;
#X obj 48 237 outlet;
#X obj 48 195 delay \$2;
#X obj 93 130 f \$1;
#X obj 163 130 f \$2;
#X obj 34 18 inlet;
#X obj 123 87 t b b;
#X msg 48 174 stop;
#X obj 99 174 f \$2;
#X obj 74 87 t b b b;
#X obj 93 153 expr $f1 * pow($f2 \, $f3);
#X text 40 -4 Geometric Acceleration dn = d0r^n;
#X obj 184 40 inlet;
#X obj 114 41 inlet;
#X obj 34 41 route stop;
#X obj 91 62 sel 0;
#X msg 55 216 bang;
#X connect 0 0 10 2;
#X connect 2 0 1 0;
#X connect 2 0 9 0;
#X connect 3 0 10 0;
#X connect 4 0 10 1;
#X connect 5 0 14 0;
#X connect 6 0 0 2;
#X connect 6 0 8 0;
#X connect 6 1 7 0;
#X connect 7 0 2 0;
#X connect 8 0 2 1;
#X connect 9 0 2 0;
#X connect 9 1 3 0;
#X connect 9 2 0 0;
#X connect 9 2 4 0;
#X connect 10 0 2 1;
#X connect 12 0 4 1;
#X connect 13 0 3 1;
#X connect 14 0 6 0;
#X connect 14 1 15 0;
#X connect 15 0 6 0;
#X connect 15 1 9 0;
#X connect 15 1 16 0;
#X connect 16 0 1 0;
