#N canvas 65 47 606 400 10;
#X floatatom -495 175 10 0 0 0 - - -;
#X obj -456 319 t b f;
#X obj -495 214 moses 0;
#X floatatom -355 196 10 0 0 0 - - -;
#X obj -396 318 t b f;
#X obj -355 215 moses 0;
#X msg -396 339 -1;
#X obj -355 175 generalised 500 1.05;
#X obj -456 360 tabwrite Beats1;
#X obj -456 236 moses 1000;
#X obj -316 236 moses 1000;
#X obj -399 256 moses 2000;
#X obj -259 256 moses 2000;
#X obj -359 318 t b f;
#X msg -359 339 1;
#X obj -299 318 t b f;
#X msg -299 339 -1;
#X obj -262 317 t b f;
#X msg -262 339 1;
#X obj -202 318 t b f;
#X msg -202 339 -1;
#X obj -359 360 tabwrite Beats2;
#X obj -262 360 tabwrite Beats3;
#X obj -202 236 * 2;
#X obj -342 236 * 2;
#X obj -221 92 * 100;
#X obj -202 298 -;
#X obj -262 298 -;
#X obj -299 298 -;
#X obj -359 298 -;
#X msg -456 339 1;
#X obj -355 154 Uzi 100;
#X obj -495 128 Uzi 100;
#X obj -240 72 t b f b;
#X obj -240 53 f;
#X obj -202 276 moses 3000;
#X obj -342 276 moses 3000;
#X obj -145 256 * 3;
#X obj -285 256 * 3;
#X obj -165 317 t b f;
#X msg -165 339 1;
#X obj -105 318 t b f;
#X msg -105 339 -1;
#X obj -105 298 -;
#X obj -165 298 -;
#X obj -165 360 tabwrite Beats4;
#X msg -221 164 \; Beats1 resize \$1 \; Beats2 resize \$1 \; Beats3
resize \$1 \; Beats4 resize \$1;
#X msg -184 93 \; Beats1 const 0 \; Beats2 const 0 \; Beats3 const
0 \; Beats4 const 0;
#X obj -495 154 generalised 3000 0.95;
#N canvas 605 315 745 247 labels 0;
#X obj 19 18 / 1000;
#X obj 19 116 mod 60;
#X obj 62 95 / 60;
#X obj 19 136 moses 10;
#X obj 19 156 pack;
#X msg 19 176 \; display1 label 00:0\$2:0\$1;
#X obj 62 116 int;
#X obj 64 156 pack;
#X msg 64 210 \; display1 label 00:0\$2:\$1;
#X obj 19 95 int;
#X obj 19 -4 inlet;
#X obj 189 52 * 2;
#X obj 359 52 * 3;
#X obj 529 53 * 4;
#X obj 189 116 mod 60;
#X obj 232 95 / 60;
#X obj 189 136 moses 10;
#X obj 189 156 pack;
#X obj 232 116 int;
#X obj 234 156 pack;
#X obj 189 95 int;
#X obj 359 116 mod 60;
#X obj 402 95 / 60;
#X obj 359 136 moses 10;
#X obj 359 156 pack;
#X obj 402 116 int;
#X obj 404 156 pack;
#X obj 359 95 int;
#X obj 529 116 mod 60;
#X obj 572 95 / 60;
#X obj 529 136 moses 10;
#X obj 529 156 pack;
#X obj 572 116 int;
#X obj 574 156 pack;
#X obj 529 95 int;
#X msg 529 176 \; display4 label 00:0\$2:0\$1;
#X msg 574 210 \; display4 label 00:0\$2:\$1;
#X msg 359 176 \; display3 label 00:0\$2:0\$1;
#X msg 404 210 \; display3 label 00:0\$2:\$1;
#X msg 189 176 \; display2 label 00:0\$2:0\$1;
#X msg 234 210 \; display2 label 00:0\$2:\$1;
#X obj 19 74 t f f;
#X obj 189 74 t f f;
#X obj 359 74 t f f;
#X obj 529 74 t f f;
#X connect 0 0 11 0;
#X connect 0 0 12 0;
#X connect 0 0 13 0;
#X connect 0 0 41 0;
#X connect 1 0 3 0;
#X connect 2 0 6 0;
#X connect 3 0 4 0;
#X connect 3 1 7 0;
#X connect 4 0 5 0;
#X connect 6 0 4 1;
#X connect 6 0 7 1;
#X connect 7 0 8 0;
#X connect 9 0 1 0;
#X connect 10 0 0 0;
#X connect 11 0 42 0;
#X connect 12 0 43 0;
#X connect 13 0 44 0;
#X connect 14 0 16 0;
#X connect 15 0 18 0;
#X connect 16 0 17 0;
#X connect 16 1 19 0;
#X connect 17 0 39 0;
#X connect 18 0 17 1;
#X connect 18 0 19 1;
#X connect 19 0 40 0;
#X connect 20 0 14 0;
#X connect 21 0 23 0;
#X connect 22 0 25 0;
#X connect 23 0 24 0;
#X connect 23 1 26 0;
#X connect 24 0 37 0;
#X connect 25 0 24 1;
#X connect 25 0 26 1;
#X connect 26 0 38 0;
#X connect 27 0 21 0;
#X connect 28 0 30 0;
#X connect 29 0 32 0;
#X connect 30 0 31 0;
#X connect 30 1 33 0;
#X connect 31 0 35 0;
#X connect 32 0 31 1;
#X connect 32 0 33 1;
#X connect 33 0 36 0;
#X connect 34 0 28 0;
#X connect 41 0 9 0;
#X connect 41 1 2 0;
#X connect 42 0 20 0;
#X connect 42 1 15 0;
#X connect 43 0 27 0;
#X connect 43 1 22 0;
#X connect 44 0 34 0;
#X connect 44 1 29 0;
#X restore -221 381 pd labels;
#X obj -240 33 del 10;
#X obj -434 129 init \$1;
#X obj -372 129 init \$2;
#X obj -235 130 init \$4;
#X obj -297 129 init \$3;
#X obj -240 12 inlet;
#X obj -200 12 inlet;
#X connect 0 0 2 0;
#X connect 1 0 30 0;
#X connect 1 1 8 1;
#X connect 2 1 9 0;
#X connect 3 0 5 0;
#X connect 4 0 6 0;
#X connect 4 1 8 1;
#X connect 5 1 10 0;
#X connect 6 0 8 0;
#X connect 7 0 3 0;
#X connect 9 0 1 0;
#X connect 9 1 11 0;
#X connect 10 0 4 0;
#X connect 10 1 12 0;
#X connect 11 0 29 0;
#X connect 11 1 36 0;
#X connect 12 0 28 0;
#X connect 12 1 35 0;
#X connect 13 0 14 0;
#X connect 13 1 21 1;
#X connect 14 0 21 0;
#X connect 15 0 16 0;
#X connect 15 1 21 1;
#X connect 16 0 21 0;
#X connect 17 0 18 0;
#X connect 17 1 22 1;
#X connect 18 0 22 0;
#X connect 19 0 20 0;
#X connect 19 1 22 1;
#X connect 20 0 22 0;
#X connect 23 0 12 1;
#X connect 23 0 27 1;
#X connect 23 0 26 1;
#X connect 24 0 11 1;
#X connect 25 0 46 0;
#X connect 25 0 9 1;
#X connect 25 0 24 0;
#X connect 25 0 10 1;
#X connect 25 0 23 0;
#X connect 25 0 28 1;
#X connect 25 0 29 1;
#X connect 25 0 38 0;
#X connect 25 0 37 0;
#X connect 25 0 49 0;
#X connect 26 0 19 0;
#X connect 27 0 17 0;
#X connect 28 0 15 0;
#X connect 29 0 13 0;
#X connect 30 0 8 0;
#X connect 31 2 7 0;
#X connect 32 2 48 0;
#X connect 33 0 31 0;
#X connect 33 0 32 0;
#X connect 33 1 25 0;
#X connect 33 2 47 0;
#X connect 34 0 33 0;
#X connect 35 0 26 0;
#X connect 35 1 43 0;
#X connect 36 0 27 0;
#X connect 36 1 44 0;
#X connect 37 0 35 1;
#X connect 37 0 43 1;
#X connect 37 0 44 1;
#X connect 38 0 36 1;
#X connect 39 0 40 0;
#X connect 39 1 45 1;
#X connect 40 0 45 0;
#X connect 41 0 42 0;
#X connect 41 1 45 1;
#X connect 42 0 45 0;
#X connect 43 0 41 0;
#X connect 44 0 39 0;
#X connect 48 0 0 0;
#X connect 50 0 34 0;
#X connect 51 0 48 1;
#X connect 52 0 48 2;
#X connect 53 0 7 2;
#X connect 54 0 7 1;
#X connect 55 0 50 0;
#X connect 55 0 34 1;
#X connect 56 0 32 1;
#X connect 56 0 31 1;
