#N canvas 107 249 450 300 10;
#X obj 102 158 ioi;
#X text 7 2 Measures the inter-onset interval between the current bang
and the previous one in milliseconds.;
#X msg 102 50 bang;
#X floatatom 102 181 5 0 0 0 - - -;
#X obj 127 112 tgl 15 0 empty empty empty 17 7 0 10 -262144 -1 -1 0
1;
#X obj 127 132 geometric 500 1.05;
#X obj 118 90 metro 500;
#X obj 118 71 tgl 15 0 empty empty empty 17 7 0 10 -262144 -1 -1 0
1;
#X text 145 182 <--How long was that?;
#X text 144 50 <--Try me;
#X obj 381 273 reference;
#X connect 0 0 3 0;
#X connect 2 0 0 0;
#X connect 4 0 5 0;
#X connect 5 0 0 0;
#X connect 6 0 0 0;
#X connect 7 0 6 0;
