#N canvas 757 125 450 300 10;
#X obj 17 22 counter;
#X obj 17 44 mod 2;
#X obj 17 66 select 0 1;
#X obj 17 88 timer;
#X obj 57 88 timer;
#X obj 17 1 inlet;
#X obj 17 109 outlet;
#X connect 0 0 1 0;
#X connect 1 0 2 0;
#X connect 2 0 3 0;
#X connect 2 0 4 1;
#X connect 2 1 3 1;
#X connect 2 1 4 0;
#X connect 3 0 6 0;
#X connect 4 0 6 0;
#X connect 5 0 0 0;
