#N canvas 302 251 601 346 10;
#X obj 3 65 list prepend add2;
#X obj 3 85 list trim;
#X msg 3 105 list 60 62 65 64 67 60 65 69 65 60 64 67 64 60 64 67 60
62 64 60 62 64;
#X obj 113 65 list prepend add2;
#X obj 113 85 list trim;
#X msg 186 109 list 127 127 127 127 127 127 127 127 127 127 127 127
127 127 127 127 127 127 127 127 127 127;
#X msg 64 44 set list;
#X obj 3 291 zl nth;
#X obj 47 291 zl nth;
#X obj 10 251 counter;
#X obj 3 44 stripnote;
#X obj 10 271 t b f b;
#X obj 3 -16 inlet;
#X obj 54 24 inlet;
#X obj 91 24 inlet;
#X obj 3 4 route rewind clear;
#X obj 3 311 outlet;
#X obj 47 311 outlet;
#X obj 520 92 my.hero.mmb \$0;
#X msg 520 71 save;
#X obj 493 32 r savestate;
#X obj 520 134 s state;
#X obj 318 -7 r load;
#X msg 520 113 1-velocity 127 127 127 127 127 127 127 127 127 127 127
127 127 127 127 127 127 127 127 127 127 127 \,;
#X obj 135 38 t a b;
#X obj 318 51 save.me.mmb \$1-velocity \$0 2;
#X obj 318 32 save.me.mmb \$1-pitch \$0 1;
#X obj 318 13 route \$1-pitch \$1-velocity;
#X obj 493 51 t b b b;
#X connect 0 0 1 0;
#X connect 1 0 2 0;
#X connect 2 0 7 0;
#X connect 2 0 26 0;
#X connect 3 0 4 0;
#X connect 4 0 5 0;
#X connect 5 0 8 0;
#X connect 5 0 25 0;
#X connect 6 0 2 0;
#X connect 6 0 5 0;
#X connect 7 0 16 0;
#X connect 8 0 17 0;
#X connect 9 0 11 0;
#X connect 10 0 0 0;
#X connect 10 1 3 0;
#X connect 11 0 8 0;
#X connect 11 0 7 0;
#X connect 11 1 7 1;
#X connect 11 1 8 1;
#X connect 11 2 5 0;
#X connect 11 2 2 0;
#X connect 12 0 15 0;
#X connect 13 0 10 1;
#X connect 14 0 9 0;
#X connect 15 0 9 3;
#X connect 15 1 6 0;
#X connect 15 2 10 0;
#X connect 18 0 23 0;
#X connect 19 0 18 0;
#X connect 20 0 28 0;
#X connect 22 0 27 0;
#X connect 23 0 21 0;
#X connect 24 0 0 0;
#X connect 24 1 6 0;
#X connect 25 0 3 0;
#X connect 26 0 24 0;
#X connect 27 0 24 0;
#X connect 27 1 3 0;
#X connect 28 0 23 0;
#X connect 28 1 19 0;
#X connect 28 2 5 0;
#X connect 28 2 2 0;
