#N canvas 459 118 274 245 10;
#X obj 4 16 hsl 75 15 0 1 0 1 empty empty empty -2 -8 0 10 -262144
-1 -1 7400 1;
#X obj -45 72 inlet~;
#X msg 0 33 \$1 10;
#X obj 0 52 line~;
#X obj 2 73 *~ 0.25;
#X obj 0 93 -~ 0.25;
#X obj -31 113 cos~;
#X obj 0 113 cos~;
#X obj -46 133 *~;
#X obj -15 133 *~;
#X obj -46 154 outlet~;
#X obj -15 174 outlet~;
#X msg 77 175 1-panner 0.864865 \,;
#X obj 77 154 my.hero.mmb \$0;
#X msg 77 133 save;
#X obj 50 94 r savestate;
#X obj 77 196 s state;
#X obj 50 53 r load;
#X obj 50 113 t b b;
#X obj 50 72 route \$1-panner;
#X obj 50 33 save.me.mmb \$1-panner \$0;
#X obj 88 10 inlet;
#X connect 0 0 2 0;
#X connect 0 0 20 0;
#X connect 1 0 8 0;
#X connect 1 0 9 0;
#X connect 2 0 3 0;
#X connect 3 0 4 0;
#X connect 4 0 5 0;
#X connect 4 0 6 0;
#X connect 5 0 7 0;
#X connect 6 0 8 1;
#X connect 7 0 9 1;
#X connect 8 0 10 0;
#X connect 9 0 11 0;
#X connect 12 0 16 0;
#X connect 13 0 12 0;
#X connect 14 0 13 0;
#X connect 15 0 18 0;
#X connect 17 0 19 0;
#X connect 18 0 12 0;
#X connect 18 1 14 0;
#X connect 19 0 0 0;
#X connect 20 0 0 0;
#X connect 21 0 0 0;
#X coords 0 -1 1 1 80 30 1 0 0;
