#N canvas 268 7 929 705 10;
#N canvas 359 1 252 342 fft-filter 0;
#N canvas 0 0 450 300 (subpatch) 0;
#X array \$0-hanning 1024 float 0;
#X coords 0 1 1023 0 200 120 1;
#X restore 7 199 graph;
#X msg 110 46 0;
#X obj 4 95 osc~;
#X obj 4 47 samplerate~;
#X obj 4 118 *~ -0.5;
#X obj 4 141 +~ 0.5;
#X text -7 191 1;
#X text -6 309 0;
#X text 2 322 0;
#X obj -4 24 bng 15 250 50 0 empty empty empty 0 -6 0 8 -262144 -1
-1;
#X text 188 325 511;
#X obj -4 1 loadbang;
#X obj -4 166 tabwrite~ \$0-hanning;
#N canvas 618 26 254 317 filter 0;
#X obj 26 89 *~;
#X obj 26 41 inlet~;
#X obj 26 163 rfft~;
#X obj 26 188 *~;
#X obj 59 188 *~;
#X obj 78 116 *~;
#X obj 28 260 *~;
#X obj 78 164 /~ 768;
#X obj 78 141 *~;
#X obj 27 214 rifft~;
#X obj 28 284 outlet~;
#X obj 45 237 tabreceive~ \$0-hanning;
#X obj 77 91 tabreceive~ \$0-eq;
#X obj 44 65 tabreceive~ \$0-hanning;
#X obj 26 18 block~ 1024 4;
#X obj 129 120 print~;
#X obj 194 95 bng 15 250 50 0 empty empty empty 17 7 0 10 -262144 -1
-1;
#X connect 0 0 2 0;
#X connect 1 0 0 0;
#X connect 2 0 3 0;
#X connect 2 1 4 0;
#X connect 3 0 9 0;
#X connect 4 0 9 1;
#X connect 5 0 8 0;
#X connect 5 0 8 1;
#X connect 6 0 10 0;
#X connect 7 0 3 1;
#X connect 7 0 4 1;
#X connect 8 0 7 0;
#X connect 9 0 6 0;
#X connect 11 0 6 1;
#X connect 12 0 5 0;
#X connect 12 0 5 1;
#X connect 12 0 15 0;
#X connect 13 0 0 1;
#X connect 16 0 15 0;
#X restore 138 146 pd filter;
#X obj 138 126 inlet~;
#X obj 138 167 outlet~;
#X obj 4 71 / 1024;
#X connect 1 0 2 1;
#X connect 2 0 4 0;
#X connect 3 0 16 0;
#X connect 4 0 5 0;
#X connect 5 0 12 0;
#X connect 9 0 3 0;
#X connect 9 0 1 0;
#X connect 9 0 12 0;
#X connect 11 0 9 0;
#X connect 13 0 15 0;
#X connect 14 0 13 0;
#X connect 16 0 2 0;
#X restore 0 201 pd fft-filter;
#X obj 0 272 init \$0;
#X obj 0 180 inlet~;
#X obj 0 242 outlet~;
#X msg 0 293 \; \$1-eq const 1 \; \$1-eq xticks 256 16 2 \; \$1-eq
yticks 1 0.5 2;
#X obj 1 16 cnv 15 298 161 empty empty empty 20 12 0 14 -204800 -66577
0;
#N canvas 0 0 450 300 (subpatch) 0;
#X array \$0-eq 256 float 1;
#A 0 1 1 1 1 1 1 1 1 1 1 1 1 1 1 1 1 1 1 1 1 1 1 1 1 1 1 1 1 1 1 1
1 1 1 1 1 1 1 1 1 1 1 1 1 1 1 1 1 1 1 1 1 1 1 1 1 1 1 1 1 1 1 1 1 1
1 1 1 1 1 1 1 1 1 1 1 1 1 1 1 1 1 1 1 1 1 1 1 1 1 1 1 1 1 1 1 1 1 1
1 1 1 1 1 1 1 1 1 1 1 1 1 1 1 1 1 1 1 1 1 1 1 1 1 1 1 1 1 1 1 1 1 1
1 1 1 1 1 1 1 1 1 1 1 1 1 1 1 1 1 1 1 1 1 1 1 1 1 1 1 1 1 1 1 1 1 1
1 1 1 1 1 1 1 1 1 1 1 1 1 1 1 1 1 1 1 1 1 1 1 1 1 1 1 1 1 1 1 1 1 1
1 1 1 1 1 1 1 1 1 1 1 1 1 1 1 1 1 1 1 1 1 1 1 1 1 1 1 1 1 1 1 1 1 1
1 1 1 1 1 1 1 1 1 1 1 1 1 1 1 1 1 1 1 1 1;
#X coords 0 2 255 -0.01 283 100 1;
#X restore 16 29 graph;
#X obj 1 29 vsl 15 100 -1 1 0 0 empty empty empty 0 -9 0 10 -204800
-4160 -1 4950 1;
#X obj 1 133 bng 15 250 50 0 empty empty empty 17 7 0 10 -204800 -4160
-1;
#X obj 20 130 hsl 51 15 0 2 0 0 empty empty Gain 0 8 0 10 -204800 -4160
-1 2500 1;
#X obj 20 146 hsl 51 15 -1 254 0 0 empty empty Slope 0 8 0 10 -204800
-4160 -1 804 1;
#X obj 77 146 hsl 51 15 1 100 0 0 empty empty Q 0 8 0 10 -204800 -4160
-1 1970 1;
#X obj 77 130 hsl 51 15 0 2 0 0 empty empty Gain 0 8 0 10 -204800 -4160
-1 2500 1;
#X obj 77 162 hsl 51 15 -1 254 0 0 empty \$0-bp1pos 3.943kHz 0 8 0
10 -204800 -4160 -1 1784 1;
#X obj 134 146 hsl 51 15 1 100 0 0 empty empty Q 0 8 0 10 -204800 -4160
-1 1970 1;
#X obj 134 130 hsl 51 15 0 2 0 0 empty empty Gain 0 8 0 10 -204800
-4160 -1 2500 1;
#X obj 134 162 hsl 51 15 -1 254 0 0 empty \$0-bp2pos 6.111kHz 0 8 0
10 -204800 -4160 -1 2765 1;
#X obj 191 146 hsl 51 15 1 100 0 0 empty empty Q 0 8 0 10 -204800 -4160
-1 1970 1;
#X obj 191 130 hsl 51 15 0 2 0 0 empty empty Gain 0 8 0 10 -204800
-4160 -1 2500 1;
#X obj 191 162 hsl 51 15 -1 254 0 0 empty \$0-bp3pos 9.143kHz 0 8 0
10 -204800 -4160 -1 4137 1;
#X obj 248 146 hsl 49 15 1 100 0 0 empty empty Slope 0 8 0 10 -204800
-4160 -1 1891 1;
#X obj 248 130 hsl 49 15 0 2 0 0 empty empty Gain 0 8 0 10 -204800
-4160 -1 2400 1;
#X obj 248 162 hsl 49 15 -1 254 0 0 empty \$0-hspos 11.05kHz 0 8 0
10 -204800 -4160 -1 4800 1;
#X obj 20 162 hsl 51 15 -1 254 0 0 empty \$0-lspos 0.044kHz 0 8 0 10
-204800 -4160 -1 20 1;
#X obj 74 1 cnv 15 225 15 empty empty empty 20 12 0 14 -204800 -66577
0;
#X obj 147 1 bng 27 250 50 0 empty empty empty 3 13 0 7 -204800 -4160
-1;
#X obj 175 2 popup 124 25 #048598 popup default.parametric~;
#N canvas 8 1 1263 590 interpolater 1;
#X obj -15 130 init -1;
#N canvas 151 29 450 650 guts 0;
#X obj -28 210 -;
#X obj -28 253 abs;
#X obj -28 273 t b f;
#X obj -28 296 Uzi 11;
#X obj 5 338 t b f;
#X obj 5 359 f;
#X obj -1 252 > 0;
#X obj 9 273 sel 0;
#X msg 17 296 -1;
#X obj 32 379 sin;
#X obj 32 400 expr ($f1+1)/2;
#X obj 32 421 *;
#X obj 32 441 *;
#X obj 5 466 +;
#X obj 5 487 t f b;
#X obj 32 508 f;
#X obj 32 529 + 1;
#X obj 32 358 expr (($f1-1)*$f2)-1.57;
#X obj 167 316 pi;
#X obj 167 336 / 10;
#X obj 46 273 + 1;
#X obj 167 294 t b f;
#X obj 51 467 bang;
#X obj 51 488 f;
#X obj -28 69 inlet;
#X obj -28 166 f;
#X obj -12 110 inlet;
#X text 22 109 Width;
#X obj 83 468 inlet;
#X text 119 469 Start point;
#X obj -21 90 inlet;
#X text 8 69 First value;
#X text 17 88 Second value;
#X obj -12 138 t b f;
#X obj -28 187 t b f b;
#X obj 86 488 bang;
#X obj 5 549 outlet;
#X obj 32 569 outlet;
#X obj -12 317 s \$0-refresh;
#X obj -28 232 t f f;
#X connect 0 0 39 0;
#X connect 1 0 2 0;
#X connect 2 0 3 0;
#X connect 2 1 11 1;
#X connect 3 1 38 0;
#X connect 3 2 4 0;
#X connect 4 0 5 0;
#X connect 4 1 17 0;
#X connect 5 0 13 0;
#X connect 6 0 7 0;
#X connect 7 0 8 0;
#X connect 7 1 12 1;
#X connect 8 0 12 1;
#X connect 9 0 10 0;
#X connect 10 0 11 0;
#X connect 11 0 12 0;
#X connect 12 0 13 1;
#X connect 13 0 14 0;
#X connect 14 0 36 0;
#X connect 14 1 15 0;
#X connect 15 0 16 0;
#X connect 16 0 15 1;
#X connect 16 0 37 0;
#X connect 17 0 9 0;
#X connect 18 0 19 0;
#X connect 19 0 17 1;
#X connect 20 0 3 1;
#X connect 21 0 18 0;
#X connect 21 1 19 1;
#X connect 22 0 23 0;
#X connect 23 0 15 1;
#X connect 24 0 25 0;
#X connect 25 0 5 1;
#X connect 25 0 34 0;
#X connect 26 0 33 0;
#X connect 28 0 23 1;
#X connect 28 0 22 0;
#X connect 28 0 35 0;
#X connect 30 0 22 0;
#X connect 30 0 0 0;
#X connect 33 0 25 0;
#X connect 33 1 21 0;
#X connect 33 1 20 0;
#X connect 34 0 0 0;
#X connect 34 1 0 1;
#X connect 34 2 22 0;
#X connect 35 0 25 0;
#X connect 39 0 1 0;
#X connect 39 1 6 0;
#X restore -54 150 pd guts;
#X obj 155 131 -;
#X obj 162 110 t b f;
#X obj 165 17 t b b;
#X obj 192 37 f \$0;
#N canvas 151 29 450 610 guts 0;
#X obj -28 210 -;
#X obj -28 253 abs;
#X obj -28 273 t b f;
#X obj -28 296 Uzi 11;
#X obj 5 338 t b f;
#X obj 5 359 f;
#X obj -1 252 > 0;
#X obj 9 273 sel 0;
#X msg 17 296 -1;
#X obj 32 379 sin;
#X obj 32 400 expr ($f1+1)/2;
#X obj 32 421 *;
#X obj 32 441 *;
#X obj 5 466 +;
#X obj 5 487 t f b;
#X obj 32 508 f;
#X obj 32 529 + 1;
#X obj 32 358 expr (($f1-1)*$f2)-1.57;
#X obj 167 316 pi;
#X obj 167 336 / 10;
#X obj 48 273 + 1;
#X obj 167 294 t b f;
#X obj 51 467 bang;
#X obj 51 488 f;
#X obj -28 69 inlet;
#X obj -28 166 f;
#X obj -12 110 inlet;
#X text 22 109 Width;
#X obj 83 468 inlet;
#X text 119 469 Start point;
#X obj -21 90 inlet;
#X text 8 69 First value;
#X text 17 88 Second value;
#X obj -12 138 t b f;
#X obj -28 187 t b f b;
#X obj 86 488 bang;
#X obj 5 549 outlet;
#X obj 32 569 outlet;
#X obj -12 317 s \$0-refresh;
#X obj -28 232 t f f;
#X connect 0 0 39 0;
#X connect 1 0 2 0;
#X connect 2 0 3 0;
#X connect 2 1 11 1;
#X connect 3 1 38 0;
#X connect 3 2 4 0;
#X connect 4 0 5 0;
#X connect 4 1 17 0;
#X connect 5 0 13 0;
#X connect 6 0 7 0;
#X connect 7 0 8 0;
#X connect 7 1 12 1;
#X connect 8 0 12 1;
#X connect 9 0 10 0;
#X connect 10 0 11 0;
#X connect 11 0 12 0;
#X connect 12 0 13 1;
#X connect 13 0 14 0;
#X connect 14 0 36 0;
#X connect 14 1 15 0;
#X connect 15 0 16 0;
#X connect 16 0 15 1;
#X connect 16 0 37 0;
#X connect 17 0 9 0;
#X connect 18 0 19 0;
#X connect 19 0 17 1;
#X connect 20 0 3 1;
#X connect 21 0 18 0;
#X connect 21 1 19 1;
#X connect 22 0 23 0;
#X connect 23 0 15 1;
#X connect 24 0 25 0;
#X connect 25 0 5 1;
#X connect 25 0 34 0;
#X connect 26 0 33 0;
#X connect 28 0 23 1;
#X connect 28 0 22 0;
#X connect 28 0 35 0;
#X connect 30 0 22 0;
#X connect 30 0 0 0;
#X connect 33 0 25 0;
#X connect 33 1 21 0;
#X connect 33 1 20 0;
#X connect 34 0 0 0;
#X connect 34 1 0 1;
#X connect 34 2 22 0;
#X connect 35 0 25 0;
#X connect 39 0 1 0;
#X connect 39 1 6 0;
#X restore 116 150 pd guts;
#N canvas 151 29 450 650 guts 0;
#X obj -28 210 -;
#X obj -28 253 abs;
#X obj -28 273 t b f;
#X obj -28 296 Uzi 11;
#X obj 5 338 t b f;
#X obj 5 359 f;
#X obj -1 252 > 0;
#X obj 9 273 sel 0;
#X msg 17 296 -1;
#X obj 32 379 sin;
#X obj 32 400 expr ($f1+1)/2;
#X obj 32 421 *;
#X obj 32 441 *;
#X obj 5 466 +;
#X obj 5 487 t f b;
#X obj 32 508 f;
#X obj 32 529 + 1;
#X obj 32 358 expr (($f1-1)*$f2)-1.57;
#X obj 167 316 pi;
#X obj 167 336 / 10;
#X obj 47 273 + 1;
#X obj 167 294 t b f;
#X obj 51 467 bang;
#X obj 51 488 f;
#X obj -28 69 inlet;
#X obj -28 166 f;
#X obj -12 110 inlet;
#X text 22 109 Width;
#X obj 83 468 inlet;
#X text 119 469 Start point;
#X obj -21 90 inlet;
#X text 8 69 First value;
#X text 17 88 Second value;
#X obj -12 138 t b f;
#X obj -28 187 t b f b;
#X obj 86 488 bang;
#X obj 5 549 outlet;
#X obj 32 569 outlet;
#X obj -12 317 s \$0-refresh;
#X obj -28 232 t f f;
#X connect 0 0 39 0;
#X connect 1 0 2 0;
#X connect 2 0 3 0;
#X connect 2 1 11 1;
#X connect 3 1 38 0;
#X connect 3 2 4 0;
#X connect 4 0 5 0;
#X connect 4 1 17 0;
#X connect 5 0 13 0;
#X connect 6 0 7 0;
#X connect 7 0 8 0;
#X connect 7 1 12 1;
#X connect 8 0 12 1;
#X connect 9 0 10 0;
#X connect 10 0 11 0;
#X connect 11 0 12 0;
#X connect 12 0 13 1;
#X connect 13 0 14 0;
#X connect 14 0 36 0;
#X connect 14 1 15 0;
#X connect 15 0 16 0;
#X connect 16 0 15 1;
#X connect 16 0 37 0;
#X connect 17 0 9 0;
#X connect 18 0 19 0;
#X connect 19 0 17 1;
#X connect 20 0 3 1;
#X connect 21 0 18 0;
#X connect 21 1 19 1;
#X connect 22 0 23 0;
#X connect 23 0 15 1;
#X connect 24 0 25 0;
#X connect 25 0 5 1;
#X connect 25 0 34 0;
#X connect 26 0 33 0;
#X connect 28 0 23 1;
#X connect 28 0 22 0;
#X connect 28 0 35 0;
#X connect 30 0 22 0;
#X connect 30 0 0 0;
#X connect 33 0 25 0;
#X connect 33 1 21 0;
#X connect 33 1 20 0;
#X connect 34 0 0 0;
#X connect 34 1 0 1;
#X connect 34 2 22 0;
#X connect 35 0 25 0;
#X connect 39 0 1 0;
#X connect 39 1 6 0;
#X restore 216 150 pd guts;
#N canvas 89 573 115 102 low 1;
#N canvas 0 0 450 300 (subpatch) 0;
#X array \$0-low 256 float 1;
#A 0 1 1 1 1 1 1 1 1 1 1 1 1 1 1 1 1 1 1 1 1 1 1 1 1 1 1 1 1 1 1 1
1 1 1 1 1 1 1 1 1 1 1 1 1 1 1 1 1 1 1 1 1 1 1 1 1 1 1 1 1 1 1 1 1 1
1 1 1 1 1 1 1 1 1 1 1 1 1 1 1 1 1 1 1 1 1 1 1 1 1 1 1 1 1 1 1 1 1 1
1 1 1 1 1 1 1 1 1 1 1 1 1 1 1 1 1 1 1 1 1 1 1 1 1 1 1 1 1 1 1 1 1 1
1 1 1 1 1 1 1 1 1 1 1 1 1 1 1 1 1 1 1 1 1 1 1 1 1 1 1 1 1 1 1 1 1 1
1 1 1 1 1 1 1 1 1 1 1 1 1 1 1 1 1 1 1 1 1 1 1 1 1 1 1 1 1 1 1 1 1 1
1 1 1 1 1 1 1 1 1 1 1 1 1 1 1 1 1 1 1 1 1 1 1 1 1 1 1 1 1 1 1 1 1 1
1 1 1 1 1 1 1 1 1 1 1 1 1 1 1 1 1 1 1 1 1;
#X coords 0 2 255 0 50 50 1;
#X restore 5 22 graph;
#X restore -279 48 pd low;
#X obj -54 171 tabwrite \$0-low;
#X obj -280 192 init \$0;
#N canvas 40 303 115 118 bp1 0;
#N canvas 0 0 450 300 (subpatch) 0;
#X array \$0-bp1 256 float 0;
#X coords 0 2 255 0 50 50 1;
#X restore 8 -1 graph;
#X restore -279 68 pd bp1;
#X obj 216 171 tabwrite \$0-bp1;
#X obj 116 171 tabwrite \$0-bp1;
#X obj -280 168 block~ 256;
#X obj -171 -15 tabread \$0-low;
#X obj -156 5 tabread \$0-bp1;
#X obj -171 29 *;
#X obj -171 149 tabwrite \$0-eq;
#X obj -210 -41 Uzi 256;
#X obj -210 -80 r \$0-refresh;
#X obj -15 36 t b b;
#X obj 12 56 f \$0;
#X msg 192 57 \; \$1-bp1 const 1;
#X msg 12 76 \; \$1-low const 1;
#N canvas 40 303 115 118 gain 0;
#N canvas 0 0 450 300 (subpatch) 0;
#X array \$0-gain 256 float 0;
#X coords 0 1 255 -1 50 50 1;
#X restore 8 -1 graph;
#X restore -279 148 pd gain;
#X obj -171 109 +;
#X obj -146 87 tabread \$0-gain;
#X obj -279 -102 inlet;
#X obj 216 191 + 1;
#X obj 216 231 + 0.5;
#X obj 216 251 int;
#X obj 216 271 / 1000;
#X obj 216 211 * 43.3334;
#X obj -54 -44 inlet;
#X obj -28 -4 inlet;
#X obj -15 111 outlet;
#X obj -41 -24 init 1;
#X obj 129 -50 inlet;
#X obj 165 90 outlet;
#X obj 142 -30 inlet;
#X obj 155 -10 inlet;
#X obj 116 14 init 1;
#X msg 216 311 \; \$2-bp1pos label \$1kHz;
#X obj 216 291 pack f \$0;
#X msg -279 -21 \; \$2-gain const \$1;
#X obj -279 -41 pack 0 \$0;
#X msg -210 -61 bang;
#N canvas 40 303 115 118 bp2 0;
#N canvas 0 0 450 300 (subpatch) 0;
#X array \$0-bp2 256 float 0;
#X coords 0 2 255 0 50 50 1;
#X restore 8 -1 graph;
#X restore -279 88 pd bp2;
#X obj 355 131 -;
#X obj 362 110 t b f;
#X obj 365 17 t b b;
#X obj 392 37 f \$0;
#N canvas 151 29 450 610 guts 0;
#X obj -28 210 -;
#X obj -28 253 abs;
#X obj -28 273 t b f;
#X obj -28 296 Uzi 11;
#X obj 5 338 t b f;
#X obj 5 359 f;
#X obj -1 252 > 0;
#X obj 9 273 sel 0;
#X msg 17 296 -1;
#X obj 32 379 sin;
#X obj 32 400 expr ($f1+1)/2;
#X obj 32 421 *;
#X obj 32 441 *;
#X obj 5 466 +;
#X obj 5 487 t f b;
#X obj 32 508 f;
#X obj 32 529 + 1;
#X obj 32 358 expr (($f1-1)*$f2)-1.57;
#X obj 167 316 pi;
#X obj 167 336 / 10;
#X obj 48 273 + 1;
#X obj 167 294 t b f;
#X obj 51 467 bang;
#X obj 51 488 f;
#X obj -28 69 inlet;
#X obj -28 166 f;
#X obj -12 110 inlet;
#X text 22 109 Width;
#X obj 83 468 inlet;
#X text 119 469 Start point;
#X obj -21 90 inlet;
#X text 8 69 First value;
#X text 17 88 Second value;
#X obj -12 138 t b f;
#X obj -28 187 t b f b;
#X obj 86 488 bang;
#X obj 5 549 outlet;
#X obj 32 569 outlet;
#X obj -12 317 s \$0-refresh;
#X obj -28 232 t f f;
#X connect 0 0 39 0;
#X connect 1 0 2 0;
#X connect 2 0 3 0;
#X connect 2 1 11 1;
#X connect 3 1 38 0;
#X connect 3 2 4 0;
#X connect 4 0 5 0;
#X connect 4 1 17 0;
#X connect 5 0 13 0;
#X connect 6 0 7 0;
#X connect 7 0 8 0;
#X connect 7 1 12 1;
#X connect 8 0 12 1;
#X connect 9 0 10 0;
#X connect 10 0 11 0;
#X connect 11 0 12 0;
#X connect 12 0 13 1;
#X connect 13 0 14 0;
#X connect 14 0 36 0;
#X connect 14 1 15 0;
#X connect 15 0 16 0;
#X connect 16 0 15 1;
#X connect 16 0 37 0;
#X connect 17 0 9 0;
#X connect 18 0 19 0;
#X connect 19 0 17 1;
#X connect 20 0 3 1;
#X connect 21 0 18 0;
#X connect 21 1 19 1;
#X connect 22 0 23 0;
#X connect 23 0 15 1;
#X connect 24 0 25 0;
#X connect 25 0 5 1;
#X connect 25 0 34 0;
#X connect 26 0 33 0;
#X connect 28 0 23 1;
#X connect 28 0 22 0;
#X connect 28 0 35 0;
#X connect 30 0 22 0;
#X connect 30 0 0 0;
#X connect 33 0 25 0;
#X connect 33 1 21 0;
#X connect 33 1 20 0;
#X connect 34 0 0 0;
#X connect 34 1 0 1;
#X connect 34 2 22 0;
#X connect 35 0 25 0;
#X connect 39 0 1 0;
#X connect 39 1 6 0;
#X restore 316 150 pd guts;
#X obj 416 191 + 1;
#X obj 416 231 + 0.5;
#X obj 416 251 int;
#X obj 416 271 / 1000;
#X obj 416 211 * 43.3334;
#X obj 329 -50 inlet;
#X obj 365 90 outlet;
#X obj 342 -30 inlet;
#X obj 355 -10 inlet;
#X obj 316 14 init 1;
#X obj 416 291 pack f \$0;
#X obj 316 171 tabwrite \$0-bp2;
#X obj 416 171 tabwrite \$0-bp2;
#X msg 416 311 \; \$2-bp2pos label \$1kHz;
#X msg 392 57 \; \$1-bp2 const 1;
#X obj -171 49 *;
#X obj -146 27 tabread \$0-bp2;
#X obj 552 131 -;
#X obj 559 110 t b f;
#X obj 562 17 t b b;
#X obj 589 37 f \$0;
#N canvas 151 29 450 610 guts 0;
#X obj -28 210 -;
#X obj -28 253 abs;
#X obj -28 273 t b f;
#X obj -28 296 Uzi 11;
#X obj 5 338 t b f;
#X obj 5 359 f;
#X obj -1 252 > 0;
#X obj 9 273 sel 0;
#X msg 17 296 -1;
#X obj 32 379 sin;
#X obj 32 400 expr ($f1+1)/2;
#X obj 32 421 *;
#X obj 32 441 *;
#X obj 5 466 +;
#X obj 5 487 t f b;
#X obj 32 508 f;
#X obj 32 529 + 1;
#X obj 32 358 expr (($f1-1)*$f2)-1.57;
#X obj 167 316 pi;
#X obj 167 336 / 10;
#X obj 48 273 + 1;
#X obj 167 294 t b f;
#X obj 51 467 bang;
#X obj 51 488 f;
#X obj -28 69 inlet;
#X obj -28 166 f;
#X obj -12 110 inlet;
#X text 22 109 Width;
#X obj 83 468 inlet;
#X text 119 469 Start point;
#X obj -21 90 inlet;
#X text 8 69 First value;
#X text 17 88 Second value;
#X obj -12 138 t b f;
#X obj -28 187 t b f b;
#X obj 86 488 bang;
#X obj 5 549 outlet;
#X obj 32 569 outlet;
#X obj -12 317 s \$0-refresh;
#X obj -28 232 t f f;
#X connect 0 0 39 0;
#X connect 1 0 2 0;
#X connect 2 0 3 0;
#X connect 2 1 11 1;
#X connect 3 1 38 0;
#X connect 3 2 4 0;
#X connect 4 0 5 0;
#X connect 4 1 17 0;
#X connect 5 0 13 0;
#X connect 6 0 7 0;
#X connect 7 0 8 0;
#X connect 7 1 12 1;
#X connect 8 0 12 1;
#X connect 9 0 10 0;
#X connect 10 0 11 0;
#X connect 11 0 12 0;
#X connect 12 0 13 1;
#X connect 13 0 14 0;
#X connect 14 0 36 0;
#X connect 14 1 15 0;
#X connect 15 0 16 0;
#X connect 16 0 15 1;
#X connect 16 0 37 0;
#X connect 17 0 9 0;
#X connect 18 0 19 0;
#X connect 19 0 17 1;
#X connect 20 0 3 1;
#X connect 21 0 18 0;
#X connect 21 1 19 1;
#X connect 22 0 23 0;
#X connect 23 0 15 1;
#X connect 24 0 25 0;
#X connect 25 0 5 1;
#X connect 25 0 34 0;
#X connect 26 0 33 0;
#X connect 28 0 23 1;
#X connect 28 0 22 0;
#X connect 28 0 35 0;
#X connect 30 0 22 0;
#X connect 30 0 0 0;
#X connect 33 0 25 0;
#X connect 33 1 21 0;
#X connect 33 1 20 0;
#X connect 34 0 0 0;
#X connect 34 1 0 1;
#X connect 34 2 22 0;
#X connect 35 0 25 0;
#X connect 39 0 1 0;
#X connect 39 1 6 0;
#X restore 513 150 pd guts;
#N canvas 151 29 450 650 guts 0;
#X obj -28 210 -;
#X obj -28 253 abs;
#X obj -28 273 t b f;
#X obj -28 296 Uzi 11;
#X obj 5 338 t b f;
#X obj 5 359 f;
#X obj -1 252 > 0;
#X obj 9 273 sel 0;
#X msg 17 296 -1;
#X obj 32 379 sin;
#X obj 32 400 expr ($f1+1)/2;
#X obj 32 421 *;
#X obj 32 441 *;
#X obj 5 466 +;
#X obj 5 487 t f b;
#X obj 32 508 f;
#X obj 32 529 + 1;
#X obj 32 358 expr (($f1-1)*$f2)-1.57;
#X obj 167 316 pi;
#X obj 167 336 / 10;
#X obj 47 273 + 1;
#X obj 167 294 t b f;
#X obj 51 467 bang;
#X obj 51 488 f;
#X obj -28 69 inlet;
#X obj -28 166 f;
#X obj -12 110 inlet;
#X text 22 109 Width;
#X obj 83 468 inlet;
#X text 119 469 Start point;
#X obj -21 90 inlet;
#X text 8 69 First value;
#X text 17 88 Second value;
#X obj -12 138 t b f;
#X obj -28 187 t b f b;
#X obj 86 488 bang;
#X obj 5 549 outlet;
#X obj 32 569 outlet;
#X obj -12 317 s \$0-refresh;
#X obj -28 232 t f f;
#X connect 0 0 39 0;
#X connect 1 0 2 0;
#X connect 2 0 3 0;
#X connect 2 1 11 1;
#X connect 3 1 38 0;
#X connect 3 2 4 0;
#X connect 4 0 5 0;
#X connect 4 1 17 0;
#X connect 5 0 13 0;
#X connect 6 0 7 0;
#X connect 7 0 8 0;
#X connect 7 1 12 1;
#X connect 8 0 12 1;
#X connect 9 0 10 0;
#X connect 10 0 11 0;
#X connect 11 0 12 0;
#X connect 12 0 13 1;
#X connect 13 0 14 0;
#X connect 14 0 36 0;
#X connect 14 1 15 0;
#X connect 15 0 16 0;
#X connect 16 0 15 1;
#X connect 16 0 37 0;
#X connect 17 0 9 0;
#X connect 18 0 19 0;
#X connect 19 0 17 1;
#X connect 20 0 3 1;
#X connect 21 0 18 0;
#X connect 21 1 19 1;
#X connect 22 0 23 0;
#X connect 23 0 15 1;
#X connect 24 0 25 0;
#X connect 25 0 5 1;
#X connect 25 0 34 0;
#X connect 26 0 33 0;
#X connect 28 0 23 1;
#X connect 28 0 22 0;
#X connect 28 0 35 0;
#X connect 30 0 22 0;
#X connect 30 0 0 0;
#X connect 33 0 25 0;
#X connect 33 1 21 0;
#X connect 33 1 20 0;
#X connect 34 0 0 0;
#X connect 34 1 0 1;
#X connect 34 2 22 0;
#X connect 35 0 25 0;
#X connect 39 0 1 0;
#X connect 39 1 6 0;
#X restore 613 150 pd guts;
#X obj 613 191 + 1;
#X obj 613 231 + 0.5;
#X obj 613 251 int;
#X obj 613 271 / 1000;
#X obj 613 211 * 43.3334;
#X obj 526 -50 inlet;
#X obj 562 90 outlet;
#X obj 539 -30 inlet;
#X obj 552 -10 inlet;
#X obj 513 14 init 1;
#X obj 613 291 pack f \$0;
#N canvas 151 29 450 650 guts 0;
#X obj -28 210 -;
#X obj -28 253 abs;
#X obj -28 273 t b f;
#X obj -28 296 Uzi 11;
#X obj 5 338 t b f;
#X obj 5 359 f;
#X obj -1 252 > 0;
#X obj 9 273 sel 0;
#X msg 17 296 -1;
#X obj 32 379 sin;
#X obj 32 400 expr ($f1+1)/2;
#X obj 32 421 *;
#X obj 32 441 *;
#X obj 5 466 +;
#X obj 5 487 t f b;
#X obj 32 508 f;
#X obj 32 529 + 1;
#X obj 32 358 expr (($f1-1)*$f2)-1.57;
#X obj 167 316 pi;
#X obj 167 336 / 10;
#X obj 47 273 + 1;
#X obj 167 294 t b f;
#X obj 51 467 bang;
#X obj 51 488 f;
#X obj -28 69 inlet;
#X obj -28 166 f;
#X obj -12 110 inlet;
#X text 22 109 Width;
#X obj 83 468 inlet;
#X text 119 469 Start point;
#X obj -21 90 inlet;
#X text 8 69 First value;
#X text 17 88 Second value;
#X obj -12 138 t b f;
#X obj -28 187 t b f b;
#X obj 86 488 bang;
#X obj 5 549 outlet;
#X obj 32 569 outlet;
#X obj -12 317 s \$0-refresh;
#X obj -28 232 t f f;
#X connect 0 0 39 0;
#X connect 1 0 2 0;
#X connect 2 0 3 0;
#X connect 2 1 11 1;
#X connect 3 1 38 0;
#X connect 3 2 4 0;
#X connect 4 0 5 0;
#X connect 4 1 17 0;
#X connect 5 0 13 0;
#X connect 6 0 7 0;
#X connect 7 0 8 0;
#X connect 7 1 12 1;
#X connect 8 0 12 1;
#X connect 9 0 10 0;
#X connect 10 0 11 0;
#X connect 11 0 12 0;
#X connect 12 0 13 1;
#X connect 13 0 14 0;
#X connect 14 0 36 0;
#X connect 14 1 15 0;
#X connect 15 0 16 0;
#X connect 16 0 15 1;
#X connect 16 0 37 0;
#X connect 17 0 9 0;
#X connect 18 0 19 0;
#X connect 19 0 17 1;
#X connect 20 0 3 1;
#X connect 21 0 18 0;
#X connect 21 1 19 1;
#X connect 22 0 23 0;
#X connect 23 0 15 1;
#X connect 24 0 25 0;
#X connect 25 0 5 1;
#X connect 25 0 34 0;
#X connect 26 0 33 0;
#X connect 28 0 23 1;
#X connect 28 0 22 0;
#X connect 28 0 35 0;
#X connect 30 0 22 0;
#X connect 30 0 0 0;
#X connect 33 0 25 0;
#X connect 33 1 21 0;
#X connect 33 1 20 0;
#X connect 34 0 0 0;
#X connect 34 1 0 1;
#X connect 34 2 22 0;
#X connect 35 0 25 0;
#X connect 39 0 1 0;
#X connect 39 1 6 0;
#X restore 416 150 pd guts;
#X obj 513 171 tabwrite \$0-bp3;
#X obj 613 171 tabwrite \$0-bp3;
#X msg 613 311 \; \$2-bp3pos label \$1kHz;
#X msg 589 57 \; \$1-bp3 const 1;
#X obj -171 69 *;
#X obj -146 47 tabread \$0-bp3;
#X obj 16 191 + 1;
#X obj 16 231 + 0.5;
#X obj 16 251 int;
#X obj 16 271 / 1000;
#X obj 16 211 * 43.3334;
#X obj 16 291 pack f \$0;
#X obj -15 16 inlet;
#X msg 16 311 \; \$2-lspos label \$1kHz;
#N canvas 151 29 450 650 guts 0;
#X obj -28 210 -;
#X obj -28 253 abs;
#X obj -28 273 t b f;
#X obj -28 296 Uzi 11;
#X obj 5 338 t b f;
#X obj 5 359 f;
#X obj -1 252 > 0;
#X obj 9 273 sel 0;
#X msg 17 296 -1;
#X obj 32 379 sin;
#X obj 32 400 expr ($f1+1)/2;
#X obj 32 421 *;
#X obj 32 441 *;
#X obj 5 466 +;
#X obj 5 487 t f b;
#X obj 32 508 f;
#X obj 32 529 + 1;
#X obj 32 358 expr (($f1-1)*$f2)-1.57;
#X obj 167 316 pi;
#X obj 167 336 / 10;
#X obj 46 273 + 1;
#X obj 167 294 t b f;
#X obj 51 467 bang;
#X obj 51 488 f;
#X obj -28 69 inlet;
#X obj -28 166 f;
#X obj -12 110 inlet;
#X text 22 109 Width;
#X obj 83 468 inlet;
#X text 119 469 Start point;
#X obj -21 90 inlet;
#X text 8 69 First value;
#X text 17 88 Second value;
#X obj -12 138 t b f;
#X obj -28 187 t b f b;
#X obj 86 488 bang;
#X obj 5 549 outlet;
#X obj 32 569 outlet;
#X obj -12 317 s \$0-refresh;
#X obj -28 232 t f f;
#X connect 0 0 39 0;
#X connect 1 0 2 0;
#X connect 2 0 3 0;
#X connect 2 1 11 1;
#X connect 3 1 38 0;
#X connect 3 2 4 0;
#X connect 4 0 5 0;
#X connect 4 1 17 0;
#X connect 5 0 13 0;
#X connect 6 0 7 0;
#X connect 7 0 8 0;
#X connect 7 1 12 1;
#X connect 8 0 12 1;
#X connect 9 0 10 0;
#X connect 10 0 11 0;
#X connect 11 0 12 0;
#X connect 12 0 13 1;
#X connect 13 0 14 0;
#X connect 14 0 36 0;
#X connect 14 1 15 0;
#X connect 15 0 16 0;
#X connect 16 0 15 1;
#X connect 16 0 37 0;
#X connect 17 0 9 0;
#X connect 18 0 19 0;
#X connect 19 0 17 1;
#X connect 20 0 3 1;
#X connect 21 0 18 0;
#X connect 21 1 19 1;
#X connect 22 0 23 0;
#X connect 23 0 15 1;
#X connect 24 0 25 0;
#X connect 25 0 5 1;
#X connect 25 0 34 0;
#X connect 26 0 33 0;
#X connect 28 0 23 1;
#X connect 28 0 22 0;
#X connect 28 0 35 0;
#X connect 30 0 22 0;
#X connect 30 0 0 0;
#X connect 33 0 25 0;
#X connect 33 1 21 0;
#X connect 33 1 20 0;
#X connect 34 0 0 0;
#X connect 34 1 0 1;
#X connect 34 2 22 0;
#X connect 35 0 25 0;
#X connect 39 0 1 0;
#X connect 39 1 6 0;
#X restore 711 150 pd guts;
#X obj 775 16 t b b;
#X obj 802 36 f \$0;
#X obj 724 -54 inlet;
#X obj 737 -34 inlet;
#X obj 775 89 outlet;
#X obj 711 -74 init 1;
#X obj 781 191 + 1;
#X obj 781 231 + 0.5;
#X obj 781 251 int;
#X obj 781 271 / 1000;
#X obj 781 211 * 43.3334;
#X obj 781 291 pack f \$0;
#X obj 751 -15 inlet;
#X obj 750 131 -;
#X obj 757 110 t b f;
#X msg 781 311 \; \$2-hspos label \$1kHz;
#X msg 802 56 \; \$1-hi const 1;
#N canvas 40 303 115 118 bp3 0;
#N canvas 0 0 450 300 (subpatch) 0;
#X array \$0-bp3 256 float 0;
#X coords 0 2 255 0 50 50 1;
#X restore 8 -1 graph;
#X restore -279 108 pd bp3;
#N canvas 40 303 115 118 hi 1;
#N canvas 0 0 450 300 (subpatch) 0;
#X array \$0-hi 256 float 0;
#X coords 0 2 255 0 50 50 1;
#X restore 8 -1 graph;
#X restore -279 128 pd hi;
#X obj 711 171 tabwrite \$0-hi;
#X obj -171 89 *;
#X obj -146 67 tabread \$0-hi;
#X obj -171 129 clip 0 2;
#X msg -280 215 \; \$1-low const 1 \; \$1-bp1 const 1 \; \$1-bp2 const
1 \; \$1-bp3 const 1 \; \$1-hi const 1;
#X obj -92 192 Uzi;
#X obj -92 212 f;
#X obj -92 233 tabwrite \$0-low;
#X obj -171 172 t b b f;
#X obj -111 172 t b b f;
#X obj -171 192 s \$0-refresh;
#X obj 876 148 Uzi;
#X obj 876 188 f;
#X obj 797 128 t b b f;
#X obj 857 128 t b b f;
#X obj 797 148 s \$0-refresh;
#X obj 857 107 expr 256-$f1;
#X obj 876 209 tabwrite \$0-hi;
#X obj 906 188 +;
#X obj 857 88 t f f;
#X connect 0 0 1 3;
#X connect 1 0 9 0;
#X connect 1 1 9 1;
#X connect 2 0 6 3;
#X connect 3 0 2 0;
#X connect 3 1 2 1;
#X connect 4 0 39 0;
#X connect 4 1 5 0;
#X connect 5 0 23 0;
#X connect 6 0 13 0;
#X connect 6 1 13 1;
#X connect 7 0 12 0;
#X connect 7 1 12 1;
#X connect 10 0 127 0;
#X connect 15 0 17 0;
#X connect 16 0 17 1;
#X connect 17 0 69 0;
#X connect 19 2 15 0;
#X connect 19 2 16 0;
#X connect 19 2 18 1;
#X connect 19 2 27 0;
#X connect 19 2 70 0;
#X connect 19 2 94 0;
#X connect 19 2 125 0;
#X connect 20 0 47 0;
#X connect 21 0 36 0;
#X connect 21 1 22 0;
#X connect 22 0 24 0;
#X connect 26 0 126 0;
#X connect 27 0 26 1;
#X connect 28 0 46 0;
#X connect 28 0 47 0;
#X connect 29 0 33 0;
#X connect 30 0 31 0;
#X connect 31 0 32 0;
#X connect 32 0 44 0;
#X connect 33 0 30 0;
#X connect 34 0 1 0;
#X connect 34 0 131 0;
#X connect 35 0 1 2;
#X connect 35 0 21 0;
#X connect 37 0 1 1;
#X connect 37 0 36 0;
#X connect 38 0 6 1;
#X connect 38 0 7 0;
#X connect 40 0 6 2;
#X connect 40 0 3 0;
#X connect 40 0 7 2;
#X connect 40 0 4 0;
#X connect 41 0 29 0;
#X connect 41 0 7 3;
#X connect 41 0 2 0;
#X connect 41 0 4 0;
#X connect 42 0 6 0;
#X connect 42 0 7 1;
#X connect 42 0 39 0;
#X connect 44 0 43 0;
#X connect 46 0 45 0;
#X connect 47 0 19 0;
#X connect 49 0 53 3;
#X connect 50 0 49 0;
#X connect 50 1 49 1;
#X connect 51 0 60 0;
#X connect 51 1 52 0;
#X connect 52 0 68 0;
#X connect 53 0 65 0;
#X connect 53 1 65 1;
#X connect 54 0 58 0;
#X connect 55 0 56 0;
#X connect 56 0 57 0;
#X connect 57 0 64 0;
#X connect 58 0 55 0;
#X connect 59 0 53 1;
#X connect 59 0 88 0;
#X connect 61 0 53 2;
#X connect 61 0 50 0;
#X connect 61 0 88 2;
#X connect 61 0 51 0;
#X connect 62 0 54 0;
#X connect 62 0 88 3;
#X connect 62 0 49 0;
#X connect 62 0 51 0;
#X connect 63 0 53 0;
#X connect 63 0 88 1;
#X connect 63 0 60 0;
#X connect 64 0 67 0;
#X connect 69 0 93 0;
#X connect 70 0 69 1;
#X connect 71 0 75 3;
#X connect 72 0 71 0;
#X connect 72 1 71 1;
#X connect 73 0 83 0;
#X connect 73 1 74 0;
#X connect 74 0 92 0;
#X connect 75 0 89 0;
#X connect 75 1 89 1;
#X connect 76 0 90 0;
#X connect 76 1 90 1;
#X connect 77 0 81 0;
#X connect 78 0 79 0;
#X connect 79 0 80 0;
#X connect 80 0 87 0;
#X connect 81 0 78 0;
#X connect 82 0 75 1;
#X connect 82 0 76 0;
#X connect 84 0 75 2;
#X connect 84 0 72 0;
#X connect 84 0 76 2;
#X connect 84 0 73 0;
#X connect 85 0 77 0;
#X connect 85 0 76 3;
#X connect 85 0 71 0;
#X connect 85 0 73 0;
#X connect 86 0 75 0;
#X connect 86 0 76 1;
#X connect 86 0 83 0;
#X connect 87 0 91 0;
#X connect 88 0 66 0;
#X connect 88 1 66 1;
#X connect 93 0 124 0;
#X connect 94 0 93 1;
#X connect 95 0 99 0;
#X connect 96 0 97 0;
#X connect 97 0 98 0;
#X connect 98 0 100 0;
#X connect 99 0 96 0;
#X connect 100 0 102 0;
#X connect 101 0 1 3;
#X connect 101 0 21 0;
#X connect 101 0 95 0;
#X connect 101 0 132 0;
#X connect 103 0 123 0;
#X connect 103 1 123 1;
#X connect 104 0 108 0;
#X connect 104 1 105 0;
#X connect 105 0 120 0;
#X connect 106 0 103 1;
#X connect 106 0 136 0;
#X connect 107 0 103 2;
#X connect 107 0 104 0;
#X connect 107 0 118 0;
#X connect 109 0 108 0;
#X connect 109 0 103 0;
#X connect 110 0 114 0;
#X connect 111 0 112 0;
#X connect 112 0 113 0;
#X connect 113 0 115 0;
#X connect 114 0 111 0;
#X connect 115 0 119 0;
#X connect 116 0 104 0;
#X connect 116 0 110 0;
#X connect 116 0 117 0;
#X connect 116 0 142 0;
#X connect 117 0 103 3;
#X connect 118 0 117 0;
#X connect 118 1 117 1;
#X connect 124 0 26 0;
#X connect 125 0 124 1;
#X connect 126 0 18 0;
#X connect 128 0 129 0;
#X connect 128 2 130 1;
#X connect 129 0 130 0;
#X connect 131 0 133 0;
#X connect 131 1 128 0;
#X connect 131 2 129 1;
#X connect 132 0 133 0;
#X connect 132 1 128 0;
#X connect 132 2 128 1;
#X connect 134 0 135 0;
#X connect 134 2 141 0;
#X connect 135 0 140 0;
#X connect 136 0 138 0;
#X connect 136 1 134 0;
#X connect 136 2 135 1;
#X connect 137 0 138 0;
#X connect 137 1 134 0;
#X connect 137 2 134 1;
#X connect 139 0 137 0;
#X connect 141 0 140 1;
#X connect 142 0 139 0;
#X connect 142 1 141 1;
#X restore 42 180 pd interpolater;
#X obj 1 -21 init 0;
#X obj 43 -21 init 40;
#X obj 91 -21 init 90;
#X obj 139 -21 init 140;
#X obj 193 -21 init 210;
#X obj 247 -21 init 256;
#X obj 0 221 multiplex~;
#X obj 119 1 tgl 27 0 empty empty Bypass -38 20 0 10 -204800 -1 -1
0 1;
#X obj 434 169 textfile;
#X msg 485 142 clear;
#X obj 457 -154 my.hero.mmb \$0-files;
#X msg 468 -175 save;
#X obj 499 -215 textfile;
#X msg 499 -236 read \$1 \, rewind \, bang;
#X obj 499 -195 t b a;
#X obj 526 -174 prepend load;
#X obj 434 -214 savepanel;
#X obj 451 100 prepend add;
#X obj 461 365 list prepend add2;
#X obj 461 386 list trim;
#X msg 434 410 options;
#X msg 453 296 set options;
#X obj 434 274 t b a;
#X obj 602 205 loadbang;
#X msg 473 274 set;
#X obj 461 323 splitfilename /;
#X msg 303 52 \$2 \$1;
#X obj 303 31 pack s s;
#X obj 303 73 mergefilename /;
#X obj 461 344 splitfilename .;
#X obj 303 94 pack s s;
#X msg 303 115 \$1 \$2;
#X obj 303 136 mergefilename .;
#X obj 434 -234 symbol;
#X obj 434 -195 t s b b b;
#X obj 434 233 t a b b;
#X msg 594 344 symbol \$1;
#X obj 594 102 splitfilename /;
#X obj 594 122 makefilename %s/*.txt;
#X obj 594 365 s directory;
#X obj 434 213 r directory;
#X msg 594 247 directory C:/Documents and Settings/Ian Grant/My Documents/Dropbox/FYP/*.txt
\,;
#X obj 594 323 symbol;
#X msg 594 164 save;
#X obj 602 226 t b b;
#X obj 594 142 t b s;
#X symbolatom 621 280 10 0 0 0 - - -;
#X obj 512 200 prepend load;
#X obj 594 184 my.hero.mmb \$0;
#X obj 594 300 save.me.mmb directory \$0;
#X msg 434 121 write \$1.parametric~.txt;
#X obj 85 200 pack 0 0 0 0 0 0 0 0 0 0 0 0 0 0 0 0 0;
#X obj 85 273 unpack 0 0 0 0 0 0 0 0 0 0 0 0 0 0 0 0 0;
#X obj 434 254 folder_list *.parametric~.txt;
#X obj 85 220 save.me.mmb all \$0-files;
#X obj 303 8 t a b;
#X obj 1 163 bng 15 250 50 0 empty empty empty 17 7 0 10 -204800 -4160
-1;
#X msg 91 240 0 0 1 40.004 0 1 40.006 89.984 1 40.006 140.015 1 40.006
209.987 1 40.0019 254;
#X msg 451 -133 all 0 0 1 40.004 0 1 40.006 89.984 1 40.006 140.015
1 40.006 209.987 1 40.0019 254 \,;
#X connect 0 0 34 0;
#X connect 1 0 4 0;
#X connect 2 0 0 0;
#X connect 2 0 34 1;
#X connect 7 0 27 0;
#X connect 7 0 79 1;
#X connect 8 0 28 0;
#X connect 9 0 27 1;
#X connect 9 0 79 2;
#X connect 10 0 27 2;
#X connect 10 0 79 3;
#X connect 11 0 27 5;
#X connect 11 0 79 6;
#X connect 12 0 27 4;
#X connect 12 0 79 5;
#X connect 13 0 27 6;
#X connect 13 0 79 7;
#X connect 14 0 27 8;
#X connect 14 0 79 9;
#X connect 15 0 27 7;
#X connect 15 0 79 8;
#X connect 16 0 27 9;
#X connect 16 0 79 10;
#X connect 17 0 27 11;
#X connect 17 0 79 12;
#X connect 18 0 27 10;
#X connect 18 0 79 11;
#X connect 19 0 27 12;
#X connect 19 0 79 13;
#X connect 20 0 27 14;
#X connect 20 0 79 15;
#X connect 21 0 27 13;
#X connect 21 0 79 14;
#X connect 22 0 27 15;
#X connect 22 0 79 16;
#X connect 23 0 27 3;
#X connect 23 0 79 4;
#X connect 25 0 83 0;
#X connect 26 1 55 0;
#X connect 27 0 9 0;
#X connect 27 1 12 0;
#X connect 27 2 15 0;
#X connect 27 3 18 0;
#X connect 27 4 21 0;
#X connect 28 0 7 0;
#X connect 29 0 10 0;
#X connect 29 0 11 0;
#X connect 29 0 14 0;
#X connect 29 0 17 0;
#X connect 29 0 20 0;
#X connect 30 0 13 0;
#X connect 31 0 16 0;
#X connect 32 0 19 0;
#X connect 33 0 22 0;
#X connect 34 0 3 0;
#X connect 35 0 34 0;
#X connect 35 0 79 0;
#X connect 37 0 36 0;
#X connect 38 0 86 0;
#X connect 39 0 38 0;
#X connect 40 0 42 0;
#X connect 41 0 40 0;
#X connect 42 0 40 0;
#X connect 42 1 43 0;
#X connect 43 0 38 0;
#X connect 44 0 62 0;
#X connect 45 0 36 0;
#X connect 46 0 47 0;
#X connect 47 0 48 0;
#X connect 48 0 26 0;
#X connect 49 0 48 0;
#X connect 50 0 48 0;
#X connect 50 1 53 0;
#X connect 51 0 72 0;
#X connect 52 0 48 0;
#X connect 53 0 55 1;
#X connect 53 0 61 1;
#X connect 53 1 57 0;
#X connect 54 0 56 0;
#X connect 55 0 54 0;
#X connect 56 0 58 0;
#X connect 57 0 46 0;
#X connect 57 1 58 1;
#X connect 58 0 59 0;
#X connect 59 0 60 0;
#X connect 60 0 41 0;
#X connect 61 0 44 0;
#X connect 62 0 78 0;
#X connect 62 0 65 0;
#X connect 62 1 86 0;
#X connect 62 2 39 0;
#X connect 62 3 37 0;
#X connect 63 0 81 0;
#X connect 63 1 49 0;
#X connect 63 2 52 0;
#X connect 64 0 67 0;
#X connect 65 0 66 0;
#X connect 66 0 73 0;
#X connect 68 0 63 0;
#X connect 69 0 75 0;
#X connect 70 0 64 0;
#X connect 70 0 74 0;
#X connect 71 0 76 0;
#X connect 72 0 69 0;
#X connect 72 1 63 0;
#X connect 73 0 71 0;
#X connect 73 1 74 0;
#X connect 74 0 67 0;
#X connect 74 0 77 0;
#X connect 75 0 76 0;
#X connect 76 0 69 0;
#X connect 77 0 70 0;
#X connect 78 0 36 0;
#X connect 79 0 82 0;
#X connect 80 0 35 0;
#X connect 80 1 7 0;
#X connect 80 2 9 0;
#X connect 80 3 10 0;
#X connect 80 4 23 0;
#X connect 80 5 12 0;
#X connect 80 6 11 0;
#X connect 80 7 13 0;
#X connect 80 8 15 0;
#X connect 80 9 14 0;
#X connect 80 10 16 0;
#X connect 80 11 18 0;
#X connect 80 12 17 0;
#X connect 80 13 19 0;
#X connect 80 14 21 0;
#X connect 80 15 20 0;
#X connect 80 16 22 0;
#X connect 81 0 50 0;
#X connect 82 0 80 0;
#X connect 83 0 61 0;
#X connect 83 1 79 0;
#X connect 84 0 85 0;
#X connect 85 0 80 0;
#X connect 86 0 45 0;
#X coords 0 -1 1 1 300 178 1 0 0;
