#N canvas 376 45 856 566 10;
#X obj 92 53 openpanel;
#X obj 92 35 bng 15 250 50 0 empty empty empty 17 7 0 10 -262144 -1
-1;
#X obj 92 487 output~;
#X obj 92 241 parametric~;
#X obj 92 151 readsf~;
#X msg 92 73 open \$1 \, 1;
#X msg 98 93 open ../FYP/sound/voice.wav \, 1;
#X msg 107 112 open ../FYP/sound/voice2.wav \, 1;
#X msg 117 131 open ../FYP/sound/bell.aiff \, 1;
#X text 33 310 Level--->;
#X text -69 372 Reset level to default -->;
#X text -111 402 Reset all settings to default -->;
#X text 211 161 True bypass;
#X text 247 179 Save as preset(best if saved in current directory of
patch);
#X text 273 201 Load preset(looks in current directory or last saved
location);
#X text 221 204 |;
#X text 221 194 |;
#X text 221 184 |;
#X text 221 174 |;
#X text 221 214 |;
#X text 221 222 v;
#X text 251 204 |;
#X text 251 194 |;
#X text 251 214 |;
#X text 251 222 v;
#X text 281 222 v;
#X text 183 433 |_________|_________|;
#X text 113 436 Low Shelf;
#X text 133 423 |;
#X text 134 417 ^;
#X text 355 422 |;
#X text 356 416 ^;
#X text 183 423 |;
#X text 184 417 ^;
#X text 243 423 |;
#X text 244 417 ^;
#X text 303 423 |;
#X text 304 417 ^;
#X text 332 434 High Shelf;
#X text 232 448 Peaks;
#X text 397 370 <--Gain level (0%-200% of input);
#X text 397 386 <--Width of peak/slope;
#X text 397 402 <--Centre frequency of band;
#X text 398 315 <--Array used to drive filtering can be drawn on for
more dramatic effects.;
#X text -112 3 5-band \, mono \, parametric equalizer.;
#X obj 671 533 reference;
#X connect 0 0 5 0;
#X connect 1 0 0 0;
#X connect 3 0 2 0;
#X connect 3 0 2 1;
#X connect 4 0 3 0;
#X connect 5 0 4 0;
#X connect 6 0 4 0;
#X connect 7 0 4 0;
#X connect 8 0 4 0;
