#N canvas 0 0 254 102 10;
#X obj 2 21 stripnote;
#X obj 2 42 f;
#X obj 38 42 f;
#X obj 2 62 outlet;
#X obj 45 62 outlet;
#X obj 2 1 inlet;
#X obj 53 1 inlet;
#X obj 63 21 netreceive 3000;
#X obj 63 42 route \$1;
#X obj 93 1 inlet;
#X obj 88 62 outlet;
#X connect 0 0 1 1;
#X connect 0 1 2 1;
#X connect 1 0 3 0;
#X connect 2 0 4 0;
#X connect 5 0 0 0;
#X connect 6 0 0 1;
#X connect 7 0 8 0;
#X connect 8 0 2 0;
#X connect 8 0 1 0;
#X connect 8 0 10 0;
#X connect 9 0 1 0;
#X connect 9 0 2 0;
