#N canvas 0 0 691 453 10;
#X msg 58 36 60;
#X msg 75 56 61;
#X msg 92 76 62;
#X msg 108 96 63;
#X msg 127 36 64;
#X msg 144 56 65;
#X msg 161 76 66;
#X msg 178 96 67;
#X msg 196 36 68;
#X msg 213 56 69;
#X msg 230 76 70;
#X msg 247 96 71;
#X msg 263 36 72;
#X msg 282 56 73;
#X msg 299 76 74;
#X msg 316 96 75;
#X msg 332 36 76;
#X msg 351 56 77;
#X msg 368 76 78;
#X msg 385 96 79;
#X obj 58 340 unpack;
#X obj 58 3 sel 97 119 115 101 100 102 116 103 121 104 117 106 107
111 108 112 59 39 93 35;
#X msg 67 222 60;
#X msg 84 242 61;
#X msg 101 262 62;
#X msg 117 282 63;
#X msg 136 222 64;
#X msg 153 242 65;
#X msg 170 262 66;
#X msg 187 282 67;
#X msg 205 212 68;
#X msg 222 232 69;
#X msg 239 252 70;
#X msg 256 272 71;
#X msg 272 212 72;
#X msg 291 232 73;
#X msg 308 252 74;
#X msg 325 272 75;
#X msg 341 212 76;
#X msg 360 232 77;
#X msg 377 252 78;
#X msg 394 272 79;
#X obj 67 189 sel 97 119 115 101 100 102 116 103 121 104 117 106 107
111 108 112 59 39 93 35;
#X obj 58 370 outlet;
#X obj 106 371 outlet;
#X obj 67 148 key;
#X obj 58 -18 keyup;
#X obj 67 314 pack 0 127;
#X obj 58 128 pack 0 0;
#X obj 67 169 change;
#X msg 93 149 set 0;
#X obj 124 169 inlet;
#X connect 0 0 48 0;
#X connect 1 0 48 0;
#X connect 2 0 48 0;
#X connect 3 0 48 0;
#X connect 4 0 48 0;
#X connect 5 0 48 0;
#X connect 6 0 48 0;
#X connect 7 0 48 0;
#X connect 8 0 48 0;
#X connect 9 0 48 0;
#X connect 10 0 48 0;
#X connect 11 0 48 0;
#X connect 12 0 48 0;
#X connect 13 0 48 0;
#X connect 14 0 48 0;
#X connect 15 0 48 0;
#X connect 16 0 48 0;
#X connect 17 0 48 0;
#X connect 18 0 48 0;
#X connect 19 0 48 0;
#X connect 20 0 43 0;
#X connect 20 1 44 0;
#X connect 21 0 0 0;
#X connect 21 1 1 0;
#X connect 21 2 2 0;
#X connect 21 3 3 0;
#X connect 21 4 4 0;
#X connect 21 5 5 0;
#X connect 21 6 6 0;
#X connect 21 7 7 0;
#X connect 21 8 8 0;
#X connect 21 9 9 0;
#X connect 21 10 10 0;
#X connect 21 11 11 0;
#X connect 21 12 12 0;
#X connect 21 13 13 0;
#X connect 21 14 14 0;
#X connect 21 15 15 0;
#X connect 21 16 16 0;
#X connect 21 17 17 0;
#X connect 21 18 18 0;
#X connect 21 19 19 0;
#X connect 22 0 47 0;
#X connect 23 0 47 0;
#X connect 24 0 47 0;
#X connect 25 0 47 0;
#X connect 26 0 47 0;
#X connect 27 0 47 0;
#X connect 28 0 47 0;
#X connect 29 0 47 0;
#X connect 30 0 47 0;
#X connect 31 0 47 0;
#X connect 32 0 47 0;
#X connect 33 0 47 0;
#X connect 34 0 47 0;
#X connect 35 0 47 0;
#X connect 36 0 47 0;
#X connect 37 0 47 0;
#X connect 38 0 47 0;
#X connect 39 0 47 0;
#X connect 40 0 47 0;
#X connect 41 0 47 0;
#X connect 42 0 22 0;
#X connect 42 1 23 0;
#X connect 42 2 24 0;
#X connect 42 3 25 0;
#X connect 42 4 26 0;
#X connect 42 5 27 0;
#X connect 42 6 28 0;
#X connect 42 7 29 0;
#X connect 42 8 30 0;
#X connect 42 9 31 0;
#X connect 42 10 32 0;
#X connect 42 11 33 0;
#X connect 42 12 34 0;
#X connect 42 13 35 0;
#X connect 42 14 36 0;
#X connect 42 15 37 0;
#X connect 42 16 38 0;
#X connect 42 17 39 0;
#X connect 42 18 40 0;
#X connect 42 19 41 0;
#X connect 45 0 49 0;
#X connect 46 0 21 0;
#X connect 46 0 50 0;
#X connect 47 0 20 0;
#X connect 48 0 20 0;
#X connect 49 0 42 0;
#X connect 50 0 49 0;
#X connect 51 0 47 1;
