#N canvas 195 274 452 263 10;
#X obj 110 68 qwertymidi;
#X text 5 4 MIDI for those without MIDI controllers. Turns qwerty keyboard
input into MIDI-style output.;
#X floatatom 110 43 5 0 0 0 - - -;
#X text 150 44 <--Velocity value \, default = 127;
#X obj 110 91 pack 0 0;
#X obj 110 114 print;
#X obj 28 195 cnv 15 30 30 empty empty A 11 17 0 14 -228856 -1 0;
#X obj 68 195 cnv 15 30 30 empty empty S 11 17 0 14 -228856 -1 0;
#X obj 108 195 cnv 15 30 30 empty empty D 11 17 0 14 -228856 -1 0;
#X obj 148 195 cnv 15 30 30 empty empty F 11 17 0 14 -228856 -1 0;
#X obj 188 195 cnv 15 30 30 empty empty G 11 17 0 14 -228856 -1 0;
#X obj 228 195 cnv 15 30 30 empty empty H 11 17 0 14 -228856 -1 0;
#X obj 268 195 cnv 15 30 30 empty empty J 11 17 0 14 -228856 -1 0;
#X obj 308 195 cnv 15 30 30 empty empty K 11 17 0 14 -228856 -1 0;
#X obj 348 195 cnv 15 30 30 empty empty L 11 17 0 14 -228856 -1 0;
#X obj 178 158 cnv 15 30 30 empty empty T 11 17 0 14 -1 -262144 0;
#X obj 218 158 cnv 15 30 30 empty empty Y 11 17 0 14 -1 -262144 0;
#X obj 58 158 cnv 15 30 30 empty empty W 11 17 0 14 -1 -262144 0;
#X obj 98 158 cnv 15 30 30 empty empty E 11 17 0 14 -1 -262144 0;
#X obj 258 158 cnv 15 30 30 empty empty U 11 17 0 14 -1 -262144 0;
#X obj 338 158 cnv 15 30 30 empty empty O 11 17 0 14 -1 -262144 0;
#X obj 378 158 cnv 15 30 30 empty empty P 11 17 0 14 -1 -262144 0;
#X obj 388 195 cnv 15 30 30 empty empty : 11 17 0 14 -228856 -1 0;
#X obj 383 237 reference;
#X connect 0 0 4 0;
#X connect 0 1 4 1;
#X connect 2 0 0 0;
#X connect 4 0 5 0;
