#N canvas 153 44 643 363 10;
#X obj 6 36 geometric 2000 0.95;
#X obj 6 57 bng 15 250 50 0 empty empty empty 17 7 0 10 -262144 -1
-1;
#X floatatom 31 77 5 0 0 0 - - -;
#X obj 31 57 iantime;
#X obj 6 17 bng 15 250 50 0 empty empty empty 17 7 0 10 -262144 -1
-1;
#X obj 117 17 bng 15 250 50 0 empty empty empty 17 7 0 10 -262144 -1
-1;
#X obj 149 -2 notein;
#X obj 149 219 output~;
#X obj 149 125 f;
#X obj 191 125 f;
#X obj 191 146 / 127;
#X obj 149 189 *~;
#X obj 149 146 mtof;
#X obj 191 188 line~;
#X msg 191 167 \$1 50;
#X obj 149 18 stripnote;
#X obj 149 40 poly 2 1;
#X obj 149 82 route 1 2;
#X obj 149 61 pack 0 0 0;
#X obj 149 102 unpack 0 0;
#X obj 239 125 f;
#X obj 281 125 f;
#X obj 281 146 / 127;
#X obj 239 189 *~;
#X obj 239 146 mtof;
#X obj 281 188 line~;
#X msg 281 167 \$1 50;
#X obj 239 102 unpack 0 0;
#X obj 236 57 bng 15 250 50 0 empty empty empty 17 7 0 10 -262144 -1
-1;
#X floatatom 261 77 5 0 0 0 - - -;
#X obj 261 57 iantime;
#X obj 236 17 bng 15 250 50 0 empty empty empty 17 7 0 10 -262144 -1
-1;
#X obj 347 17 bng 15 250 50 0 empty empty empty 17 7 0 10 -262144 -1
-1;
#X obj 149 -25 bng 15 250 50 0 empty empty empty 17 7 0 10 -262144
-1 -1;
#X obj 188 -26 bng 15 250 50 0 empty empty empty 17 7 0 10 -262144
-1 -1;
#X obj 236 36 geometric 500 1.05;
#X obj 149 167 tone2;
#X obj 239 167 tone2;
#X obj 385 103 knob 32 32 3 1000 0 0 lop empty lowpass 0 -8 129 15
-262144 -1 -1 2000 1;
#X obj 455 103 knob 32 32 200 1000 0 0 hip empty highpass 0 -8 129
15 -262144 -1 -1 1300 1;
#X msg 322 146 0;
#X connect 0 0 1 0;
#X connect 0 0 3 0;
#X connect 0 0 8 0;
#X connect 0 0 9 0;
#X connect 3 0 2 0;
#X connect 4 0 0 0;
#X connect 5 0 0 1;
#X connect 6 0 15 0;
#X connect 6 1 15 1;
#X connect 8 0 12 0;
#X connect 9 0 10 0;
#X connect 10 0 14 0;
#X connect 11 0 7 0;
#X connect 11 0 7 1;
#X connect 12 0 36 0;
#X connect 13 0 11 1;
#X connect 14 0 13 0;
#X connect 15 0 16 0;
#X connect 15 1 16 1;
#X connect 16 0 18 0;
#X connect 16 1 18 1;
#X connect 16 2 18 2;
#X connect 17 0 19 0;
#X connect 17 1 27 0;
#X connect 18 0 17 0;
#X connect 19 0 8 1;
#X connect 19 1 9 1;
#X connect 20 0 24 0;
#X connect 21 0 22 0;
#X connect 22 0 26 0;
#X connect 23 0 7 0;
#X connect 23 0 7 1;
#X connect 24 0 37 0;
#X connect 25 0 23 1;
#X connect 26 0 25 0;
#X connect 27 0 20 1;
#X connect 27 1 21 1;
#X connect 30 0 29 0;
#X connect 31 0 35 0;
#X connect 32 0 35 1;
#X connect 33 0 0 0;
#X connect 33 0 35 0;
#X connect 34 0 0 1;
#X connect 34 0 35 1;
#X connect 34 0 40 0;
#X connect 35 0 28 0;
#X connect 35 0 30 0;
#X connect 35 0 21 0;
#X connect 35 0 20 0;
#X connect 36 0 11 0;
#X connect 37 0 23 0;
#X connect 40 0 26 0;
#X connect 40 0 14 0;
