#N canvas 0 0 450 378 10;
#X obj 68 71 /;
#X obj 83 94 int;
#X obj 68 117 -;
#X obj 68 138 *;
#X obj 68 179 int;
#X obj 68 158 + 0.5;
#X obj 91 29 loadbang;
#X msg 91 50 \$1;
#X obj 68 -12 inlet;
#X obj 83 8 inlet;
#X obj 24 201 outlet;
#X obj 68 201 outlet;
#X connect 0 0 2 0;
#X connect 0 0 1 0;
#X connect 1 0 2 1;
#X connect 1 0 10 0;
#X connect 2 0 3 0;
#X connect 3 0 5 0;
#X connect 4 0 11 0;
#X connect 5 0 4 0;
#X connect 6 0 7 0;
#X connect 7 0 0 1;
#X connect 8 0 0 0;
#X connect 9 0 0 1;
#X connect 9 0 3 1;
