#N canvas 76 241 457 299 10;
#X obj 1 237 freeverb~;
#X obj 1 257 mux~;
#X obj 1 277 outlet~;
#X obj 7 216 inlet~;
#X obj 52 257 mux~;
#X obj 52 277 outlet~;
#X obj 52 216 inlet~;
#X msg 1 115 roomsize \$1;
#X msg 1 135 damping \$1;
#X msg 1 155 width \$1;
#X msg 1 175 wet \$1;
#X msg 1 195 dry \$1;
#X obj 3 31 hsl 95 15 0.11 1.1 0 1 empty empty Roomsize -2 8 0 10 -262144
-4160 -1 7400 1;
#X obj 3 47 hsl 95 15 0 2 0 1 empty empty Damping -2 8 0 10 -262144
-4160 -1 2475 1;
#X obj 3 63 hsl 95 15 0 1 0 1 empty empty Width -2 8 0 10 -262144 -4160
-1 9400 1;
#X obj 3 79 hsl 95 15 0 1 0 1 empty empty Wet -2 8 0 10 -262144 -4160
-1 2970 1;
#X obj 3 95 hsl 95 15 0 1 0 1 empty empty Dry -2 8 0 10 -262144 -4160
-1 0 1;
#X obj 0 15 tgl 15 0 empty empty Bypass 17 7 0 10 -262144 -1 -1 0 1
;
#X obj 294 99 my.hero.mmb \$0;
#X msg 294 78 save;
#X obj 267 39 r savestate;
#X obj 294 141 s state;
#X obj 105 1 r load;
#X obj 267 58 t b b;
#X msg 294 120;
#X obj 105 39 save.me.mmb \$1-reverb \$0;
#X obj 105 58 save.me.mmb \$1-room \$0;
#X obj 105 77 save.me.mmb \$1-damp \$0;
#X obj 105 96 save.me.mmb \$1-width \$0;
#X obj 105 115 save.me.mmb \$1-wet \$0;
#X obj 105 135 save.me.mmb \$1-dry \$0;
#X obj 105 20 route \$1-reverb \$1-room \$1-damp \$1-width \$1-wet
\$1-dry;
#X connect 0 0 1 0;
#X connect 0 1 4 0;
#X connect 1 0 2 0;
#X connect 3 0 0 0;
#X connect 3 0 1 1;
#X connect 4 0 5 0;
#X connect 6 0 4 1;
#X connect 6 0 0 1;
#X connect 7 0 0 0;
#X connect 8 0 0 0;
#X connect 9 0 0 0;
#X connect 10 0 0 0;
#X connect 11 0 0 0;
#X connect 12 0 7 0;
#X connect 12 0 26 0;
#X connect 13 0 8 0;
#X connect 13 0 27 0;
#X connect 14 0 9 0;
#X connect 14 0 28 0;
#X connect 15 0 10 0;
#X connect 15 0 29 0;
#X connect 16 0 11 0;
#X connect 16 0 30 0;
#X connect 17 0 4 0;
#X connect 17 0 1 0;
#X connect 17 0 25 0;
#X connect 18 0 24 0;
#X connect 19 0 18 0;
#X connect 20 0 23 0;
#X connect 22 0 31 0;
#X connect 23 0 24 0;
#X connect 23 1 19 0;
#X connect 24 0 21 0;
#X connect 25 0 17 0;
#X connect 26 0 12 0;
#X connect 27 0 13 0;
#X connect 28 0 14 0;
#X connect 29 0 15 0;
#X connect 30 0 16 0;
#X connect 31 0 17 0;
#X connect 31 1 12 0;
#X connect 31 2 13 0;
#X connect 31 3 14 0;
#X connect 31 4 15 0;
#X connect 31 5 16 0;
#X coords 0 -1 1 1 100 110 1 0 0;
