#N canvas 748 48 458 317 10;
#X obj 102 104 s savestate;
#X obj -31 126 r state;
#X obj -31 146 prepend add;
#X obj -31 166 save.me.mmb state \$0-state;
#X obj -31 186 s load;
#X obj 83 124 my.hero.mmb \$0-state;
#X msg 83 42 save;
#X obj 23 104 prepend load;
#X msg 122 84 clear;
#X obj 83 64 t a b b;
#X obj 174 84 loadbang;
#X obj 83 145 outlet;
#X obj 23 85 inlet;
#X obj 58 0 bng 17 250 50 0 empty empty empty 17 7 0 10 -262144 -1
-1;
#X obj 174 104 del 10;
#X connect 1 0 2 0;
#X connect 2 0 3 0;
#X connect 3 0 4 0;
#X connect 5 0 11 0;
#X connect 6 0 9 0;
#X connect 7 0 5 0;
#X connect 8 0 3 1;
#X connect 9 0 5 0;
#X connect 9 1 0 0;
#X connect 9 2 8 0;
#X connect 10 0 14 0;
#X connect 12 0 7 0;
#X connect 13 0 6 0;
#X connect 14 0 11 0;
#X coords 0 -1 1 1 75 17 1 0 0;
