#N canvas 758 87 368 454 10;
#X obj -3 244 tgl 15 0 empty empty S 4 8 0 10 -262144 -4034 -1 0 1
;
#X obj 22 244 tgl 15 0 empty empty M 4 8 0 10 -262144 -258113 -1 2
2;
#X obj 24 117 vu 10 120 empty empty -1 -8 0 8 -66577 -1 1 0;
#X obj 10 117 vsl 12 119 0 120 0 0 empty empty empty 0 -9 0 10 -262144
-1 -1 6660 1;
#X obj 108 227 pvu~;
#X obj 100 87 inlet~;
#X obj 115 147 line~;
#X obj 101 167 *~;
#X obj 115 107 fadtorms;
#X obj 163 126 v2db;
#X obj 9 83 init 84;
#X obj 101 207 *~;
#X obj 125 187 line~;
#X msg 125 167 0 10;
#X msg 115 127 \$1 10;
#X msg 163 167 1 10;
#X obj 154 148 sel 1 0;
#X obj 102 247 outlet~;
#X obj -66 -137 t b f;
#X obj -66 -115 pack \$0 f;
#X obj -66 -94 s mute;
#X obj -66 -178 r mute;
#X obj -66 -158 route \$0;
#X obj -21 -137 unpack;
#X obj 12 -117 sel 0;
#X msg 12 -97 -1;
#X obj 39 -97 + 0;
#X obj 65 -97 f;
#X obj 12 -78 invert;
#X obj 65 -37 spigot;
#X obj 98 -57 init 1;
#X obj 35 4 sel 1;
#X obj 16 -57 spigot;
#X obj 84 5 sel 0;
#X obj 84 65 f;
#X obj 111 45 spigot;
#X msg 159 16 0;
#X msg 130 16 1;
#X obj 65 -17 t b f b;
#X obj 16 -37 t b f b;
#X obj -2 117 vu 10 120 empty empty -1 -8 0 10 -66577 -1 0 0;
#X obj 196 88 inlet~;
#X obj 197 168 *~;
#X obj 197 208 *~;
#X obj 207 227 pvu~;
#X obj 196 247 outlet~;
#X obj 171 107 loadbang;
#X connect 0 0 28 0;
#X connect 0 0 18 0;
#X connect 1 0 16 0;
#X connect 1 0 35 0;
#X connect 3 0 14 0;
#X connect 3 0 8 0;
#X connect 4 0 40 0;
#X connect 5 0 7 0;
#X connect 6 0 7 1;
#X connect 6 0 42 1;
#X connect 7 0 11 0;
#X connect 8 0 14 0;
#X connect 8 0 9 0;
#X connect 9 0 2 1;
#X connect 9 0 40 1;
#X connect 10 0 3 0;
#X connect 11 0 4 0;
#X connect 11 0 17 0;
#X connect 12 0 11 1;
#X connect 12 0 43 1;
#X connect 13 0 12 0;
#X connect 14 0 6 0;
#X connect 15 0 12 0;
#X connect 16 0 13 0;
#X connect 16 1 15 0;
#X connect 16 2 13 0;
#X connect 18 0 19 0;
#X connect 18 1 19 1;
#X connect 19 0 20 0;
#X connect 21 0 22 0;
#X connect 22 1 23 0;
#X connect 23 1 24 0;
#X connect 24 0 25 0;
#X connect 24 1 26 0;
#X connect 25 0 26 0;
#X connect 26 0 27 0;
#X connect 27 0 26 1;
#X connect 27 0 32 1;
#X connect 27 0 29 0;
#X connect 28 0 29 1;
#X connect 28 0 32 0;
#X connect 28 0 39 0;
#X connect 29 0 38 0;
#X connect 30 0 29 1;
#X connect 30 0 35 1;
#X connect 31 0 34 0;
#X connect 31 1 1 0;
#X connect 32 0 39 0;
#X connect 33 0 34 0;
#X connect 33 1 1 0;
#X connect 34 0 1 0;
#X connect 35 0 34 1;
#X connect 36 0 35 1;
#X connect 37 0 35 1;
#X connect 38 0 37 0;
#X connect 38 1 33 0;
#X connect 38 2 36 0;
#X connect 39 0 37 0;
#X connect 39 1 31 0;
#X connect 39 2 36 0;
#X connect 41 0 42 0;
#X connect 42 0 43 0;
#X connect 43 0 45 0;
#X connect 43 0 44 0;
#X connect 44 0 2 0;
#X connect 46 0 15 0;
#X coords 0 -1 1 1 80 160 1 -20 100;
