#N canvas 0 0 1263 707 10;
#X obj -89 -150 vradio 15 1 0 7 empty empty empty 0 -8 0 10 -262144
-1 -1 0;
#X obj 216 403 outlet~;
#X text -71 -150 Sine;
#X text -71 -134 Sawtooth;
#X text -71 -120 Triangle;
#X text -70 -105 Square;
#X text -70 -90 Pulse;
#N canvas 1263 309 99 119 hanning_window 0;
#N canvas 0 22 450 300 (subpatch) 0;
#X array \$0-Hanning 256 float 3;
#A 0 0 0.000150591 0.000602275 0.00135475 0.00240764 0.00376025 0.00541174
0.00736117 0.00960734 0.0121489 0.0149844 0.018112 0.0215298 0.0252359
0.0292279 0.0335036 0.0380602 0.0428951 0.0480053 0.0533879 0.0590393
0.0649565 0.0711357 0.0775732 0.0842652 0.0912076 0.0983962 0.105827
0.113495 0.121396 0.129524 0.137876 0.146447 0.15523 0.16422 0.173414
0.182803 0.192384 0.20215 0.212096 0.222215 0.232501 0.242949 0.253551
0.264302 0.275194 0.286222 0.297379 0.308658 0.320052 0.331555 0.343159
0.354858 0.366644 0.37851 0.390449 0.402455 0.414519 0.426635 0.438795
0.450991 0.463218 0.475466 0.487729 0.5 0.512271 0.524534 0.536782
0.549009 0.561205 0.573365 0.585481 0.597545 0.609551 0.62149 0.633356
0.645142 0.656841 0.668445 0.679947 0.691342 0.702621 0.713778 0.724806
0.735698 0.746449 0.757051 0.767499 0.777785 0.787904 0.79785 0.807616
0.817197 0.826586 0.835779 0.84477 0.853553 0.862124 0.870476 0.878604
0.886505 0.894173 0.901604 0.908792 0.915735 0.922427 0.928864 0.935043
0.940961 0.946612 0.951995 0.957105 0.96194 0.966496 0.970772 0.974764
0.97847 0.981888 0.985016 0.987851 0.990393 0.992639 0.994588 0.99624
0.997592 0.998645 0.999398 0.999849 1 0.999849 0.999398 0.998645 0.997592
0.99624 0.994588 0.992639 0.990393 0.987851 0.985016 0.981888 0.97847
0.974764 0.970772 0.966496 0.96194 0.957105 0.951995 0.946612 0.940961
0.935043 0.928864 0.922427 0.915735 0.908792 0.901604 0.894173 0.886505
0.878604 0.870476 0.862124 0.853553 0.84477 0.835779 0.826586 0.817197
0.807616 0.79785 0.787904 0.777785 0.767499 0.757051 0.746449 0.735698
0.724806 0.713778 0.702621 0.691342 0.679947 0.668445 0.656841 0.645142
0.633356 0.62149 0.609551 0.597545 0.585481 0.573365 0.561205 0.549009
0.536782 0.524534 0.512271 0.5 0.487729 0.475466 0.463218 0.450991
0.438795 0.426635 0.414519 0.402455 0.390449 0.37851 0.366644 0.354858
0.343159 0.331555 0.320052 0.308658 0.297379 0.286222 0.275194 0.264302
0.253551 0.242949 0.232501 0.222215 0.212096 0.20215 0.192384 0.182803
0.173414 0.16422 0.15523 0.146447 0.137876 0.129524 0.121396 0.113495
0.105827 0.0983962 0.0912076 0.0842652 0.0775732 0.0711357 0.0649565
0.0590393 0.0533879 0.0480053 0.0428951 0.0380602 0.0335036 0.0292279
0.0252359 0.0215298 0.018112 0.0149844 0.0121489 0.00960734 0.00736117
0.00541174 0.00376025 0.00240764 0.00135475 0.000602275 0;
#X coords 0 1 255 0 50 50 1;
#X restore 7 -135 graph;
#X restore 372 -104 pd hanning_window;
#N canvas 965 386 500 608 wavgorithm1 0;
#X obj 2 6 inlet;
#X obj 2 29 t b b;
#X obj 2 51 Uzi 10;
#X obj 2 73 random 100;
#X floatatom 2 97 5 0 0 0 - - -;
#X obj 2 119 t f b;
#X obj 29 158 f;
#X obj 2 180 -;
#X obj 2 202 t f f;
#X obj 2 223 abs;
#X obj 2 243 t b f;
#X obj 2 266 Uzi 11;
#X obj 35 287 t b f;
#X obj 35 308 f;
#X obj 29 222 > 0;
#X obj 39 243 sel 0;
#X msg 47 266 -1;
#X obj 62 307 expr (($f1-1)*0.3141)-1.57;
#X obj 62 328 sin;
#X obj 62 349 expr ($f1+1)/2;
#X obj 62 370 *;
#X obj 62 390 *;
#X obj 35 415 +;
#X obj 35 436 t f b;
#X obj 62 457 f;
#X obj 62 478 + 1;
#X msg 77 437 -1;
#X obj 35 520 expr ($f1*0.02)-1;
#X obj 35 541 outlet;
#X obj 62 499 outlet;
#X obj 44 138 init 50;
#X connect 0 0 1 0;
#X connect 1 0 2 0;
#X connect 1 1 26 0;
#X connect 2 0 3 0;
#X connect 3 0 4 0;
#X connect 4 0 5 0;
#X connect 5 0 6 1;
#X connect 5 0 7 0;
#X connect 5 1 6 0;
#X connect 6 0 7 1;
#X connect 6 0 13 1;
#X connect 7 0 8 0;
#X connect 8 0 9 0;
#X connect 8 1 14 0;
#X connect 9 0 10 0;
#X connect 10 0 11 0;
#X connect 10 1 20 1;
#X connect 11 2 12 0;
#X connect 12 0 13 0;
#X connect 12 1 17 0;
#X connect 13 0 22 0;
#X connect 14 0 15 0;
#X connect 15 0 16 0;
#X connect 15 1 21 1;
#X connect 16 0 21 1;
#X connect 17 0 18 0;
#X connect 18 0 19 0;
#X connect 19 0 20 0;
#X connect 20 0 21 0;
#X connect 21 0 22 1;
#X connect 22 0 23 0;
#X connect 23 0 27 0;
#X connect 23 1 24 0;
#X connect 24 0 25 0;
#X connect 25 0 24 1;
#X connect 25 0 29 0;
#X connect 26 0 24 1;
#X connect 27 0 28 0;
#X connect 30 0 6 1;
#X restore 216 -3 pd wavgorithm1;
#X text -70 -75 Random 1;
#X obj 287 -171 loadbang;
#X obj 287 -130 Uzi 256;
#X obj 326 -108 t f f;
#X obj 326 -87 / 128;
#X obj 326 -66 - 1;
#X obj 326 -45 t f b;
#X obj 353 -21 pi;
#X obj 326 -1 *;
#X obj 326 21 expr 0.5+0.5*cos($f1);
#X obj 287 -150 t b b;
#X obj 216 -24 sel 5 6;
#X obj 216 39 noise~;
#X text -70 -60 Random 2;
#X msg 223 142 1;
#X msg 235 162 0;
#X obj 372 -480 inlet;
#X obj 504 -57 phasor~;
#X obj 483 -27 sin~;
#X obj 526 107 +~;
#X obj 526 86 clip~ 0 1;
#X obj 541 2 phasor~;
#X obj 541 45 -~ 1;
#X obj 541 24 *~ 2;
#X obj 541 65 clip~ 0 1;
#X obj 511 58 -~ 1;
#X obj 511 37 *~ 2;
#X msg 580 -116 0;
#X obj 589 2 phasor~;
#X obj 580 -136 loadbang;
#X msg 612 -116 0.5;
#X obj 574 24 +~;
#X obj 574 45 -~ 1;
#X obj 483 271 multiplex~ . . . . . . . .;
#X obj 570 148 *~ 100;
#X obj 570 127 clip~ 0 1;
#X obj 592 250 *~;
#X obj 607 168 *~ 256;
#X obj 592 208 *~ 100;
#X obj 483 -186 unpack 0 0;
#X obj 483 494 *~;
#X obj 498 295 / 127;
#X obj 372 -349 route 1 2 3 4 5 6 7;
#N canvas 1069 121 403 766 wavehaper 0;
#X obj 26 -356 phasor~;
#X obj 5 -326 sin~;
#X obj 48 -192 +~;
#X obj 48 -213 clip~ 0 1;
#X obj 63 -297 phasor~;
#X obj 63 -254 -~ 1;
#X obj 63 -275 *~ 2;
#X obj 63 -234 clip~ 0 1;
#X obj 33 -241 -~ 1;
#X obj 33 -262 *~ 2;
#X msg 102 -375 0;
#X obj 111 -297 phasor~;
#X obj 102 -395 loadbang;
#X msg 134 -375 0.5;
#X obj 96 -275 +~;
#X obj 96 -254 -~ 1;
#X obj 5 -28 multiplex~ . . . . . . . .;
#X obj 92 -151 *~ 100;
#X obj 92 -172 clip~ 0 1;
#X obj 114 -49 *~;
#X obj 129 -131 *~ 256;
#X obj 114 -91 *~ 100;
#X obj 92 -193 -~ 0.99;
#X obj 5 -480 unpack 0 0;
#X obj 5 215 *~;
#X obj 20 20 / 127;
#X obj 5 -502 inlet;
#X obj 5 -460 sig~;
#X obj 26 -376 +~;
#X obj 41 -395 *~;
#X obj 41 -419 osc~;
#X obj 63 -318 *~ -1;
#X obj 20 43 sel 0;
#X msg 20 169 0 \$1;
#X obj 20 148 f;
#X obj 20 192 vline~;
#X msg 47 107 \$1 \$2 \, \$3 \$4 \$2;
#X obj 47 86 pack 0 0 0 0;
#X obj 93 65 *;
#X obj 47 64 t f f;
#X obj 5 -438 +~;
#X obj 36 -459 r bend\$0;
#X obj 41 -440 r vibrate\$0;
#X obj 73 -419 r vibdepth\$0;
#X obj 12 -73 r waveshaper\$0;
#X obj 27 0 r kill\$0;
#X obj 70 22 r attack\$0;
#X obj 108 43 r sustain\$0;
#X obj 116 65 r decay\$0;
#X obj 35 128 r release\$0;
#X obj 5 239 throw~ all\$0;
#X obj 129 -111 tabread~ \$0-Hanning;
#X obj 114 -70 tabread4~ \$0-scope;
#X connect 0 0 1 0;
#X connect 0 0 9 0;
#X connect 0 0 14 0;
#X connect 0 0 16 1;
#X connect 0 0 20 0;
#X connect 0 0 21 0;
#X connect 0 0 22 0;
#X connect 1 0 16 0;
#X connect 2 0 16 2;
#X connect 3 0 2 0;
#X connect 4 0 6 0;
#X connect 5 0 7 0;
#X connect 6 0 5 0;
#X connect 7 0 2 1;
#X connect 8 0 3 0;
#X connect 9 0 8 0;
#X connect 10 0 0 1;
#X connect 10 0 4 1;
#X connect 11 0 14 1;
#X connect 12 0 10 0;
#X connect 12 0 13 0;
#X connect 13 0 11 1;
#X connect 14 0 15 0;
#X connect 15 0 16 3;
#X connect 16 0 24 0;
#X connect 17 0 16 4;
#X connect 18 0 17 0;
#X connect 19 0 16 5;
#X connect 19 0 16 6;
#X connect 20 0 51 0;
#X connect 21 0 52 0;
#X connect 22 0 18 0;
#X connect 23 0 27 0;
#X connect 23 1 25 0;
#X connect 24 0 50 0;
#X connect 25 0 32 0;
#X connect 26 0 23 0;
#X connect 27 0 40 0;
#X connect 28 0 0 0;
#X connect 28 0 31 0;
#X connect 29 0 28 1;
#X connect 30 0 29 0;
#X connect 31 0 4 0;
#X connect 31 0 11 0;
#X connect 32 0 34 0;
#X connect 32 1 39 0;
#X connect 33 0 35 0;
#X connect 34 0 33 0;
#X connect 35 0 24 1;
#X connect 36 0 35 0;
#X connect 37 0 36 0;
#X connect 38 0 37 2;
#X connect 39 0 37 0;
#X connect 39 1 38 0;
#X connect 40 0 28 0;
#X connect 41 0 40 1;
#X connect 42 0 30 0;
#X connect 43 0 29 1;
#X connect 44 0 16 0;
#X connect 45 0 25 0;
#X connect 46 0 37 1;
#X connect 47 0 38 1;
#X connect 48 0 37 3;
#X connect 49 0 34 1;
#X connect 51 0 19 1;
#X connect 52 0 19 0;
#X restore 372 -327 pd wavehaper;
#X obj 483 -121 vline~;
#X obj 483 -144 pack 0 0;
#X obj 541 -19 *~ -1;
#X obj 417 -480 inlet;
#X obj 394 -410 mtof;
#X obj 372 -431 poly 7 1;
#X obj 457 -452 mtof;
#X obj -89 -167 tgl 15 0 empty empty empty 17 7 0 10 -262144 -1 -1
1 1;
#X obj 457 -431 pack 0 0;
#X obj 372 -389 pack 0 0 0;
#X obj 457 -370 spigot;
#X obj 372 -369 spigot;
#X obj 467 -410 sel 0 1;
#X msg 467 -391 1;
#X msg 498 -391 0;
#X text -72 -169 Poly/Mono;
#X obj 231 338 line~;
#X msg 231 316 \$1 50;
#X obj 216 358 *~;
#X msg 417 149 0;
#X obj 223 121 loadbang;
#X obj 483 -164 poly 1 1;
#X obj 529 -121 osc~;
#X obj 504 -77 +~;
#X obj 529 -98 *~;
#X obj 223 182 metro 100;
#X floatatom 167 -139 5 10 10000 0 A_ms - -;
#X floatatom 167 -79 5 0 100 0 S__% - -;
#X floatatom 167 -109 5 10 10000 0 D_ms - -;
#X floatatom 167 -49 5 10 10000 0 R_ms - -;
#X obj -214 -240 init 100;
#X obj 263 -305 / 100;
#X obj 498 318 sel 0;
#X msg 498 444 0 \$1;
#X obj 498 423 f;
#X obj 498 467 vline~;
#X msg 525 382 \$1 \$2 \, \$3 \$4 \$2;
#X obj 525 361 pack 0 0 0 0;
#X obj 571 340 *;
#X obj 525 339 t f f;
#X obj -7 -64 knob 16 16 0 127 0 0 empty empty Gliss 0 -8 0 8 -262144
-1 -1 0 1;
#X obj 32 -64 knob 16 16 0 20 0 0 empty empty Mrate 0 -8 0 8 -262144
-1 -1 0 1;
#X obj -7 -100 knob 16 16 0 50 0 0 empty empty Mod 0 -8 0 8 -262144
-1 -1 0 1;
#X obj 29 -97 tgl 15 0 empty empty learn 0 -6 0 10 -262144 -1 -1 0
7.48032;
#X obj 99 -377 ==;
#X obj 64 -378 ==;
#X obj 31 -329 spigot;
#X obj 79 -421 spigot;
#X msg 85 -398 0;
#X obj 64 -351 &&;
#X obj 114 -398 spigot;
#X obj 34 -455 ctlin;
#X obj 31 -309 / 2.54;
#X obj -1 -357 ==;
#X obj -36 -358 ==;
#X obj -89 -309 spigot;
#X obj -21 -401 spigot;
#X msg -15 -378 0;
#X obj -36 -331 &&;
#X obj 14 -378 spigot;
#X obj 29 -134 tgl 15 0 empty empty learn 0 -6 0 10 -262144 -1 -1 0
7.48032;
#X obj -7 -137 knob 16 16 -127 127 0 0 empty empty Pitch 0 -8 0 8 -262144
-1 -1 750 1;
#X obj 400 -72 / 127;
#X obj 400 -50 * 25;
#X obj -214 -180 init 10;
#X obj 490 -98 +~;
#X obj -89 -455 bendin;
#X obj -89 -401 / 64.504;
#X obj -89 -378 - 127;
#X msg -77 -426 127;
#X floatatom -52 -273 5 0 0 0 - - -;
#X floatatom -79 -347 5 0 0 0 - - -;
#X floatatom -39 -303 5 0 0 0 - - -;
#X obj 749 -25 textfile;
#X obj 57 -199 bng 27 250 50 0 empty empty empty 17 7 0 10 -262144
-1 -1;
#X msg 800 -52 clear;
#X obj 772 -440 my.hero.mmb \$0-files;
#X msg 783 -461 save;
#X obj 814 -501 textfile;
#X msg 814 -522 read \$1 \, rewind \, bang;
#X obj 814 -481 t b a;
#X obj 841 -460 prepend load;
#X obj 749 -500 savepanel;
#X obj 766 -94 prepend add;
#X msg 766 -419 wave 1 \, attack 151 \, decay 10 \, sustain 100 \,
release 10 \, polmon 0 \, mod 0 \, mrate 0 \, gliss 0 \, scope 0 0
0 0 0 0 0 0 0 0 0 0 0 0 0 0 0 0 0 0 0 0 0 0 0 0 0 0 0 0 0 0 0 0 0 0
0 0 0 0 0 0 0 0 0 0 0 0 0 0 0 0 0 0 0 0 0 0 0 0 0 0 0 0 0 0 0 0 0 0
0 0 0 0 0 0 0 0 0 0 0 0 0 0 0 0 0 0 0 0 0 0 0 0 0 0 0 0 0 0 \,;
#X obj 85 -198 popup 124 25 #ffffff popup preset saw untitled;
#X obj 776 171 list prepend add2;
#X obj 776 192 list trim;
#X msg 749 216 options;
#X msg 768 102 set options;
#X obj 749 80 t b a;
#X obj 1037 11 loadbang;
#X msg 788 80 set;
#X obj -214 -200 init 0;
#X obj -290 -66 save.me.mmb wave \$0-files 1;
#X obj -290 -146 save.me.mmb attack \$0-files 2;
#X obj -290 -126 save.me.mmb decay \$0-files 3;
#X obj -290 -106 save.me.mmb sustain \$0-files 4;
#X obj -290 -86 save.me.mmb release \$0-files 5;
#X obj -290 -46 save.me.mmb polmon \$0-files 6;
#X obj -290 -26 save.me.mmb mod \$0-files 7;
#X obj -290 -6 save.me.mmb mrate \$0-files 8;
#X obj -290 14 save.me.mmb gliss \$0-files 9;
#X obj 845 -30 save.me.mmb scope \$0-files 10;
#X obj -214 -220 init 1;
#X obj 776 129 splitfilename /;
#X msg 579 -279 \$2 \$1;
#X obj 579 -300 pack s s;
#X obj 579 -258 mergefilename /;
#X obj 776 150 splitfilename .;
#X obj 579 -237 pack s s;
#X msg 579 -216 \$1 \$2;
#X obj 579 -195 mergefilename .;
#X obj 749 -520 symbol;
#X obj 231 -283 s attack\$0;
#X obj 242 -263 s decay\$0;
#X obj 255 -243 s sustain\$0;
#X obj 268 -223 s release\$0;
#X obj 216 95 catch~ all\$0;
#X obj 343 112 s waveshaper\$0;
#X obj 400 -28 s bend\$0;
#X obj 417 172 s kill\$0;
#X obj 218 -107 s vibrate\$0;
#X obj 219 -60 s vibdepth\$0;
#X obj 513 403 r release\$0;
#X obj 594 340 r decay\$0;
#X obj 586 318 r sustain\$0;
#X obj 548 297 r attack\$0;
#N canvas 0 22 450 300 (subpatch) 0;
#X array \$0-magnitude 512 float 1;
#A 0 0 0 0 0 0 0 0 0 0 0 0 0 0 0 0 0 0 0 0 0 0 0 0 0 0 0 0 0 0 0 0
0 0 0 0 0 0 0 0 0 0 0 0 0 0 0 0 0 0 0 0 0 0 0 0 0 0 0 0 0 0 0 0 0 0
0 0 0 0 0 0 0 0 0 0 0 0 0 0 0 0 0 0 0 0 0 0 0 0 0 0 0 0 0 0 0 0 0 0
0 0 0 0 0 0 0 0 0 0 0 0 0 0 0 0 0 0 0 0 0 0 0 0 0 0 0 0 0 0 0 0 0 0
0 0 0 0 0 0 0 0 0 0 0 0 0 0 0 0 0 0 0 0 0 0 0 0 0 0 0 0 0 0 0 0 0 0
0 0 0 0 0 0 0 0 0 0 0 0 0 0 0 0 0 0 0 0 0 0 0 0 0 0 0 0 0 0 0 0 0 0
0 0 0 0 0 0 0 0 0 0 0 0 0 0 0 0 0 0 0 0 0 0 0 0 0 0 0 0 0 0 0 0 0 0
0 0 0 0 0 0 0 0 0 0 0 0 0 0 0 0 0 0 0 0 0 0 0 0 0 0 0 0 0 0 0 0 0 0
0 0 0 0 0 0 0 0 0 0 0 0 0 0 0 0 0 0 0 0 0 0 0 0 0 0 0 0 0 0 0 0 0 0
0 0 0 0 0 0 0 0 0 0 0 0 0 0 0 0 0 0 0 0 0 0 0 0 0 0 0 0 0 0 0 0 0 0
0 0 0 0 0 0 0 0 0 0 0 0 0 0 0 0 0 0 0 0 0 0 0 0 0 0 0 0 0 0 0 0 0 0
0 0 0 0 0 0 0 0 0 0 0 0 0 0 0 0 0 0 0 0 0 0 0 0 0 0 0 0 0 0 0 0 0 0
0 0 0 0 0 0 0 0 0 0 0 0 0 0 0 0 0 0 0 0 0 0 0 0 0 0 0 0 0 0 0 0 0 0
0 0 0 0 0 0 0 0 0 0 0 0 0 0 0 0 0 0 0 0 0 0 0 0 0 0 0 0 0 0 0 0 0 0
0 0 0 0 0 0 0 0 0 0 0 0 0 0 0 0 0 0 0 0 0 0 0 0 0 0 0 0 0 0 0 0 0 0
0 0 0 0 0;
#X coords 0 1 512 0 298 100 1;
#X restore -89 99 graph;
#N canvas 0 22 450 300 (subpatch) 0;
#X array \$0-scope 100 float 1;
#A 0 0 0 0 0 0 0 0 0 0 0 0 0 0 0 0 0 0 0 0 0 0 0 0 0 0 0 0 0 0 0 0
0 0 0 0 0 0 0 0 0 0 0 0 0 0 0 0 0 0 0 0 0 0 0 0 0 0 0 0 0 0 0 0 0 0
0 0 0 0 0 0 0 0 0 0 0 0 0 0 0 0 0 0 0 0 0 0 0 0 0 0 0 0 0 0 0 0 0 0
0;
#X coords 0 1 99 -1 298 100 1;
#X restore -89 -22 graph;
#X obj 223 282 tabwrite~ \$0-scope;
#X obj 222 382 spectrum.mmb~ \$0-magnitude;
#X obj 326 85 tabwrite \$0-Hanning;
#X obj 334 43 f \$0;
#X msg 334 64 set \$1-Hanning;
#X obj 845 -51 tabdump \$0-scope;
#X obj 845 -8 tabset \$0-scope;
#X obj 592 229 tabread4~ \$0-scope;
#X obj 607 189 tabread~ \$0-Hanning;
#X obj 216 60 tabwrite~ \$0-scope;
#X obj 216 18 tabwrite \$0-scope;
#N canvas 1069 121 403 766 wavehaper 0;
#X obj 26 -356 phasor~;
#X obj 5 -326 sin~;
#X obj 48 -192 +~;
#X obj 48 -213 clip~ 0 1;
#X obj 63 -297 phasor~;
#X obj 63 -254 -~ 1;
#X obj 63 -275 *~ 2;
#X obj 63 -234 clip~ 0 1;
#X obj 33 -241 -~ 1;
#X obj 33 -262 *~ 2;
#X msg 102 -375 0;
#X obj 111 -297 phasor~;
#X obj 102 -395 loadbang;
#X msg 134 -375 0.5;
#X obj 96 -275 +~;
#X obj 96 -254 -~ 1;
#X obj 5 -28 multiplex~ . . . . . . . .;
#X obj 92 -151 *~ 100;
#X obj 92 -172 clip~ 0 1;
#X obj 114 -49 *~;
#X obj 129 -131 *~ 256;
#X obj 114 -91 *~ 100;
#X obj 92 -193 -~ 0.99;
#X obj 5 -480 unpack 0 0;
#X obj 5 215 *~;
#X obj 20 20 / 127;
#X obj 5 -502 inlet;
#X obj 5 -460 sig~;
#X obj 26 -376 +~;
#X obj 41 -395 *~;
#X obj 41 -419 osc~;
#X obj 63 -318 *~ -1;
#X obj 20 43 sel 0;
#X msg 20 169 0 \$1;
#X obj 20 148 f;
#X obj 20 192 vline~;
#X msg 47 107 \$1 \$2 \, \$3 \$4 \$2;
#X obj 47 86 pack 0 0 0 0;
#X obj 93 65 *;
#X obj 47 64 t f f;
#X obj 5 -438 +~;
#X obj 36 -459 r bend\$0;
#X obj 41 -440 r vibrate\$0;
#X obj 73 -419 r vibdepth\$0;
#X obj 12 -73 r waveshaper\$0;
#X obj 27 0 r kill\$0;
#X obj 70 22 r attack\$0;
#X obj 108 43 r sustain\$0;
#X obj 116 65 r decay\$0;
#X obj 35 128 r release\$0;
#X obj 5 239 throw~ all\$0;
#X obj 129 -111 tabread~ \$0-Hanning;
#X obj 114 -70 tabread4~ \$0-scope;
#X connect 0 0 1 0;
#X connect 0 0 9 0;
#X connect 0 0 14 0;
#X connect 0 0 16 1;
#X connect 0 0 20 0;
#X connect 0 0 21 0;
#X connect 0 0 22 0;
#X connect 1 0 16 0;
#X connect 2 0 16 2;
#X connect 3 0 2 0;
#X connect 4 0 6 0;
#X connect 5 0 7 0;
#X connect 6 0 5 0;
#X connect 7 0 2 1;
#X connect 8 0 3 0;
#X connect 9 0 8 0;
#X connect 10 0 0 1;
#X connect 10 0 4 1;
#X connect 11 0 14 1;
#X connect 12 0 10 0;
#X connect 12 0 13 0;
#X connect 13 0 11 1;
#X connect 14 0 15 0;
#X connect 15 0 16 3;
#X connect 16 0 24 0;
#X connect 17 0 16 4;
#X connect 18 0 17 0;
#X connect 19 0 16 5;
#X connect 19 0 16 6;
#X connect 20 0 51 0;
#X connect 21 0 52 0;
#X connect 22 0 18 0;
#X connect 23 0 27 0;
#X connect 23 1 25 0;
#X connect 24 0 50 0;
#X connect 25 0 32 0;
#X connect 26 0 23 0;
#X connect 27 0 40 0;
#X connect 28 0 0 0;
#X connect 28 0 31 0;
#X connect 29 0 28 1;
#X connect 30 0 29 0;
#X connect 31 0 4 0;
#X connect 31 0 11 0;
#X connect 32 0 34 0;
#X connect 32 1 39 0;
#X connect 33 0 35 0;
#X connect 34 0 33 0;
#X connect 35 0 24 1;
#X connect 36 0 35 0;
#X connect 37 0 36 0;
#X connect 38 0 37 2;
#X connect 39 0 37 0;
#X connect 39 1 38 0;
#X connect 40 0 28 0;
#X connect 41 0 40 1;
#X connect 42 0 30 0;
#X connect 43 0 29 1;
#X connect 44 0 16 0;
#X connect 45 0 25 0;
#X connect 46 0 37 1;
#X connect 47 0 38 1;
#X connect 48 0 37 3;
#X connect 49 0 34 1;
#X connect 51 0 19 1;
#X connect 52 0 19 0;
#X restore 387 -307 pd wavehaper;
#N canvas 1069 121 403 766 wavehaper 0;
#X obj 26 -356 phasor~;
#X obj 5 -326 sin~;
#X obj 48 -192 +~;
#X obj 48 -213 clip~ 0 1;
#X obj 63 -297 phasor~;
#X obj 63 -254 -~ 1;
#X obj 63 -275 *~ 2;
#X obj 63 -234 clip~ 0 1;
#X obj 33 -241 -~ 1;
#X obj 33 -262 *~ 2;
#X msg 102 -375 0;
#X obj 111 -297 phasor~;
#X obj 102 -395 loadbang;
#X msg 134 -375 0.5;
#X obj 96 -275 +~;
#X obj 96 -254 -~ 1;
#X obj 5 -28 multiplex~ . . . . . . . .;
#X obj 92 -151 *~ 100;
#X obj 92 -172 clip~ 0 1;
#X obj 114 -49 *~;
#X obj 129 -131 *~ 256;
#X obj 114 -91 *~ 100;
#X obj 92 -193 -~ 0.99;
#X obj 5 -480 unpack 0 0;
#X obj 5 215 *~;
#X obj 20 20 / 127;
#X obj 5 -502 inlet;
#X obj 5 -460 sig~;
#X obj 26 -376 +~;
#X obj 41 -395 *~;
#X obj 41 -419 osc~;
#X obj 63 -318 *~ -1;
#X obj 20 43 sel 0;
#X msg 20 169 0 \$1;
#X obj 20 148 f;
#X obj 20 192 vline~;
#X msg 47 107 \$1 \$2 \, \$3 \$4 \$2;
#X obj 47 86 pack 0 0 0 0;
#X obj 93 65 *;
#X obj 47 64 t f f;
#X obj 5 -438 +~;
#X obj 36 -459 r bend\$0;
#X obj 41 -440 r vibrate\$0;
#X obj 73 -419 r vibdepth\$0;
#X obj 12 -73 r waveshaper\$0;
#X obj 27 0 r kill\$0;
#X obj 70 22 r attack\$0;
#X obj 108 43 r sustain\$0;
#X obj 116 65 r decay\$0;
#X obj 35 128 r release\$0;
#X obj 5 239 throw~ all\$0;
#X obj 129 -111 tabread~ \$0-Hanning;
#X obj 114 -70 tabread4~ \$0-scope;
#X connect 0 0 1 0;
#X connect 0 0 9 0;
#X connect 0 0 14 0;
#X connect 0 0 16 1;
#X connect 0 0 20 0;
#X connect 0 0 21 0;
#X connect 0 0 22 0;
#X connect 1 0 16 0;
#X connect 2 0 16 2;
#X connect 3 0 2 0;
#X connect 4 0 6 0;
#X connect 5 0 7 0;
#X connect 6 0 5 0;
#X connect 7 0 2 1;
#X connect 8 0 3 0;
#X connect 9 0 8 0;
#X connect 10 0 0 1;
#X connect 10 0 4 1;
#X connect 11 0 14 1;
#X connect 12 0 10 0;
#X connect 12 0 13 0;
#X connect 13 0 11 1;
#X connect 14 0 15 0;
#X connect 15 0 16 3;
#X connect 16 0 24 0;
#X connect 17 0 16 4;
#X connect 18 0 17 0;
#X connect 19 0 16 5;
#X connect 19 0 16 6;
#X connect 20 0 51 0;
#X connect 21 0 52 0;
#X connect 22 0 18 0;
#X connect 23 0 27 0;
#X connect 23 1 25 0;
#X connect 24 0 50 0;
#X connect 25 0 32 0;
#X connect 26 0 23 0;
#X connect 27 0 40 0;
#X connect 28 0 0 0;
#X connect 28 0 31 0;
#X connect 29 0 28 1;
#X connect 30 0 29 0;
#X connect 31 0 4 0;
#X connect 31 0 11 0;
#X connect 32 0 34 0;
#X connect 32 1 39 0;
#X connect 33 0 35 0;
#X connect 34 0 33 0;
#X connect 35 0 24 1;
#X connect 36 0 35 0;
#X connect 37 0 36 0;
#X connect 38 0 37 2;
#X connect 39 0 37 0;
#X connect 39 1 38 0;
#X connect 40 0 28 0;
#X connect 41 0 40 1;
#X connect 42 0 30 0;
#X connect 43 0 29 1;
#X connect 44 0 16 0;
#X connect 45 0 25 0;
#X connect 46 0 37 1;
#X connect 47 0 38 1;
#X connect 48 0 37 3;
#X connect 49 0 34 1;
#X connect 51 0 19 1;
#X connect 52 0 19 0;
#X restore 403 -287 pd wavehaper;
#N canvas 1069 121 403 766 wavehaper 0;
#X obj 26 -356 phasor~;
#X obj 5 -326 sin~;
#X obj 48 -192 +~;
#X obj 48 -213 clip~ 0 1;
#X obj 63 -297 phasor~;
#X obj 63 -254 -~ 1;
#X obj 63 -275 *~ 2;
#X obj 63 -234 clip~ 0 1;
#X obj 33 -241 -~ 1;
#X obj 33 -262 *~ 2;
#X msg 102 -375 0;
#X obj 111 -297 phasor~;
#X obj 102 -395 loadbang;
#X msg 134 -375 0.5;
#X obj 96 -275 +~;
#X obj 96 -254 -~ 1;
#X obj 5 -28 multiplex~ . . . . . . . .;
#X obj 92 -151 *~ 100;
#X obj 92 -172 clip~ 0 1;
#X obj 114 -49 *~;
#X obj 129 -131 *~ 256;
#X obj 114 -91 *~ 100;
#X obj 92 -193 -~ 0.99;
#X obj 5 -480 unpack 0 0;
#X obj 5 215 *~;
#X obj 20 20 / 127;
#X obj 5 -502 inlet;
#X obj 5 -460 sig~;
#X obj 26 -376 +~;
#X obj 41 -395 *~;
#X obj 41 -419 osc~;
#X obj 63 -318 *~ -1;
#X obj 20 43 sel 0;
#X msg 20 169 0 \$1;
#X obj 20 148 f;
#X obj 20 192 vline~;
#X msg 47 107 \$1 \$2 \, \$3 \$4 \$2;
#X obj 47 86 pack 0 0 0 0;
#X obj 93 65 *;
#X obj 47 64 t f f;
#X obj 5 -438 +~;
#X obj 36 -459 r bend\$0;
#X obj 41 -440 r vibrate\$0;
#X obj 73 -419 r vibdepth\$0;
#X obj 12 -73 r waveshaper\$0;
#X obj 27 0 r kill\$0;
#X obj 70 22 r attack\$0;
#X obj 108 43 r sustain\$0;
#X obj 116 65 r decay\$0;
#X obj 35 128 r release\$0;
#X obj 5 239 throw~ all\$0;
#X obj 129 -111 tabread~ \$0-Hanning;
#X obj 114 -70 tabread4~ \$0-scope;
#X connect 0 0 1 0;
#X connect 0 0 9 0;
#X connect 0 0 14 0;
#X connect 0 0 16 1;
#X connect 0 0 20 0;
#X connect 0 0 21 0;
#X connect 0 0 22 0;
#X connect 1 0 16 0;
#X connect 2 0 16 2;
#X connect 3 0 2 0;
#X connect 4 0 6 0;
#X connect 5 0 7 0;
#X connect 6 0 5 0;
#X connect 7 0 2 1;
#X connect 8 0 3 0;
#X connect 9 0 8 0;
#X connect 10 0 0 1;
#X connect 10 0 4 1;
#X connect 11 0 14 1;
#X connect 12 0 10 0;
#X connect 12 0 13 0;
#X connect 13 0 11 1;
#X connect 14 0 15 0;
#X connect 15 0 16 3;
#X connect 16 0 24 0;
#X connect 17 0 16 4;
#X connect 18 0 17 0;
#X connect 19 0 16 5;
#X connect 19 0 16 6;
#X connect 20 0 51 0;
#X connect 21 0 52 0;
#X connect 22 0 18 0;
#X connect 23 0 27 0;
#X connect 23 1 25 0;
#X connect 24 0 50 0;
#X connect 25 0 32 0;
#X connect 26 0 23 0;
#X connect 27 0 40 0;
#X connect 28 0 0 0;
#X connect 28 0 31 0;
#X connect 29 0 28 1;
#X connect 30 0 29 0;
#X connect 31 0 4 0;
#X connect 31 0 11 0;
#X connect 32 0 34 0;
#X connect 32 1 39 0;
#X connect 33 0 35 0;
#X connect 34 0 33 0;
#X connect 35 0 24 1;
#X connect 36 0 35 0;
#X connect 37 0 36 0;
#X connect 38 0 37 2;
#X connect 39 0 37 0;
#X connect 39 1 38 0;
#X connect 40 0 28 0;
#X connect 41 0 40 1;
#X connect 42 0 30 0;
#X connect 43 0 29 1;
#X connect 44 0 16 0;
#X connect 45 0 25 0;
#X connect 46 0 37 1;
#X connect 47 0 38 1;
#X connect 48 0 37 3;
#X connect 49 0 34 1;
#X connect 51 0 19 1;
#X connect 52 0 19 0;
#X restore 419 -267 pd wavehaper;
#N canvas 1069 121 403 766 wavehaper 0;
#X obj 26 -356 phasor~;
#X obj 5 -326 sin~;
#X obj 48 -192 +~;
#X obj 48 -213 clip~ 0 1;
#X obj 63 -297 phasor~;
#X obj 63 -254 -~ 1;
#X obj 63 -275 *~ 2;
#X obj 63 -234 clip~ 0 1;
#X obj 33 -241 -~ 1;
#X obj 33 -262 *~ 2;
#X msg 102 -375 0;
#X obj 111 -297 phasor~;
#X obj 102 -395 loadbang;
#X msg 134 -375 0.5;
#X obj 96 -275 +~;
#X obj 96 -254 -~ 1;
#X obj 5 -28 multiplex~ . . . . . . . .;
#X obj 92 -151 *~ 100;
#X obj 92 -172 clip~ 0 1;
#X obj 114 -49 *~;
#X obj 129 -131 *~ 256;
#X obj 114 -91 *~ 100;
#X obj 92 -193 -~ 0.99;
#X obj 5 -480 unpack 0 0;
#X obj 5 215 *~;
#X obj 20 20 / 127;
#X obj 5 -502 inlet;
#X obj 5 -460 sig~;
#X obj 26 -376 +~;
#X obj 41 -395 *~;
#X obj 41 -419 osc~;
#X obj 63 -318 *~ -1;
#X obj 20 43 sel 0;
#X msg 20 169 0 \$1;
#X obj 20 148 f;
#X obj 20 192 vline~;
#X msg 47 107 \$1 \$2 \, \$3 \$4 \$2;
#X obj 47 86 pack 0 0 0 0;
#X obj 93 65 *;
#X obj 47 64 t f f;
#X obj 5 -438 +~;
#X obj 36 -459 r bend\$0;
#X obj 41 -440 r vibrate\$0;
#X obj 73 -419 r vibdepth\$0;
#X obj 12 -73 r waveshaper\$0;
#X obj 27 0 r kill\$0;
#X obj 70 22 r attack\$0;
#X obj 108 43 r sustain\$0;
#X obj 116 65 r decay\$0;
#X obj 35 128 r release\$0;
#X obj 5 239 throw~ all\$0;
#X obj 129 -111 tabread~ \$0-Hanning;
#X obj 114 -70 tabread4~ \$0-scope;
#X connect 0 0 1 0;
#X connect 0 0 9 0;
#X connect 0 0 14 0;
#X connect 0 0 16 1;
#X connect 0 0 20 0;
#X connect 0 0 21 0;
#X connect 0 0 22 0;
#X connect 1 0 16 0;
#X connect 2 0 16 2;
#X connect 3 0 2 0;
#X connect 4 0 6 0;
#X connect 5 0 7 0;
#X connect 6 0 5 0;
#X connect 7 0 2 1;
#X connect 8 0 3 0;
#X connect 9 0 8 0;
#X connect 10 0 0 1;
#X connect 10 0 4 1;
#X connect 11 0 14 1;
#X connect 12 0 10 0;
#X connect 12 0 13 0;
#X connect 13 0 11 1;
#X connect 14 0 15 0;
#X connect 15 0 16 3;
#X connect 16 0 24 0;
#X connect 17 0 16 4;
#X connect 18 0 17 0;
#X connect 19 0 16 5;
#X connect 19 0 16 6;
#X connect 20 0 51 0;
#X connect 21 0 52 0;
#X connect 22 0 18 0;
#X connect 23 0 27 0;
#X connect 23 1 25 0;
#X connect 24 0 50 0;
#X connect 25 0 32 0;
#X connect 26 0 23 0;
#X connect 27 0 40 0;
#X connect 28 0 0 0;
#X connect 28 0 31 0;
#X connect 29 0 28 1;
#X connect 30 0 29 0;
#X connect 31 0 4 0;
#X connect 31 0 11 0;
#X connect 32 0 34 0;
#X connect 32 1 39 0;
#X connect 33 0 35 0;
#X connect 34 0 33 0;
#X connect 35 0 24 1;
#X connect 36 0 35 0;
#X connect 37 0 36 0;
#X connect 38 0 37 2;
#X connect 39 0 37 0;
#X connect 39 1 38 0;
#X connect 40 0 28 0;
#X connect 41 0 40 1;
#X connect 42 0 30 0;
#X connect 43 0 29 1;
#X connect 44 0 16 0;
#X connect 45 0 25 0;
#X connect 46 0 37 1;
#X connect 47 0 38 1;
#X connect 48 0 37 3;
#X connect 49 0 34 1;
#X connect 51 0 19 1;
#X connect 52 0 19 0;
#X restore 435 -247 pd wavehaper;
#N canvas 1069 121 403 766 wavehaper 0;
#X obj 26 -356 phasor~;
#X obj 5 -326 sin~;
#X obj 48 -192 +~;
#X obj 48 -213 clip~ 0 1;
#X obj 63 -297 phasor~;
#X obj 63 -254 -~ 1;
#X obj 63 -275 *~ 2;
#X obj 63 -234 clip~ 0 1;
#X obj 33 -241 -~ 1;
#X obj 33 -262 *~ 2;
#X msg 102 -375 0;
#X obj 111 -297 phasor~;
#X obj 102 -395 loadbang;
#X msg 134 -375 0.5;
#X obj 96 -275 +~;
#X obj 96 -254 -~ 1;
#X obj 5 -28 multiplex~ . . . . . . . .;
#X obj 92 -151 *~ 100;
#X obj 92 -172 clip~ 0 1;
#X obj 114 -49 *~;
#X obj 129 -131 *~ 256;
#X obj 114 -91 *~ 100;
#X obj 92 -193 -~ 0.99;
#X obj 5 -480 unpack 0 0;
#X obj 5 215 *~;
#X obj 20 20 / 127;
#X obj 5 -502 inlet;
#X obj 5 -460 sig~;
#X obj 26 -376 +~;
#X obj 41 -395 *~;
#X obj 41 -419 osc~;
#X obj 63 -318 *~ -1;
#X obj 20 43 sel 0;
#X msg 20 169 0 \$1;
#X obj 20 148 f;
#X obj 20 192 vline~;
#X msg 47 107 \$1 \$2 \, \$3 \$4 \$2;
#X obj 47 86 pack 0 0 0 0;
#X obj 93 65 *;
#X obj 47 64 t f f;
#X obj 5 -438 +~;
#X obj 36 -459 r bend\$0;
#X obj 41 -440 r vibrate\$0;
#X obj 73 -419 r vibdepth\$0;
#X obj 12 -73 r waveshaper\$0;
#X obj 27 0 r kill\$0;
#X obj 70 22 r attack\$0;
#X obj 108 43 r sustain\$0;
#X obj 116 65 r decay\$0;
#X obj 35 128 r release\$0;
#X obj 5 239 throw~ all\$0;
#X obj 129 -111 tabread~ \$0-Hanning;
#X obj 114 -70 tabread4~ \$0-scope;
#X connect 0 0 1 0;
#X connect 0 0 9 0;
#X connect 0 0 14 0;
#X connect 0 0 16 1;
#X connect 0 0 20 0;
#X connect 0 0 21 0;
#X connect 0 0 22 0;
#X connect 1 0 16 0;
#X connect 2 0 16 2;
#X connect 3 0 2 0;
#X connect 4 0 6 0;
#X connect 5 0 7 0;
#X connect 6 0 5 0;
#X connect 7 0 2 1;
#X connect 8 0 3 0;
#X connect 9 0 8 0;
#X connect 10 0 0 1;
#X connect 10 0 4 1;
#X connect 11 0 14 1;
#X connect 12 0 10 0;
#X connect 12 0 13 0;
#X connect 13 0 11 1;
#X connect 14 0 15 0;
#X connect 15 0 16 3;
#X connect 16 0 24 0;
#X connect 17 0 16 4;
#X connect 18 0 17 0;
#X connect 19 0 16 5;
#X connect 19 0 16 6;
#X connect 20 0 51 0;
#X connect 21 0 52 0;
#X connect 22 0 18 0;
#X connect 23 0 27 0;
#X connect 23 1 25 0;
#X connect 24 0 50 0;
#X connect 25 0 32 0;
#X connect 26 0 23 0;
#X connect 27 0 40 0;
#X connect 28 0 0 0;
#X connect 28 0 31 0;
#X connect 29 0 28 1;
#X connect 30 0 29 0;
#X connect 31 0 4 0;
#X connect 31 0 11 0;
#X connect 32 0 34 0;
#X connect 32 1 39 0;
#X connect 33 0 35 0;
#X connect 34 0 33 0;
#X connect 35 0 24 1;
#X connect 36 0 35 0;
#X connect 37 0 36 0;
#X connect 38 0 37 2;
#X connect 39 0 37 0;
#X connect 39 1 38 0;
#X connect 40 0 28 0;
#X connect 41 0 40 1;
#X connect 42 0 30 0;
#X connect 43 0 29 1;
#X connect 44 0 16 0;
#X connect 45 0 25 0;
#X connect 46 0 37 1;
#X connect 47 0 38 1;
#X connect 48 0 37 3;
#X connect 49 0 34 1;
#X connect 51 0 19 1;
#X connect 52 0 19 0;
#X restore 451 -227 pd wavehaper;
#N canvas 1069 121 403 766 wavehaper 0;
#X obj 26 -356 phasor~;
#X obj 5 -326 sin~;
#X obj 48 -192 +~;
#X obj 48 -213 clip~ 0 1;
#X obj 63 -297 phasor~;
#X obj 63 -254 -~ 1;
#X obj 63 -275 *~ 2;
#X obj 63 -234 clip~ 0 1;
#X obj 33 -241 -~ 1;
#X obj 33 -262 *~ 2;
#X msg 102 -375 0;
#X obj 111 -297 phasor~;
#X obj 102 -395 loadbang;
#X msg 134 -375 0.5;
#X obj 96 -275 +~;
#X obj 96 -254 -~ 1;
#X obj 5 -28 multiplex~ . . . . . . . .;
#X obj 92 -151 *~ 100;
#X obj 92 -172 clip~ 0 1;
#X obj 114 -49 *~;
#X obj 129 -131 *~ 256;
#X obj 114 -91 *~ 100;
#X obj 92 -193 -~ 0.99;
#X obj 5 -480 unpack 0 0;
#X obj 5 215 *~;
#X obj 20 20 / 127;
#X obj 5 -502 inlet;
#X obj 5 -460 sig~;
#X obj 26 -376 +~;
#X obj 41 -395 *~;
#X obj 41 -419 osc~;
#X obj 63 -318 *~ -1;
#X obj 20 43 sel 0;
#X msg 20 169 0 \$1;
#X obj 20 148 f;
#X obj 20 192 vline~;
#X msg 47 107 \$1 \$2 \, \$3 \$4 \$2;
#X obj 47 86 pack 0 0 0 0;
#X obj 93 65 *;
#X obj 47 64 t f f;
#X obj 5 -438 +~;
#X obj 36 -459 r bend\$0;
#X obj 41 -440 r vibrate\$0;
#X obj 73 -419 r vibdepth\$0;
#X obj 12 -73 r waveshaper\$0;
#X obj 27 0 r kill\$0;
#X obj 70 22 r attack\$0;
#X obj 108 43 r sustain\$0;
#X obj 116 65 r decay\$0;
#X obj 35 128 r release\$0;
#X obj 5 239 throw~ all\$0;
#X obj 129 -111 tabread~ \$0-Hanning;
#X obj 114 -70 tabread4~ \$0-scope;
#X connect 0 0 1 0;
#X connect 0 0 9 0;
#X connect 0 0 14 0;
#X connect 0 0 16 1;
#X connect 0 0 20 0;
#X connect 0 0 21 0;
#X connect 0 0 22 0;
#X connect 1 0 16 0;
#X connect 2 0 16 2;
#X connect 3 0 2 0;
#X connect 4 0 6 0;
#X connect 5 0 7 0;
#X connect 6 0 5 0;
#X connect 7 0 2 1;
#X connect 8 0 3 0;
#X connect 9 0 8 0;
#X connect 10 0 0 1;
#X connect 10 0 4 1;
#X connect 11 0 14 1;
#X connect 12 0 10 0;
#X connect 12 0 13 0;
#X connect 13 0 11 1;
#X connect 14 0 15 0;
#X connect 15 0 16 3;
#X connect 16 0 24 0;
#X connect 17 0 16 4;
#X connect 18 0 17 0;
#X connect 19 0 16 5;
#X connect 19 0 16 6;
#X connect 20 0 51 0;
#X connect 21 0 52 0;
#X connect 22 0 18 0;
#X connect 23 0 27 0;
#X connect 23 1 25 0;
#X connect 24 0 50 0;
#X connect 25 0 32 0;
#X connect 26 0 23 0;
#X connect 27 0 40 0;
#X connect 28 0 0 0;
#X connect 28 0 31 0;
#X connect 29 0 28 1;
#X connect 30 0 29 0;
#X connect 31 0 4 0;
#X connect 31 0 11 0;
#X connect 32 0 34 0;
#X connect 32 1 39 0;
#X connect 33 0 35 0;
#X connect 34 0 33 0;
#X connect 35 0 24 1;
#X connect 36 0 35 0;
#X connect 37 0 36 0;
#X connect 38 0 37 2;
#X connect 39 0 37 0;
#X connect 39 1 38 0;
#X connect 40 0 28 0;
#X connect 41 0 40 1;
#X connect 42 0 30 0;
#X connect 43 0 29 1;
#X connect 44 0 16 0;
#X connect 45 0 25 0;
#X connect 46 0 37 1;
#X connect 47 0 38 1;
#X connect 48 0 37 3;
#X connect 49 0 34 1;
#X connect 51 0 19 1;
#X connect 52 0 19 0;
#X restore 467 -207 pd wavehaper;
#X obj 749 -481 t s b b b;
#X obj 749 39 t a b b;
#X msg 1029 150 symbol \$1;
#X obj 1029 -92 splitfilename /;
#X obj 1029 -72 makefilename %s/*.txt;
#X obj 1029 171 s directory;
#X obj 749 19 r directory;
#X msg 1029 53 directory /Users/ug_tek/Desktop/Waveshapes/*.txt \,
;
#X obj 1029 129 symbol;
#X msg 1029 -30 save;
#X obj 1037 32 t b b;
#X obj 1029 -52 t b s;
#X symbolatom 1056 86 10 0 0 0 - - -;
#X obj 947 6 prepend load;
#X obj 1029 -10 my.hero.mmb \$0;
#X obj 1029 106 save.me.mmb directory \$0;
#X obj 570 106 -~ 0.99;
#X obj 749 60 folder_list *.waveshapes~.txt;
#X msg 749 -73 write \$1.waveshapes~.txt;
#X text -83 -490 MIDI learning;
#X text -286 -212 Saving;
#X text 654 -412 Saving;
#X text 247 -512 Audio Processing;
#X connect 0 0 20 0;
#X connect 0 0 42 0;
#X connect 0 0 147 0;
#X connect 0 0 172 0;
#X connect 8 0 193 0;
#X connect 8 1 193 1;
#X connect 10 0 19 0;
#X connect 11 2 12 0;
#X connect 12 0 13 0;
#X connect 12 1 185 1;
#X connect 13 0 14 0;
#X connect 14 0 15 0;
#X connect 15 0 17 0;
#X connect 15 1 16 0;
#X connect 16 0 17 1;
#X connect 17 0 18 0;
#X connect 18 0 185 0;
#X connect 19 0 11 0;
#X connect 19 1 186 0;
#X connect 20 0 8 0;
#X connect 20 0 24 0;
#X connect 20 1 24 0;
#X connect 20 1 192 0;
#X connect 20 2 23 0;
#X connect 21 0 192 0;
#X connect 23 0 78 0;
#X connect 24 0 78 0;
#X connect 25 0 58 0;
#X connect 25 0 59 0;
#X connect 26 0 27 0;
#X connect 26 0 35 0;
#X connect 26 0 40 0;
#X connect 26 0 42 1;
#X connect 26 0 46 0;
#X connect 26 0 47 0;
#X connect 26 0 216 0;
#X connect 27 0 42 0;
#X connect 28 0 42 2;
#X connect 29 0 28 0;
#X connect 30 0 32 0;
#X connect 31 0 33 0;
#X connect 32 0 31 0;
#X connect 33 0 28 1;
#X connect 34 0 29 0;
#X connect 35 0 34 0;
#X connect 36 0 26 1;
#X connect 36 0 30 1;
#X connect 37 0 40 1;
#X connect 38 0 36 0;
#X connect 38 0 39 0;
#X connect 39 0 37 1;
#X connect 40 0 41 0;
#X connect 41 0 42 3;
#X connect 42 0 49 0;
#X connect 43 0 42 4;
#X connect 44 0 43 0;
#X connect 45 0 42 5;
#X connect 45 0 42 6;
#X connect 46 0 191 0;
#X connect 47 0 190 0;
#X connect 48 0 74 0;
#X connect 48 1 74 1;
#X connect 49 0 1 0;
#X connect 49 0 183 0;
#X connect 49 0 184 0;
#X connect 50 0 85 0;
#X connect 51 0 52 0;
#X connect 51 1 194 0;
#X connect 51 2 195 0;
#X connect 51 3 196 0;
#X connect 51 4 197 0;
#X connect 51 5 198 0;
#X connect 51 6 199 0;
#X connect 51 7 48 0;
#X connect 53 0 118 0;
#X connect 54 0 53 0;
#X connect 55 0 30 0;
#X connect 55 0 37 0;
#X connect 56 0 58 1;
#X connect 56 0 61 1;
#X connect 57 0 62 1;
#X connect 58 0 62 0;
#X connect 58 1 57 0;
#X connect 58 2 62 2;
#X connect 59 0 61 0;
#X connect 60 0 64 1;
#X connect 60 0 65 0;
#X connect 60 0 70 0;
#X connect 60 0 72 0;
#X connect 60 0 152 0;
#X connect 61 0 63 0;
#X connect 62 0 64 0;
#X connect 63 0 51 0;
#X connect 64 0 51 0;
#X connect 65 0 66 0;
#X connect 65 1 67 0;
#X connect 66 0 63 1;
#X connect 67 0 63 1;
#X connect 67 0 50 0;
#X connect 69 0 71 1;
#X connect 70 0 69 0;
#X connect 71 0 1 0;
#X connect 71 0 184 0;
#X connect 72 0 174 0;
#X connect 73 0 23 0;
#X connect 74 1 54 0;
#X connect 74 2 50 0;
#X connect 75 0 77 0;
#X connect 76 0 26 0;
#X connect 76 0 55 0;
#X connect 77 0 76 1;
#X connect 78 0 183 0;
#X connect 79 0 148 0;
#X connect 79 0 167 0;
#X connect 80 0 84 0;
#X connect 80 0 150 0;
#X connect 81 0 149 0;
#X connect 81 0 168 0;
#X connect 82 0 151 0;
#X connect 82 0 170 0;
#X connect 83 0 80 0;
#X connect 83 0 150 0;
#X connect 84 0 169 0;
#X connect 85 0 87 0;
#X connect 85 1 92 0;
#X connect 86 0 88 0;
#X connect 87 0 86 0;
#X connect 88 0 49 1;
#X connect 89 0 88 0;
#X connect 90 0 89 0;
#X connect 91 0 90 2;
#X connect 92 0 90 0;
#X connect 92 1 91 0;
#X connect 93 0 54 1;
#X connect 93 0 155 0;
#X connect 94 0 154 0;
#X connect 94 0 175 0;
#X connect 94 0 75 0;
#X connect 95 0 77 1;
#X connect 95 0 153 0;
#X connect 95 0 176 0;
#X connect 96 0 103 1;
#X connect 96 0 100 1;
#X connect 97 0 102 1;
#X connect 98 0 102 0;
#X connect 99 0 105 0;
#X connect 100 0 101 0;
#X connect 100 0 98 1;
#X connect 101 0 96 0;
#X connect 102 0 99 1;
#X connect 103 0 97 1;
#X connect 104 0 99 0;
#X connect 104 0 108 0;
#X connect 104 1 100 0;
#X connect 104 1 98 0;
#X connect 104 1 109 0;
#X connect 104 1 107 0;
#X connect 104 2 103 0;
#X connect 104 2 97 0;
#X connect 104 2 106 0;
#X connect 104 2 112 0;
#X connect 105 0 95 0;
#X connect 106 0 111 1;
#X connect 107 0 111 0;
#X connect 108 0 114 0;
#X connect 108 0 123 0;
#X connect 109 0 110 0;
#X connect 109 0 107 1;
#X connect 110 0 113 0;
#X connect 111 0 108 1;
#X connect 111 0 125 0;
#X connect 112 0 106 1;
#X connect 113 0 112 1;
#X connect 113 0 109 1;
#X connect 114 0 115 0;
#X connect 115 0 116 0;
#X connect 116 0 118 1;
#X connect 116 0 173 0;
#X connect 117 0 79 0;
#X connect 117 0 82 0;
#X connect 117 0 81 0;
#X connect 117 0 148 0;
#X connect 117 0 149 0;
#X connect 117 0 151 0;
#X connect 118 0 76 0;
#X connect 119 0 120 0;
#X connect 119 0 122 0;
#X connect 119 1 112 0;
#X connect 119 1 106 0;
#X connect 119 1 122 0;
#X connect 120 0 121 0;
#X connect 121 0 108 0;
#X connect 121 0 124 0;
#X connect 122 0 109 0;
#X connect 122 0 107 0;
#X connect 127 0 166 0;
#X connect 128 0 126 0;
#X connect 129 0 137 0;
#X connect 130 0 129 0;
#X connect 131 0 133 0;
#X connect 132 0 131 0;
#X connect 133 0 131 0;
#X connect 133 1 134 0;
#X connect 134 0 129 0;
#X connect 135 0 200 0;
#X connect 136 0 126 0;
#X connect 137 0 136 0;
#X connect 138 1 160 0;
#X connect 139 0 140 0;
#X connect 140 0 141 0;
#X connect 141 0 138 0;
#X connect 142 0 141 0;
#X connect 143 0 141 0;
#X connect 143 1 158 0;
#X connect 144 0 210 0;
#X connect 145 0 141 0;
#X connect 146 0 114 0;
#X connect 146 0 153 0;
#X connect 146 0 154 0;
#X connect 146 0 155 0;
#X connect 146 0 147 0;
#X connect 147 0 0 0;
#X connect 148 0 79 0;
#X connect 149 0 81 0;
#X connect 150 0 80 0;
#X connect 151 0 82 0;
#X connect 152 0 60 0;
#X connect 153 0 95 0;
#X connect 154 0 94 0;
#X connect 155 0 93 0;
#X connect 156 0 189 0;
#X connect 157 0 152 0;
#X connect 157 0 60 0;
#X connect 158 0 160 1;
#X connect 158 0 166 1;
#X connect 158 1 162 0;
#X connect 159 0 161 0;
#X connect 160 0 159 0;
#X connect 161 0 163 0;
#X connect 162 0 139 0;
#X connect 162 1 163 1;
#X connect 163 0 164 0;
#X connect 164 0 165 0;
#X connect 165 0 132 0;
#X connect 166 0 135 0;
#X connect 171 0 71 0;
#X connect 171 0 183 0;
#X connect 177 0 87 1;
#X connect 178 0 90 3;
#X connect 179 0 91 1;
#X connect 180 0 90 1;
#X connect 186 0 187 0;
#X connect 187 0 185 0;
#X connect 188 0 156 0;
#X connect 190 0 45 0;
#X connect 191 0 45 1;
#X connect 200 0 218 0;
#X connect 200 0 203 0;
#X connect 200 1 137 0;
#X connect 200 2 130 0;
#X connect 200 3 128 0;
#X connect 200 3 188 0;
#X connect 201 0 217 0;
#X connect 201 1 142 0;
#X connect 201 2 145 0;
#X connect 202 0 205 0;
#X connect 203 0 204 0;
#X connect 204 0 211 0;
#X connect 206 0 201 0;
#X connect 207 0 213 0;
#X connect 208 0 202 0;
#X connect 208 0 212 0;
#X connect 209 0 214 0;
#X connect 210 0 207 0;
#X connect 210 1 201 0;
#X connect 211 0 209 0;
#X connect 211 1 212 0;
#X connect 212 0 205 0;
#X connect 212 0 215 0;
#X connect 213 0 214 0;
#X connect 214 0 207 0;
#X connect 215 0 208 0;
#X connect 216 0 44 0;
#X connect 217 0 143 0;
#X connect 218 0 126 0;
#X coords 0 -1 1 1 300 400 1 -90 -200;
